<?xml version="1.0" encoding="UTF-8" standalone="no"?>
<!DOCTYPE svg PUBLIC "-//W3C//DTD SVG 1.1//EN"
 "http://www.w3.org/Graphics/SVG/1.1/DTD/svg11.dtd">
<!-- Generated by graphviz version 12.2.1 (0)
 -->
<!-- Title: G Pages: 1 -->
<svg width="466pt" height="586pt"
 viewBox="0.00 0.00 465.93 585.67" xmlns="http://www.w3.org/2000/svg" xmlns:xlink="http://www.w3.org/1999/xlink">
<g id="graph0" class="graph" transform="scale(1 1) rotate(0) translate(4 581.67)">
<title>G</title><style>.edge>path:hover{stroke-width:8}</style>
<polygon fill="black" stroke="none" points="-4,4 -4,-581.67 461.93,-581.67 461.93,4 -4,4"/>
<!-- chezmoi_mousse___main__ -->
<g id="node1" class="node">
<title>chezmoi_mousse___main__</title><style>.edge>path:hover{stroke-width:8}</style>
<ellipse fill="#723231" stroke="silver" cx="367.47" cy="-21.57" rx="66.47" ry="21.57"/>
<text text-anchor="middle" x="367.47" y="-23.32" font-family="Helvetica,sans-Serif" font-size="10.00" fill="#ffffff">chezmoi_mousse.</text>
<text text-anchor="middle" x="367.47" y="-12.07" font-family="Helvetica,sans-Serif" font-size="10.00" fill="#ffffff">__main__</text>
</g>
<!-- chezmoi_mousse_chezmoi -->
<g id="node2" class="node">
<title>chezmoi_mousse_chezmoi</title><style>.edge>path:hover{stroke-width:8}</style>
<ellipse fill="#e72622" stroke="silver" cx="132.47" cy="-338.1" rx="66.47" ry="21.57"/>
<text text-anchor="middle" x="132.47" y="-339.85" font-family="Helvetica,sans-Serif" font-size="10.00" fill="#ffffff">chezmoi_mousse.</text>
<text text-anchor="middle" x="132.47" y="-328.6" font-family="Helvetica,sans-Serif" font-size="10.00" fill="#ffffff">chezmoi</text>
</g>
<!-- chezmoi_mousse_components -->
<g id="node3" class="node">
<title>chezmoi_mousse_components</title><style>.edge>path:hover{stroke-width:8}</style>
<ellipse fill="#732726" stroke="silver" cx="254.47" cy="-258.97" rx="66.47" ry="21.57"/>
<text text-anchor="middle" x="254.47" y="-260.72" font-family="Helvetica,sans-Serif" font-size="10.00" fill="#ffffff">chezmoi_mousse.</text>
<text text-anchor="middle" x="254.47" y="-249.47" font-family="Helvetica,sans-Serif" font-size="10.00" fill="#ffffff">components</text>
</g>
<!-- chezmoi_mousse_chezmoi&#45;&gt;chezmoi_mousse_components -->
<g id="edge1" class="edge">
<title>chezmoi_mousse_chezmoi&#45;&gt;chezmoi_mousse_components</title><style>.edge>path:hover{stroke-width:8}</style>
<path fill="none" stroke="silver" d="M162,-318.43C178.07,-308.27 198.14,-295.58 215.48,-284.62"/>
<polygon fill="#e72622" stroke="silver" points="216.92,-287.85 223.51,-279.54 213.18,-281.93 216.92,-287.85"/>
</g>
<!-- chezmoi_mousse_gui -->
<g id="node5" class="node">
<title>chezmoi_mousse_gui</title><style>.edge>path:hover{stroke-width:8}</style>
<ellipse fill="#732726" stroke="silver" cx="320.47" cy="-100.7" rx="66.47" ry="21.57"/>
<text text-anchor="middle" x="320.47" y="-102.45" font-family="Helvetica,sans-Serif" font-size="10.00" fill="#ffffff">chezmoi_mousse.</text>
<text text-anchor="middle" x="320.47" y="-91.2" font-family="Helvetica,sans-Serif" font-size="10.00" fill="#ffffff">gui</text>
</g>
<!-- chezmoi_mousse_chezmoi&#45;&gt;chezmoi_mousse_gui -->
<g id="edge2" class="edge">
<title>chezmoi_mousse_chezmoi&#45;&gt;chezmoi_mousse_gui</title><style>.edge>path:hover{stroke-width:8}</style>
<path fill="none" stroke="silver" d="M137.36,-316.34C141.78,-300.15 149.32,-277.53 160.47,-259.97"/>
<path fill="none" stroke="silver" d="M160.47,-257.97C178.84,-229.02 135.32,-204.13 160.47,-180.83"/>
</g>
<!-- chezmoi_mousse_main_tabs -->
<g id="node6" class="node">
<title>chezmoi_mousse_main_tabs</title><style>.edge>path:hover{stroke-width:8}</style>
<ellipse fill="#732726" stroke="silver" cx="320.47" cy="-179.83" rx="66.47" ry="21.57"/>
<text text-anchor="middle" x="320.47" y="-181.58" font-family="Helvetica,sans-Serif" font-size="10.00" fill="#ffffff">chezmoi_mousse.</text>
<text text-anchor="middle" x="320.47" y="-170.33" font-family="Helvetica,sans-Serif" font-size="10.00" fill="#ffffff">main_tabs</text>
</g>
<!-- chezmoi_mousse_chezmoi&#45;&gt;chezmoi_mousse_main_tabs -->
<g id="edge3" class="edge">
<title>chezmoi_mousse_chezmoi&#45;&gt;chezmoi_mousse_main_tabs</title><style>.edge>path:hover{stroke-width:8}</style>
<path fill="none" stroke="silver" d="M160.47,-257.97C181.12,-225.43 219.74,-206.28 253.86,-195.2"/>
<polygon fill="#e72622" stroke="silver" points="254.76,-198.58 263.3,-192.32 252.72,-191.88 254.76,-198.58"/>
</g>
<!-- chezmoi_mousse_splash -->
<g id="node7" class="node">
<title>chezmoi_mousse_splash</title><style>.edge>path:hover{stroke-width:8}</style>
<ellipse fill="#732726" stroke="silver" cx="66.47" cy="-258.97" rx="66.47" ry="21.57"/>
<text text-anchor="middle" x="66.47" y="-260.72" font-family="Helvetica,sans-Serif" font-size="10.00" fill="#ffffff">chezmoi_mousse.</text>
<text text-anchor="middle" x="66.47" y="-249.47" font-family="Helvetica,sans-Serif" font-size="10.00" fill="#ffffff">splash</text>
</g>
<!-- chezmoi_mousse_chezmoi&#45;&gt;chezmoi_mousse_splash -->
<g id="edge4" class="edge">
<title>chezmoi_mousse_chezmoi&#45;&gt;chezmoi_mousse_splash</title><style>.edge>path:hover{stroke-width:8}</style>
<path fill="none" stroke="silver" d="M115.13,-316.83C107.78,-308.24 99.07,-298.07 91.08,-288.73"/>
<polygon fill="#e72622" stroke="silver" points="93.84,-286.57 84.68,-281.25 88.52,-291.12 93.84,-286.57"/>
</g>
<!-- chezmoi_mousse_components&#45;&gt;chezmoi_mousse_main_tabs -->
<g id="edge5" class="edge">
<title>chezmoi_mousse_components&#45;&gt;chezmoi_mousse_main_tabs</title><style>.edge>path:hover{stroke-width:8}</style>
<path fill="none" stroke="silver" d="M271.81,-237.7C279.16,-229.11 287.86,-218.94 295.86,-209.59"/>
<polygon fill="#732726" stroke="silver" points="298.42,-211.99 302.26,-202.11 293.1,-207.44 298.42,-211.99"/>
</g>
<!-- chezmoi_mousse_config -->
<g id="node4" class="node">
<title>chezmoi_mousse_config</title><style>.edge>path:hover{stroke-width:8}</style>
<ellipse fill="#ce3d3b" stroke="silver" cx="320.47" cy="-338.1" rx="66.47" ry="21.57"/>
<text text-anchor="middle" x="320.47" y="-339.85" font-family="Helvetica,sans-Serif" font-size="10.00" fill="#ffffff">chezmoi_mousse.</text>
<text text-anchor="middle" x="320.47" y="-328.6" font-family="Helvetica,sans-Serif" font-size="10.00" fill="#ffffff">config</text>
</g>
<!-- chezmoi_mousse_config&#45;&gt;chezmoi_mousse_components -->
<g id="edge6" class="edge">
<title>chezmoi_mousse_config&#45;&gt;chezmoi_mousse_components</title><style>.edge>path:hover{stroke-width:8}</style>
<path fill="none" stroke="silver" d="M303.13,-316.83C295.78,-308.24 287.07,-298.07 279.08,-288.73"/>
<polygon fill="#ce3d3b" stroke="silver" points="281.84,-286.57 272.68,-281.25 276.52,-291.12 281.84,-286.57"/>
</g>
<!-- chezmoi_mousse_config&#45;&gt;chezmoi_mousse_main_tabs -->
<g id="edge7" class="edge">
<title>chezmoi_mousse_config&#45;&gt;chezmoi_mousse_main_tabs</title><style>.edge>path:hover{stroke-width:8}</style>
<path fill="none" stroke="silver" d="M324.59,-316.24C326.49,-305.6 328.53,-292.43 329.47,-280.53 330.98,-261.42 330.98,-256.51 329.47,-237.4 328.84,-229.41 327.71,-220.84 326.46,-212.85"/>
<polygon fill="#ce3d3b" stroke="silver" points="329.95,-212.47 324.84,-203.19 323.04,-213.63 329.95,-212.47"/>
</g>
<!-- chezmoi_mousse_gui&#45;&gt;chezmoi_mousse___main__ -->
<g id="edge8" class="edge">
<title>chezmoi_mousse_gui&#45;&gt;chezmoi_mousse___main__</title><style>.edge>path:hover{stroke-width:8}</style>
<path fill="none" stroke="silver" d="M333.06,-79.03C338,-70.92 343.77,-61.46 349.15,-52.63"/>
<polygon fill="#732726" stroke="silver" points="352,-54.68 354.21,-44.32 346.02,-51.04 352,-54.68"/>
</g>
<!-- chezmoi_mousse_main_tabs&#45;&gt;chezmoi_mousse_gui -->
<g id="edge9" class="edge">
<title>chezmoi_mousse_main_tabs&#45;&gt;chezmoi_mousse_gui</title><style>.edge>path:hover{stroke-width:8}</style>
<path fill="none" stroke="silver" d="M320.47,-158.16C320.47,-150.79 320.47,-142.29 320.47,-134.16"/>
<polygon fill="#732726" stroke="silver" points="323.97,-134.21 320.47,-124.21 316.97,-134.21 323.97,-134.21"/>
</g>
<!-- chezmoi_mousse_splash&#45;&gt;chezmoi_mousse_gui -->
<g id="edge10" class="edge">
<title>chezmoi_mousse_splash&#45;&gt;chezmoi_mousse_gui</title><style>.edge>path:hover{stroke-width:8}</style>
<path fill="none" stroke="silver" d="M91.49,-238.77C110.84,-223.62 138.01,-201.63 160.47,-180.83"/>
<path fill="none" stroke="silver" d="M160.47,-178.83C189.56,-151.89 229.79,-132.55 262.64,-119.98"/>
<polygon fill="#732726" stroke="silver" points="263.44,-123.42 271.6,-116.66 261,-116.85 263.44,-123.42"/>
</g>
<!-- rich -->
<g id="node8" class="node">
<title>rich</title><style>.edge>path:hover{stroke-width:8}</style>
<polygon fill="#06f90a" stroke="silver" points="308.47,-577.67 305.47,-581.67 284.47,-581.67 281.47,-577.67 254.47,-577.67 254.47,-541.67 308.47,-541.67 308.47,-577.67"/>
<text text-anchor="middle" x="281.47" y="-555.79" font-family="Helvetica,sans-Serif" font-size="10.00" fill="#000000">rich</text>
</g>
<!-- rich&#45;&gt;chezmoi_mousse___main__ -->
<g id="edge11" class="edge">
<title>rich&#45;&gt;chezmoi_mousse___main__</title><style>.edge>path:hover{stroke-width:8}</style>
<path fill="none" stroke="silver" d="M452.47,-257.97C435.5,-188.53 441.36,-167.92 414.47,-101.7"/>
</g>
<!-- rich&#45;&gt;chezmoi_mousse_components -->
<g id="edge12" class="edge">
<title>rich&#45;&gt;chezmoi_mousse_components</title><style>.edge>path:hover{stroke-width:8}</style>
<path fill="none" stroke="silver" d="M226.47,-395.67C214.22,-373.71 226.17,-364.24 226.47,-339.1"/>
<path fill="none" stroke="silver" d="M226.47,-337.1C226.66,-321.25 231.97,-304.61 237.92,-290.86"/>
<polygon fill="#06f90a" stroke="silver" points="241.05,-292.43 242.1,-281.89 234.7,-289.48 241.05,-292.43"/>
</g>
<!-- rich&#45;&gt;chezmoi_mousse_main_tabs -->
<g id="edge13" class="edge">
<title>rich&#45;&gt;chezmoi_mousse_main_tabs</title><style>.edge>path:hover{stroke-width:8}</style>
<path fill="none" stroke="silver" d="M281.47,-504.67C282.45,-482.06 301.66,-484.85 317.47,-468.67 364.26,-420.77 387.52,-417.38 421.47,-359.67 444.99,-319.67 468.27,-303.6 452.47,-259.97"/>
<path fill="none" stroke="silver" d="M452.47,-257.97C444.84,-226.74 414.88,-207.79 385.43,-196.5"/>
<polygon fill="#06f90a" stroke="silver" points="386.66,-193.22 376.07,-193.18 384.32,-199.82 386.66,-193.22"/>
</g>
<!-- rich&#45;&gt;chezmoi_mousse_splash -->
<g id="edge14" class="edge">
<title>rich&#45;&gt;chezmoi_mousse_splash</title><style>.edge>path:hover{stroke-width:8}</style>
<path fill="none" stroke="silver" d="M281.47,-541.48C281.47,-531.11 281.47,-517.63 281.47,-505.67"/>
<path fill="none" stroke="silver" d="M281.47,-504.67C281.47,-482.04 256.74,-488.28 245.47,-468.67 228.97,-439.97 242.59,-425.57 226.47,-396.67"/>
<path fill="none" stroke="silver" d="M226.47,-395.67C174.64,-325.47 78.65,-416.55 38.47,-339.1"/>
<path fill="none" stroke="silver" d="M38.47,-337.1C30.68,-322.1 36.13,-304.44 44.21,-289.8"/>
<polygon fill="#06f90a" stroke="silver" points="47.05,-291.87 49.3,-281.52 41.09,-288.2 47.05,-291.87"/>
</g>
<!-- textual -->
<g id="node9" class="node">
<title>textual</title><style>.edge>path:hover{stroke-width:8}</style>
<polygon fill="#0905e5" stroke="silver" points="308.47,-468.67 305.47,-472.67 284.47,-472.67 281.47,-468.67 254.47,-468.67 254.47,-432.67 308.47,-432.67 308.47,-468.67"/>
<text text-anchor="middle" x="281.47" y="-446.79" font-family="Helvetica,sans-Serif" font-size="10.00" fill="#ffffff">textual</text>
</g>
<!-- rich&#45;&gt;textual -->
<g id="edge15" class="edge">
<title>rich&#45;&gt;textual</title><style>.edge>path:hover{stroke-width:8}</style>
<path fill="none" stroke="silver" d="M281.47,-504.67C281.47,-496.72 281.47,-488.11 281.47,-480.18"/>
<polygon fill="#06f90a" stroke="silver" points="284.97,-480.37 281.47,-470.37 277.97,-480.37 284.97,-480.37"/>
</g>
<!-- textual&#45;&gt;chezmoi_mousse___main__ -->
<g id="edge16" class="edge">
<title>textual&#45;&gt;chezmoi_mousse___main__</title><style>.edge>path:hover{stroke-width:8}</style>
<path fill="none" stroke="silver" d="M414.47,-178.83C405.39,-145.78 427.37,-133.46 414.47,-101.7"/>
<path fill="none" stroke="silver" d="M414.47,-99.7C407.77,-83.22 397.78,-66.19 388.73,-52.34"/>
<polygon fill="#0905e5" stroke="silver" points="391.69,-50.48 383.21,-44.13 385.88,-54.38 391.69,-50.48"/>
</g>
<!-- textual&#45;&gt;chezmoi_mousse_components -->
<g id="edge17" class="edge">
<title>textual&#45;&gt;chezmoi_mousse_components</title><style>.edge>path:hover{stroke-width:8}</style>
<path fill="none" stroke="silver" d="M264.47,-395.67C251.54,-368.28 226.11,-369.39 226.47,-339.1"/>
</g>
<!-- textual&#45;&gt;chezmoi_mousse_gui -->
<g id="edge18" class="edge">
<title>textual&#45;&gt;chezmoi_mousse_gui</title><style>.edge>path:hover{stroke-width:8}</style>
<path fill="none" stroke="silver" d="M414.47,-257.97C406.78,-224.56 423.55,-213.89 414.47,-180.83"/>
<path fill="none" stroke="silver" d="M414.47,-178.83C407.98,-155.22 388.07,-137.16 368.23,-124.48"/>
<polygon fill="#0905e5" stroke="silver" points="370.23,-121.6 359.86,-119.47 366.64,-127.61 370.23,-121.6"/>
</g>
<!-- textual&#45;&gt;chezmoi_mousse_main_tabs -->
<g id="edge19" class="edge">
<title>textual&#45;&gt;chezmoi_mousse_main_tabs</title><style>.edge>path:hover{stroke-width:8}</style>
<path fill="none" stroke="silver" d="M264.47,-395.67C238.7,-341.06 354.51,-404.03 395.47,-359.67 426.07,-326.52 426.41,-303.47 414.47,-259.97"/>
<path fill="none" stroke="silver" d="M414.47,-257.97C408.97,-234.1 389.15,-216.02 369.12,-203.39"/>
<polygon fill="#0905e5" stroke="silver" points="371.03,-200.45 360.64,-198.39 367.48,-206.49 371.03,-200.45"/>
</g>
<!-- textual&#45;&gt;chezmoi_mousse_splash -->
<g id="edge20" class="edge">
<title>textual&#45;&gt;chezmoi_mousse_splash</title><style>.edge>path:hover{stroke-width:8}</style>
<path fill="none" stroke="silver" d="M277.2,-432.53C274.26,-421.93 269.91,-408.2 264.47,-396.67"/>
<path fill="none" stroke="silver" d="M264.47,-395.67C244.54,-353.44 98.47,-381.99 57.47,-359.67 46.54,-353.72 44.2,-350.15 38.47,-339.1"/>
</g>
</g>
</svg>
