<?xml version="1.0" encoding="UTF-8" standalone="no"?>
<!DOCTYPE svg PUBLIC "-//W3C//DTD SVG 1.1//EN"
 "http://www.w3.org/Graphics/SVG/1.1/DTD/svg11.dtd">
<!-- Generated by graphviz version 12.2.1 (0)
 -->
<!-- Title: G Pages: 1 -->
<svg width="630pt" height="586pt"
 viewBox="0.00 0.00 630.00 585.67" xmlns="http://www.w3.org/2000/svg" xmlns:xlink="http://www.w3.org/1999/xlink">
<g id="graph0" class="graph" transform="scale(1 1) rotate(0) translate(4 581.67)">
<title>G</title><style>.edge>path:hover{stroke-width:8}</style>
<polygon fill="black" stroke="none" points="-4,4 -4,-581.67 626,-581.67 626,4 -4,4"/>
<!-- chezmoi_mousse___main__ -->
<g id="node1" class="node">
<title>chezmoi_mousse___main__</title><style>.edge>path:hover{stroke-width:8}</style>
<ellipse fill="#ac4b49" stroke="silver" cx="94.38" cy="-21.57" rx="66.47" ry="21.57"/>
<text text-anchor="middle" x="94.38" y="-23.32" font-family="Helvetica,sans-Serif" font-size="10.00" fill="#ffffff">chezmoi_mousse.</text>
<text text-anchor="middle" x="94.38" y="-12.07" font-family="Helvetica,sans-Serif" font-size="10.00" fill="#ffffff">__main__</text>
</g>
<!-- chezmoi_mousse_chezmoi -->
<g id="node2" class="node">
<title>chezmoi_mousse_chezmoi</title><style>.edge>path:hover{stroke-width:8}</style>
<ellipse fill="#e72622" stroke="silver" cx="527.38" cy="-338.1" rx="66.47" ry="21.57"/>
<text text-anchor="middle" x="527.38" y="-339.85" font-family="Helvetica,sans-Serif" font-size="10.00" fill="#ffffff">chezmoi_mousse.</text>
<text text-anchor="middle" x="527.38" y="-328.6" font-family="Helvetica,sans-Serif" font-size="10.00" fill="#ffffff">chezmoi</text>
</g>
<!-- chezmoi_mousse_components -->
<g id="node3" class="node">
<title>chezmoi_mousse_components</title><style>.edge>path:hover{stroke-width:8}</style>
<ellipse fill="#732726" stroke="silver" cx="339.38" cy="-258.97" rx="66.47" ry="21.57"/>
<text text-anchor="middle" x="339.38" y="-260.72" font-family="Helvetica,sans-Serif" font-size="10.00" fill="#ffffff">chezmoi_mousse.</text>
<text text-anchor="middle" x="339.38" y="-249.47" font-family="Helvetica,sans-Serif" font-size="10.00" fill="#ffffff">components</text>
</g>
<!-- chezmoi_mousse_chezmoi&#45;&gt;chezmoi_mousse_components -->
<g id="edge1" class="edge">
<title>chezmoi_mousse_chezmoi&#45;&gt;chezmoi_mousse_components</title><style>.edge>path:hover{stroke-width:8}</style>
<path fill="none" stroke="silver" d="M487.05,-320.55C458.67,-308.91 420.49,-293.24 390.06,-280.76"/>
<polygon fill="#e72622" stroke="silver" points="391.62,-277.62 381.04,-277.06 388.97,-284.1 391.62,-277.62"/>
</g>
<!-- chezmoi_mousse_gui -->
<g id="node5" class="node">
<title>chezmoi_mousse_gui</title><style>.edge>path:hover{stroke-width:8}</style>
<ellipse fill="#732726" stroke="silver" cx="94.38" cy="-100.7" rx="66.47" ry="21.57"/>
<text text-anchor="middle" x="94.38" y="-102.45" font-family="Helvetica,sans-Serif" font-size="10.00" fill="#ffffff">chezmoi_mousse.</text>
<text text-anchor="middle" x="94.38" y="-91.2" font-family="Helvetica,sans-Serif" font-size="10.00" fill="#ffffff">gui</text>
</g>
<!-- chezmoi_mousse_chezmoi&#45;&gt;chezmoi_mousse_gui -->
<g id="edge2" class="edge">
<title>chezmoi_mousse_chezmoi&#45;&gt;chezmoi_mousse_gui</title><style>.edge>path:hover{stroke-width:8}</style>
<path fill="none" stroke="silver" d="M433.38,-257.97C404.49,-239.52 461.04,-201.09 433.38,-180.83"/>
<path fill="none" stroke="silver" d="M433.38,-178.83C356.61,-122.61 245.82,-106.38 172.04,-102.21"/>
<polygon fill="#e72622" stroke="silver" points="172.65,-98.74 162.49,-101.74 172.3,-105.73 172.65,-98.74"/>
</g>
<!-- chezmoi_mousse_main_tabs -->
<g id="node6" class="node">
<title>chezmoi_mousse_main_tabs</title><style>.edge>path:hover{stroke-width:8}</style>
<ellipse fill="#732726" stroke="silver" cx="94.38" cy="-179.83" rx="66.47" ry="21.57"/>
<text text-anchor="middle" x="94.38" y="-181.58" font-family="Helvetica,sans-Serif" font-size="10.00" fill="#ffffff">chezmoi_mousse.</text>
<text text-anchor="middle" x="94.38" y="-170.33" font-family="Helvetica,sans-Serif" font-size="10.00" fill="#ffffff">main_tabs</text>
</g>
<!-- chezmoi_mousse_chezmoi&#45;&gt;chezmoi_mousse_main_tabs -->
<g id="edge3" class="edge">
<title>chezmoi_mousse_chezmoi&#45;&gt;chezmoi_mousse_main_tabs</title><style>.edge>path:hover{stroke-width:8}</style>
<path fill="none" stroke="silver" d="M499.73,-318.06C485.15,-307.58 467.25,-293.99 452.38,-280.53 443.15,-272.18 443.87,-266.66 433.38,-259.97"/>
<path fill="none" stroke="silver" d="M433.38,-257.97C422.89,-251.27 425.3,-243.37 414.38,-237.4 339.14,-196.3 240.47,-184.06 172.7,-180.9"/>
<polygon fill="#e72622" stroke="silver" points="172.9,-177.41 162.77,-180.5 172.62,-184.4 172.9,-177.41"/>
</g>
<!-- chezmoi_mousse_splash -->
<g id="node8" class="node">
<title>chezmoi_mousse_splash</title><style>.edge>path:hover{stroke-width:8}</style>
<ellipse fill="#732726" stroke="silver" cx="527.38" cy="-258.97" rx="66.47" ry="21.57"/>
<text text-anchor="middle" x="527.38" y="-260.72" font-family="Helvetica,sans-Serif" font-size="10.00" fill="#ffffff">chezmoi_mousse.</text>
<text text-anchor="middle" x="527.38" y="-249.47" font-family="Helvetica,sans-Serif" font-size="10.00" fill="#ffffff">splash</text>
</g>
<!-- chezmoi_mousse_chezmoi&#45;&gt;chezmoi_mousse_splash -->
<g id="edge4" class="edge">
<title>chezmoi_mousse_chezmoi&#45;&gt;chezmoi_mousse_splash</title><style>.edge>path:hover{stroke-width:8}</style>
<path fill="none" stroke="silver" d="M527.38,-316.43C527.38,-309.05 527.38,-300.56 527.38,-292.43"/>
<polygon fill="#e72622" stroke="silver" points="530.88,-292.48 527.38,-282.48 523.88,-292.48 530.88,-292.48"/>
</g>
<!-- chezmoi_mousse_components&#45;&gt;chezmoi_mousse_main_tabs -->
<g id="edge5" class="edge">
<title>chezmoi_mousse_components&#45;&gt;chezmoi_mousse_main_tabs</title><style>.edge>path:hover{stroke-width:8}</style>
<path fill="none" stroke="silver" d="M292.72,-243.28C252.62,-230.65 194.63,-212.4 151.71,-198.88"/>
<polygon fill="#732726" stroke="silver" points="152.9,-195.59 142.31,-195.92 150.8,-202.26 152.9,-195.59"/>
</g>
<!-- chezmoi_mousse_config -->
<g id="node4" class="node">
<title>chezmoi_mousse_config</title><style>.edge>path:hover{stroke-width:8}</style>
<ellipse fill="#ce3d3b" stroke="silver" cx="188.38" cy="-338.1" rx="66.47" ry="21.57"/>
<text text-anchor="middle" x="188.38" y="-339.85" font-family="Helvetica,sans-Serif" font-size="10.00" fill="#ffffff">chezmoi_mousse.</text>
<text text-anchor="middle" x="188.38" y="-328.6" font-family="Helvetica,sans-Serif" font-size="10.00" fill="#ffffff">config</text>
</g>
<!-- chezmoi_mousse_config&#45;&gt;chezmoi_mousse_components -->
<g id="edge6" class="edge">
<title>chezmoi_mousse_config&#45;&gt;chezmoi_mousse_components</title><style>.edge>path:hover{stroke-width:8}</style>
<path fill="none" stroke="silver" d="M223.02,-319.4C244.24,-308.57 271.62,-294.58 294.49,-282.9"/>
<polygon fill="#ce3d3b" stroke="silver" points="295.98,-286.07 303.29,-278.4 292.79,-279.84 295.98,-286.07"/>
</g>
<!-- chezmoi_mousse_config&#45;&gt;chezmoi_mousse_main_tabs -->
<g id="edge7" class="edge">
<title>chezmoi_mousse_config&#45;&gt;chezmoi_mousse_main_tabs</title><style>.edge>path:hover{stroke-width:8}</style>
<path fill="none" stroke="silver" d="M205.94,-316.97C218.73,-299.82 231.42,-275.54 216.38,-259.97"/>
<path fill="none" stroke="silver" d="M216.38,-257.97C194.9,-235.73 165.79,-217.01 141.39,-203.58"/>
<polygon fill="#ce3d3b" stroke="silver" points="143.06,-200.51 132.59,-198.87 139.76,-206.68 143.06,-200.51"/>
</g>
<!-- chezmoi_mousse_gui&#45;&gt;chezmoi_mousse___main__ -->
<g id="edge8" class="edge">
<title>chezmoi_mousse_gui&#45;&gt;chezmoi_mousse___main__</title><style>.edge>path:hover{stroke-width:8}</style>
<path fill="none" stroke="silver" d="M94.38,-79.03C94.38,-71.65 94.38,-63.16 94.38,-55.03"/>
<polygon fill="#732726" stroke="silver" points="97.88,-55.08 94.38,-45.08 90.88,-55.08 97.88,-55.08"/>
</g>
<!-- chezmoi_mousse_main_tabs&#45;&gt;chezmoi_mousse_gui -->
<g id="edge9" class="edge">
<title>chezmoi_mousse_main_tabs&#45;&gt;chezmoi_mousse_gui</title><style>.edge>path:hover{stroke-width:8}</style>
<path fill="none" stroke="silver" d="M94.38,-158.16C94.38,-150.79 94.38,-142.29 94.38,-134.16"/>
<polygon fill="#732726" stroke="silver" points="97.88,-134.21 94.38,-124.21 90.88,-134.21 97.88,-134.21"/>
</g>
<!-- chezmoi_mousse_mouse_types -->
<g id="node7" class="node">
<title>chezmoi_mousse_mouse_types</title><style>.edge>path:hover{stroke-width:8}</style>
<ellipse fill="#ce3d3b" stroke="silver" cx="339.38" cy="-338.1" rx="66.47" ry="21.57"/>
<text text-anchor="middle" x="339.38" y="-339.85" font-family="Helvetica,sans-Serif" font-size="10.00" fill="#ffffff">chezmoi_mousse.</text>
<text text-anchor="middle" x="339.38" y="-328.6" font-family="Helvetica,sans-Serif" font-size="10.00" fill="#ffffff">mouse_types</text>
</g>
<!-- chezmoi_mousse_mouse_types&#45;&gt;chezmoi_mousse_components -->
<g id="edge10" class="edge">
<title>chezmoi_mousse_mouse_types&#45;&gt;chezmoi_mousse_components</title><style>.edge>path:hover{stroke-width:8}</style>
<path fill="none" stroke="silver" d="M339.38,-316.43C339.38,-309.05 339.38,-300.56 339.38,-292.43"/>
<polygon fill="#ce3d3b" stroke="silver" points="342.88,-292.48 339.38,-282.48 335.88,-292.48 342.88,-292.48"/>
</g>
<!-- chezmoi_mousse_mouse_types&#45;&gt;chezmoi_mousse_main_tabs -->
<g id="edge11" class="edge">
<title>chezmoi_mousse_mouse_types&#45;&gt;chezmoi_mousse_main_tabs</title><style>.edge>path:hover{stroke-width:8}</style>
<path fill="none" stroke="silver" d="M302.16,-319.87C275.87,-306.33 241.07,-285.53 216.38,-259.97"/>
</g>
<!-- chezmoi_mousse_splash&#45;&gt;chezmoi_mousse_gui -->
<g id="edge12" class="edge">
<title>chezmoi_mousse_splash&#45;&gt;chezmoi_mousse_gui</title><style>.edge>path:hover{stroke-width:8}</style>
<path fill="none" stroke="silver" d="M504.76,-238.22C486.07,-222.19 458.59,-199.29 433.38,-180.83"/>
</g>
<!-- rich -->
<g id="node9" class="node">
<title>rich</title><style>.edge>path:hover{stroke-width:8}</style>
<polygon fill="#06f90a" stroke="silver" points="460.38,-577.67 457.38,-581.67 436.38,-581.67 433.38,-577.67 406.38,-577.67 406.38,-541.67 460.38,-541.67 460.38,-577.67"/>
<text text-anchor="middle" x="433.38" y="-555.79" font-family="Helvetica,sans-Serif" font-size="10.00" fill="#000000">rich</text>
</g>
<!-- rich&#45;&gt;chezmoi_mousse_components -->
<g id="edge13" class="edge">
<title>rich&#45;&gt;chezmoi_mousse_components</title><style>.edge>path:hover{stroke-width:8}</style>
<path fill="none" stroke="silver" d="M433.38,-504.67C422.51,-457.73 617.42,-444.69 621.38,-396.67"/>
<path fill="none" stroke="silver" d="M621.38,-395.67C623.28,-318.89 519.12,-397.65 452.38,-359.67 441.56,-353.51 443.46,-346.4 433.38,-339.1"/>
</g>
<!-- rich&#45;&gt;chezmoi_mousse_gui -->
<g id="edge14" class="edge">
<title>rich&#45;&gt;chezmoi_mousse_gui</title><style>.edge>path:hover{stroke-width:8}</style>
<path fill="none" stroke="silver" d="M434.56,-541.4C434.98,-531 435.01,-517.52 433.38,-505.67"/>
<path fill="none" stroke="silver" d="M433.38,-504.67C427.76,-463.78 119.63,-389.76 91.38,-359.67 59.24,-325.42 59.04,-306.85 56.38,-259.97"/>
<path fill="none" stroke="silver" d="M56.38,-257.97C48.49,-216.35 -2,-223.13 0.38,-180.83"/>
<path fill="none" stroke="silver" d="M0.38,-178.83C1.77,-154.18 21.51,-135.95 42.55,-123.42"/>
<polygon fill="#06f90a" stroke="silver" points="44.18,-126.52 51.25,-118.63 40.8,-120.39 44.18,-126.52"/>
</g>
<!-- rich&#45;&gt;chezmoi_mousse_main_tabs -->
<g id="edge15" class="edge">
<title>rich&#45;&gt;chezmoi_mousse_main_tabs</title><style>.edge>path:hover{stroke-width:8}</style>
<path fill="none" stroke="silver" d="M56.38,-257.97C55.43,-241.18 62.67,-224.23 71.08,-210.51"/>
<polygon fill="#06f90a" stroke="silver" points="73.85,-212.67 76.48,-202.4 68.02,-208.79 73.85,-212.67"/>
</g>
<!-- rich&#45;&gt;chezmoi_mousse_splash -->
<g id="edge16" class="edge">
<title>rich&#45;&gt;chezmoi_mousse_splash</title><style>.edge>path:hover{stroke-width:8}</style>
<path fill="none" stroke="silver" d="M621.38,-395.67C622,-370.53 619.54,-364.17 621.38,-339.1"/>
</g>
<!-- textual -->
<g id="node10" class="node">
<title>textual</title><style>.edge>path:hover{stroke-width:8}</style>
<polygon fill="#0a06ef" stroke="silver" points="460.38,-468.67 457.38,-472.67 436.38,-472.67 433.38,-468.67 406.38,-468.67 406.38,-432.67 460.38,-432.67 460.38,-468.67"/>
<text text-anchor="middle" x="433.38" y="-446.79" font-family="Helvetica,sans-Serif" font-size="10.00" fill="#ffffff">textual</text>
</g>
<!-- rich&#45;&gt;textual -->
<g id="edge17" class="edge">
<title>rich&#45;&gt;textual</title><style>.edge>path:hover{stroke-width:8}</style>
<path fill="none" stroke="silver" d="M433.38,-504.67C431.59,-496.93 431,-488.38 431.02,-480.45"/>
<polygon fill="#06f90a" stroke="silver" points="434.51,-480.71 431.37,-470.59 427.52,-480.46 434.51,-480.71"/>
</g>
<!-- textual&#45;&gt;chezmoi_mousse_components -->
<g id="edge18" class="edge">
<title>textual&#45;&gt;chezmoi_mousse_components</title><style>.edge>path:hover{stroke-width:8}</style>
<path fill="none" stroke="silver" d="M433.38,-395.67C424.59,-372.11 453.75,-353.84 433.38,-339.1"/>
<path fill="none" stroke="silver" d="M433.38,-337.1C423.3,-329.8 423.61,-324.88 414.38,-316.53 402.53,-305.81 388.76,-295 376.27,-285.75"/>
<polygon fill="#0a06ef" stroke="silver" points="378.4,-282.97 368.25,-279.9 374.27,-288.62 378.4,-282.97"/>
</g>
<!-- textual&#45;&gt;chezmoi_mousse_gui -->
<g id="edge19" class="edge">
<title>textual&#45;&gt;chezmoi_mousse_gui</title><style>.edge>path:hover{stroke-width:8}</style>
<path fill="none" stroke="silver" d="M436.37,-432.42C437.49,-421.78 437.63,-408.05 433.38,-396.67"/>
<path fill="none" stroke="silver" d="M433.38,-395.67C408.37,-328.62 165.87,-408.3 113.38,-359.67 80.29,-329.01 106.32,-303.47 94.38,-259.97"/>
<path fill="none" stroke="silver" d="M94.38,-257.97C76.76,-206.88 -2.66,-234.79 0.38,-180.83"/>
</g>
<!-- textual&#45;&gt;chezmoi_mousse_main_tabs -->
<g id="edge20" class="edge">
<title>textual&#45;&gt;chezmoi_mousse_main_tabs</title><style>.edge>path:hover{stroke-width:8}</style>
<path fill="none" stroke="silver" d="M94.38,-257.97C90.42,-243.54 89.91,-227.02 90.6,-212.97"/>
<polygon fill="#0a06ef" stroke="silver" points="94.07,-213.6 91.31,-203.37 87.09,-213.09 94.07,-213.6"/>
</g>
<!-- textual&#45;&gt;chezmoi_mousse_splash -->
<g id="edge21" class="edge">
<title>textual&#45;&gt;chezmoi_mousse_splash</title><style>.edge>path:hover{stroke-width:8}</style>
<path fill="none" stroke="silver" d="M433.38,-395.67C402.88,-313.92 615,-426.12 621.38,-339.1"/>
<path fill="none" stroke="silver" d="M621.38,-337.1C623.23,-311.88 602.77,-293.38 580.47,-280.82"/>
<polygon fill="#0a06ef" stroke="silver" points="582.35,-277.86 571.86,-276.34 579.12,-284.06 582.35,-277.86"/>
</g>
</g>
</svg>
