<?xml version="1.0" encoding="UTF-8" standalone="no"?>
<!DOCTYPE svg PUBLIC "-//W3C//DTD SVG 1.1//EN"
 "http://www.w3.org/Graphics/SVG/1.1/DTD/svg11.dtd">
<!-- Generated by graphviz version 12.2.1 (0)
 -->
<!-- Title: G Pages: 1 -->
<svg width="602pt" height="586pt"
 viewBox="0.00 0.00 601.94 585.67" xmlns="http://www.w3.org/2000/svg" xmlns:xlink="http://www.w3.org/1999/xlink">
<g id="graph0" class="graph" transform="scale(1 1) rotate(0) translate(4 581.67)">
<title>G</title><style>.edge>path:hover{stroke-width:8}</style>
<polygon fill="black" stroke="none" points="-4,4 -4,-581.67 597.94,-581.67 597.94,4 -4,4"/>
<!-- chezmoi_mousse___main__ -->
<g id="node1" class="node">
<title>chezmoi_mousse___main__</title><style>.edge>path:hover{stroke-width:8}</style>
<ellipse fill="#793534" stroke="silver" cx="66.47" cy="-21.57" rx="66.47" ry="21.57"/>
<text text-anchor="middle" x="66.47" y="-23.32" font-family="Helvetica,sans-Serif" font-size="10.00" fill="#ffffff">chezmoi_mousse.</text>
<text text-anchor="middle" x="66.47" y="-12.07" font-family="Helvetica,sans-Serif" font-size="10.00" fill="#ffffff">__main__</text>
</g>
<!-- chezmoi_mousse_chezmoi -->
<g id="node2" class="node">
<title>chezmoi_mousse_chezmoi</title><style>.edge>path:hover{stroke-width:8}</style>
<ellipse fill="#db312f" stroke="silver" cx="489.47" cy="-338.1" rx="66.47" ry="21.57"/>
<text text-anchor="middle" x="489.47" y="-339.85" font-family="Helvetica,sans-Serif" font-size="10.00" fill="#ffffff">chezmoi_mousse.</text>
<text text-anchor="middle" x="489.47" y="-328.6" font-family="Helvetica,sans-Serif" font-size="10.00" fill="#ffffff">chezmoi</text>
</g>
<!-- chezmoi_mousse_components -->
<g id="node3" class="node">
<title>chezmoi_mousse_components</title><style>.edge>path:hover{stroke-width:8}</style>
<ellipse fill="#7a201e" stroke="silver" cx="339.47" cy="-258.97" rx="66.47" ry="21.57"/>
<text text-anchor="middle" x="339.47" y="-260.72" font-family="Helvetica,sans-Serif" font-size="10.00" fill="#ffffff">chezmoi_mousse.</text>
<text text-anchor="middle" x="339.47" y="-249.47" font-family="Helvetica,sans-Serif" font-size="10.00" fill="#ffffff">components</text>
</g>
<!-- chezmoi_mousse_chezmoi&#45;&gt;chezmoi_mousse_components -->
<g id="edge1" class="edge">
<title>chezmoi_mousse_chezmoi&#45;&gt;chezmoi_mousse_components</title><style>.edge>path:hover{stroke-width:8}</style>
<path fill="none" stroke="silver" d="M455.06,-319.4C433.98,-308.57 406.78,-294.58 384.06,-282.9"/>
<polygon fill="#db312f" stroke="silver" points="385.82,-279.87 375.33,-278.41 382.62,-286.09 385.82,-279.87"/>
</g>
<!-- chezmoi_mousse_main_tabs -->
<g id="node6" class="node">
<title>chezmoi_mousse_main_tabs</title><style>.edge>path:hover{stroke-width:8}</style>
<ellipse fill="#732726" stroke="silver" cx="207.47" cy="-179.83" rx="66.47" ry="21.57"/>
<text text-anchor="middle" x="207.47" y="-181.58" font-family="Helvetica,sans-Serif" font-size="10.00" fill="#ffffff">chezmoi_mousse.</text>
<text text-anchor="middle" x="207.47" y="-170.33" font-family="Helvetica,sans-Serif" font-size="10.00" fill="#ffffff">main_tabs</text>
</g>
<!-- chezmoi_mousse_chezmoi&#45;&gt;chezmoi_mousse_main_tabs -->
<g id="edge2" class="edge">
<title>chezmoi_mousse_chezmoi&#45;&gt;chezmoi_mousse_main_tabs</title><style>.edge>path:hover{stroke-width:8}</style>
<path fill="none" stroke="silver" d="M476.4,-316.67C459.44,-290.73 430.15,-248.04 414.47,-237.4 375.08,-210.67 323.44,-196.53 281.59,-189.07"/>
<polygon fill="#db312f" stroke="silver" points="282.27,-185.64 271.83,-187.43 281.12,-192.54 282.27,-185.64"/>
</g>
<!-- chezmoi_mousse_splash -->
<g id="node7" class="node">
<title>chezmoi_mousse_splash</title><style>.edge>path:hover{stroke-width:8}</style>
<ellipse fill="#732726" stroke="silver" cx="527.47" cy="-258.97" rx="66.47" ry="21.57"/>
<text text-anchor="middle" x="527.47" y="-260.72" font-family="Helvetica,sans-Serif" font-size="10.00" fill="#ffffff">chezmoi_mousse.</text>
<text text-anchor="middle" x="527.47" y="-249.47" font-family="Helvetica,sans-Serif" font-size="10.00" fill="#ffffff">splash</text>
</g>
<!-- chezmoi_mousse_chezmoi&#45;&gt;chezmoi_mousse_splash -->
<g id="edge3" class="edge">
<title>chezmoi_mousse_chezmoi&#45;&gt;chezmoi_mousse_splash</title><style>.edge>path:hover{stroke-width:8}</style>
<path fill="none" stroke="silver" d="M499.65,-316.43C503.53,-308.56 508.03,-299.42 512.27,-290.81"/>
<polygon fill="#db312f" stroke="silver" points="515.31,-292.57 516.59,-282.05 509.03,-289.48 515.31,-292.57"/>
</g>
<!-- chezmoi_mousse_gui -->
<g id="node5" class="node">
<title>chezmoi_mousse_gui</title><style>.edge>path:hover{stroke-width:8}</style>
<ellipse fill="#732726" stroke="silver" cx="113.47" cy="-100.7" rx="66.47" ry="21.57"/>
<text text-anchor="middle" x="113.47" y="-102.45" font-family="Helvetica,sans-Serif" font-size="10.00" fill="#ffffff">chezmoi_mousse.</text>
<text text-anchor="middle" x="113.47" y="-91.2" font-family="Helvetica,sans-Serif" font-size="10.00" fill="#ffffff">gui</text>
</g>
<!-- chezmoi_mousse_components&#45;&gt;chezmoi_mousse_gui -->
<g id="edge4" class="edge">
<title>chezmoi_mousse_components&#45;&gt;chezmoi_mousse_gui</title><style>.edge>path:hover{stroke-width:8}</style>
<path fill="none" stroke="silver" d="M383.53,-242.49C416.64,-228.41 453.18,-206.02 433.47,-180.83"/>
<path fill="none" stroke="silver" d="M433.47,-178.83C403.62,-140.71 273.07,-119.26 188.22,-109.11"/>
<polygon fill="#7a201e" stroke="silver" points="188.66,-105.64 178.32,-107.96 187.85,-112.59 188.66,-105.64"/>
</g>
<!-- chezmoi_mousse_components&#45;&gt;chezmoi_mousse_main_tabs -->
<g id="edge5" class="edge">
<title>chezmoi_mousse_components&#45;&gt;chezmoi_mousse_main_tabs</title><style>.edge>path:hover{stroke-width:8}</style>
<path fill="none" stroke="silver" d="M308.19,-239.69C290.4,-229.29 267.9,-216.15 248.69,-204.92"/>
<polygon fill="#7a201e" stroke="silver" points="250.69,-202.04 240.29,-200.01 247.16,-208.08 250.69,-202.04"/>
</g>
<!-- chezmoi_mousse_config -->
<g id="node4" class="node">
<title>chezmoi_mousse_config</title><style>.edge>path:hover{stroke-width:8}</style>
<ellipse fill="#ce3d3b" stroke="silver" cx="301.47" cy="-338.1" rx="66.47" ry="21.57"/>
<text text-anchor="middle" x="301.47" y="-339.85" font-family="Helvetica,sans-Serif" font-size="10.00" fill="#ffffff">chezmoi_mousse.</text>
<text text-anchor="middle" x="301.47" y="-328.6" font-family="Helvetica,sans-Serif" font-size="10.00" fill="#ffffff">config</text>
</g>
<!-- chezmoi_mousse_config&#45;&gt;chezmoi_mousse_components -->
<g id="edge6" class="edge">
<title>chezmoi_mousse_config&#45;&gt;chezmoi_mousse_components</title><style>.edge>path:hover{stroke-width:8}</style>
<path fill="none" stroke="silver" d="M311.65,-316.43C315.53,-308.56 320.03,-299.42 324.27,-290.81"/>
<polygon fill="#ce3d3b" stroke="silver" points="327.31,-292.57 328.59,-282.05 321.03,-289.48 327.31,-292.57"/>
</g>
<!-- chezmoi_mousse_config&#45;&gt;chezmoi_mousse_main_tabs -->
<g id="edge7" class="edge">
<title>chezmoi_mousse_config&#45;&gt;chezmoi_mousse_main_tabs</title><style>.edge>path:hover{stroke-width:8}</style>
<path fill="none" stroke="silver" d="M287.64,-316.6C280.55,-305.94 271.88,-292.64 264.47,-280.53 250.44,-257.62 235.38,-231.19 224.27,-211.31"/>
<polygon fill="#ce3d3b" stroke="silver" points="227.35,-209.64 219.42,-202.61 221.23,-213.05 227.35,-209.64"/>
</g>
<!-- chezmoi_mousse_gui&#45;&gt;chezmoi_mousse___main__ -->
<g id="edge8" class="edge">
<title>chezmoi_mousse_gui&#45;&gt;chezmoi_mousse___main__</title><style>.edge>path:hover{stroke-width:8}</style>
<path fill="none" stroke="silver" d="M100.87,-79.03C95.93,-70.92 90.17,-61.46 84.79,-52.63"/>
<polygon fill="#732726" stroke="silver" points="87.91,-51.04 79.72,-44.32 81.94,-54.68 87.91,-51.04"/>
</g>
<!-- chezmoi_mousse_main_tabs&#45;&gt;chezmoi_mousse_gui -->
<g id="edge9" class="edge">
<title>chezmoi_mousse_main_tabs&#45;&gt;chezmoi_mousse_gui</title><style>.edge>path:hover{stroke-width:8}</style>
<path fill="none" stroke="silver" d="M183.75,-159.37C172.28,-149.96 158.34,-138.52 145.91,-128.32"/>
<polygon fill="#732726" stroke="silver" points="148.3,-125.76 138.35,-122.12 143.86,-131.17 148.3,-125.76"/>
</g>
<!-- chezmoi_mousse_splash&#45;&gt;chezmoi_mousse_gui -->
<g id="edge10" class="edge">
<title>chezmoi_mousse_splash&#45;&gt;chezmoi_mousse_gui</title><style>.edge>path:hover{stroke-width:8}</style>
<path fill="none" stroke="silver" d="M498.28,-239.14C478.09,-224.99 451.69,-204.11 433.47,-180.83"/>
</g>
<!-- rich -->
<g id="node8" class="node">
<title>rich</title><style>.edge>path:hover{stroke-width:8}</style>
<polygon fill="#06f90a" stroke="silver" points="405.47,-577.67 402.47,-581.67 381.47,-581.67 378.47,-577.67 351.47,-577.67 351.47,-541.67 405.47,-541.67 405.47,-577.67"/>
<text text-anchor="middle" x="378.47" y="-555.79" font-family="Helvetica,sans-Serif" font-size="10.00" fill="#000000">rich</text>
</g>
<!-- rich&#45;&gt;chezmoi_mousse___main__ -->
<g id="edge11" class="edge">
<title>rich&#45;&gt;chezmoi_mousse___main__</title><style>.edge>path:hover{stroke-width:8}</style>
<path fill="none" stroke="silver" d="M378.52,-541.48C378.54,-531.11 378.54,-517.63 378.47,-505.67"/>
<path fill="none" stroke="silver" d="M378.47,-504.67C378.39,-492.13 212.65,-369.95 205.47,-359.67 178.48,-321.05 180.85,-305.68 169.47,-259.97"/>
<path fill="none" stroke="silver" d="M169.47,-257.97C154.06,-221.05 127.7,-229.73 99.47,-201.4 59.36,-161.16 22.9,-158.41 19.47,-101.7"/>
<path fill="none" stroke="silver" d="M19.47,-99.7C17.53,-81.8 26.79,-64.43 37.59,-50.73"/>
<polygon fill="#06f90a" stroke="silver" points="39.99,-53.31 43.82,-43.43 34.66,-48.76 39.99,-53.31"/>
</g>
<!-- rich&#45;&gt;chezmoi_mousse_components -->
<g id="edge12" class="edge">
<title>rich&#45;&gt;chezmoi_mousse_components</title><style>.edge>path:hover{stroke-width:8}</style>
<path fill="none" stroke="silver" d="M378.47,-504.67C378.26,-470.72 425.82,-484.74 433.47,-451.67"/>
<path fill="none" stroke="silver" d="M433.47,-449.67C439.32,-424.35 399.35,-364.79 395.47,-339.1"/>
</g>
<!-- rich&#45;&gt;chezmoi_mousse_main_tabs -->
<g id="edge13" class="edge">
<title>rich&#45;&gt;chezmoi_mousse_main_tabs</title><style>.edge>path:hover{stroke-width:8}</style>
<path fill="none" stroke="silver" d="M169.47,-257.97C165.31,-241.25 172.62,-223.94 181.9,-209.96"/>
<polygon fill="#06f90a" stroke="silver" points="184.58,-212.23 187.64,-202.08 178.92,-208.11 184.58,-212.23"/>
</g>
<!-- rich&#45;&gt;chezmoi_mousse_splash -->
<g id="edge14" class="edge">
<title>rich&#45;&gt;chezmoi_mousse_splash</title><style>.edge>path:hover{stroke-width:8}</style>
<path fill="none" stroke="silver" d="M433.47,-449.67C441.05,-427.37 416.32,-412.82 433.47,-396.67"/>
</g>
<!-- textual -->
<g id="node9" class="node">
<title>textual</title><style>.edge>path:hover{stroke-width:8}</style>
<polygon fill="#0905e5" stroke="silver" points="405.47,-468.67 402.47,-472.67 381.47,-472.67 378.47,-468.67 351.47,-468.67 351.47,-432.67 405.47,-432.67 405.47,-468.67"/>
<text text-anchor="middle" x="378.47" y="-446.79" font-family="Helvetica,sans-Serif" font-size="10.00" fill="#ffffff">textual</text>
</g>
<!-- rich&#45;&gt;textual -->
<g id="edge15" class="edge">
<title>rich&#45;&gt;textual</title><style>.edge>path:hover{stroke-width:8}</style>
<path fill="none" stroke="silver" d="M378.47,-504.67C378.42,-496.72 378.4,-488.11 378.4,-480.18"/>
<polygon fill="#06f90a" stroke="silver" points="381.9,-480.37 378.41,-470.37 374.9,-480.36 381.9,-480.37"/>
</g>
<!-- textual&#45;&gt;chezmoi_mousse___main__ -->
<g id="edge16" class="edge">
<title>textual&#45;&gt;chezmoi_mousse___main__</title><style>.edge>path:hover{stroke-width:8}</style>
<path fill="none" stroke="silver" d="M373.56,-432.65C370.02,-421.85 364.6,-407.85 357.47,-396.67"/>
<path fill="none" stroke="silver" d="M357.47,-395.67C325.01,-344.75 267.42,-404.03 226.47,-359.67 195.87,-326.52 219.41,-303.47 207.47,-259.97"/>
<path fill="none" stroke="silver" d="M207.47,-257.97C202.85,-244.7 194.55,-246.03 183.47,-237.4 161.58,-220.35 153.33,-219.69 132.47,-201.4 123.11,-193.2 121.52,-190.32 113.47,-180.83"/>
<path fill="none" stroke="silver" d="M113.47,-178.83C78.51,-137.62 22.73,-155.64 19.47,-101.7"/>
</g>
<!-- textual&#45;&gt;chezmoi_mousse_components -->
<g id="edge17" class="edge">
<title>textual&#45;&gt;chezmoi_mousse_components</title><style>.edge>path:hover{stroke-width:8}</style>
<path fill="none" stroke="silver" d="M357.47,-395.67C341.19,-370.13 399.99,-369.05 395.47,-339.1"/>
<path fill="none" stroke="silver" d="M395.47,-337.1C392.67,-318.58 381.4,-301.35 369.69,-287.9"/>
<polygon fill="#0905e5" stroke="silver" points="372.42,-285.69 363.05,-280.74 367.28,-290.45 372.42,-285.69"/>
</g>
<!-- textual&#45;&gt;chezmoi_mousse_gui -->
<g id="edge18" class="edge">
<title>textual&#45;&gt;chezmoi_mousse_gui</title><style>.edge>path:hover{stroke-width:8}</style>
<path fill="none" stroke="silver" d="M113.47,-178.83C103.11,-166.63 102.43,-149 104.64,-133.68"/>
<polygon fill="#0905e5" stroke="silver" points="108.05,-134.51 106.5,-124.03 101.17,-133.19 108.05,-134.51"/>
</g>
<!-- textual&#45;&gt;chezmoi_mousse_main_tabs -->
<g id="edge19" class="edge">
<title>textual&#45;&gt;chezmoi_mousse_main_tabs</title><style>.edge>path:hover{stroke-width:8}</style>
<path fill="none" stroke="silver" d="M207.47,-257.97C203.51,-243.54 203,-227.02 203.69,-212.97"/>
<polygon fill="#0905e5" stroke="silver" points="207.16,-213.6 204.39,-203.37 200.18,-213.09 207.16,-213.6"/>
</g>
<!-- textual&#45;&gt;chezmoi_mousse_splash -->
<g id="edge20" class="edge">
<title>textual&#45;&gt;chezmoi_mousse_splash</title><style>.edge>path:hover{stroke-width:8}</style>
<path fill="none" stroke="silver" d="M396.04,-432.2C406.71,-421.73 420.7,-408.25 433.47,-396.67"/>
<path fill="none" stroke="silver" d="M433.47,-395.67C478.2,-355.11 527.86,-407.69 564.47,-359.67 580.39,-338.79 567.2,-310.33 552.33,-289.17"/>
<polygon fill="#0905e5" stroke="silver" points="555.18,-287.13 546.39,-281.22 549.57,-291.33 555.18,-287.13"/>
</g>
</g>
</svg>
