<?xml version="1.0" encoding="UTF-8" standalone="no"?>
<!DOCTYPE svg PUBLIC "-//W3C//DTD SVG 1.1//EN"
 "http://www.w3.org/Graphics/SVG/1.1/DTD/svg11.dtd">
<!-- Generated by graphviz version 12.2.1 (0)
 -->
<!-- Title: G Pages: 1 -->
<svg width="736pt" height="586pt"
 viewBox="0.00 0.00 735.79 585.67" xmlns="http://www.w3.org/2000/svg" xmlns:xlink="http://www.w3.org/1999/xlink">
<g id="graph0" class="graph" transform="scale(1 1) rotate(0) translate(4 581.67)">
<title>G</title><style>.edge>path:hover{stroke-width:8}</style>
<polygon fill="black" stroke="none" points="-4,4 -4,-581.67 731.79,-581.67 731.79,4 -4,4"/>
<!-- chezmoi_mousse___main__ -->
<g id="node1" class="node">
<title>chezmoi_mousse___main__</title><style>.edge>path:hover{stroke-width:8}</style>
<ellipse fill="#ac4b49" stroke="silver" cx="436.11" cy="-21.57" rx="66.47" ry="21.57"/>
<text text-anchor="middle" x="436.11" y="-23.32" font-family="Helvetica,sans-Serif" font-size="10.00" fill="#ffffff">chezmoi_mousse.</text>
<text text-anchor="middle" x="436.11" y="-12.07" font-family="Helvetica,sans-Serif" font-size="10.00" fill="#ffffff">__main__</text>
</g>
<!-- chezmoi_mousse_chezmoi -->
<g id="node2" class="node">
<title>chezmoi_mousse_chezmoi</title><style>.edge>path:hover{stroke-width:8}</style>
<ellipse fill="#e72622" stroke="silver" cx="586.11" cy="-338.1" rx="66.47" ry="21.57"/>
<text text-anchor="middle" x="586.11" y="-339.85" font-family="Helvetica,sans-Serif" font-size="10.00" fill="#ffffff">chezmoi_mousse.</text>
<text text-anchor="middle" x="586.11" y="-328.6" font-family="Helvetica,sans-Serif" font-size="10.00" fill="#ffffff">chezmoi</text>
</g>
<!-- chezmoi_mousse_components -->
<g id="node3" class="node">
<title>chezmoi_mousse_components</title><style>.edge>path:hover{stroke-width:8}</style>
<ellipse fill="#732726" stroke="silver" cx="365.11" cy="-258.97" rx="66.47" ry="21.57"/>
<text text-anchor="middle" x="365.11" y="-260.72" font-family="Helvetica,sans-Serif" font-size="10.00" fill="#ffffff">chezmoi_mousse.</text>
<text text-anchor="middle" x="365.11" y="-249.47" font-family="Helvetica,sans-Serif" font-size="10.00" fill="#ffffff">components</text>
</g>
<!-- chezmoi_mousse_chezmoi&#45;&gt;chezmoi_mousse_components -->
<g id="edge1" class="edge">
<title>chezmoi_mousse_chezmoi&#45;&gt;chezmoi_mousse_components</title><style>.edge>path:hover{stroke-width:8}</style>
<path fill="none" stroke="silver" d="M541.92,-321.68C506.84,-309.43 457.6,-292.25 420,-279.12"/>
<polygon fill="#e72622" stroke="silver" points="421.25,-275.85 410.65,-275.86 418.94,-282.46 421.25,-275.85"/>
</g>
<!-- chezmoi_mousse_gui -->
<g id="node5" class="node">
<title>chezmoi_mousse_gui</title><style>.edge>path:hover{stroke-width:8}</style>
<ellipse fill="#732726" stroke="silver" cx="436.11" cy="-100.7" rx="66.47" ry="21.57"/>
<text text-anchor="middle" x="436.11" y="-102.45" font-family="Helvetica,sans-Serif" font-size="10.00" fill="#ffffff">chezmoi_mousse.</text>
<text text-anchor="middle" x="436.11" y="-91.2" font-family="Helvetica,sans-Serif" font-size="10.00" fill="#ffffff">gui</text>
</g>
<!-- chezmoi_mousse_chezmoi&#45;&gt;chezmoi_mousse_gui -->
<g id="edge2" class="edge">
<title>chezmoi_mousse_chezmoi&#45;&gt;chezmoi_mousse_gui</title><style>.edge>path:hover{stroke-width:8}</style>
<path fill="none" stroke="silver" d="M530.11,-257.97C508.77,-231.14 554.03,-205.39 530.11,-180.83"/>
</g>
<!-- chezmoi_mousse_main_tabs -->
<g id="node6" class="node">
<title>chezmoi_mousse_main_tabs</title><style>.edge>path:hover{stroke-width:8}</style>
<ellipse fill="#732726" stroke="silver" cx="389.11" cy="-179.83" rx="66.47" ry="21.57"/>
<text text-anchor="middle" x="389.11" y="-181.58" font-family="Helvetica,sans-Serif" font-size="10.00" fill="#ffffff">chezmoi_mousse.</text>
<text text-anchor="middle" x="389.11" y="-170.33" font-family="Helvetica,sans-Serif" font-size="10.00" fill="#ffffff">main_tabs</text>
</g>
<!-- chezmoi_mousse_chezmoi&#45;&gt;chezmoi_mousse_main_tabs -->
<g id="edge3" class="edge">
<title>chezmoi_mousse_chezmoi&#45;&gt;chezmoi_mousse_main_tabs</title><style>.edge>path:hover{stroke-width:8}</style>
<path fill="none" stroke="silver" d="M572.08,-316.76C561.03,-301 545.04,-278.75 530.11,-259.97"/>
<path fill="none" stroke="silver" d="M530.11,-257.97C508.69,-231.03 475.17,-212.14 446.19,-199.8"/>
<polygon fill="#e72622" stroke="silver" points="447.74,-196.65 437.15,-196.12 445.1,-203.13 447.74,-196.65"/>
</g>
<!-- chezmoi_mousse_splash -->
<g id="node8" class="node">
<title>chezmoi_mousse_splash</title><style>.edge>path:hover{stroke-width:8}</style>
<ellipse fill="#732726" stroke="silver" cx="624.11" cy="-258.97" rx="66.47" ry="21.57"/>
<text text-anchor="middle" x="624.11" y="-260.72" font-family="Helvetica,sans-Serif" font-size="10.00" fill="#ffffff">chezmoi_mousse.</text>
<text text-anchor="middle" x="624.11" y="-249.47" font-family="Helvetica,sans-Serif" font-size="10.00" fill="#ffffff">splash</text>
</g>
<!-- chezmoi_mousse_chezmoi&#45;&gt;chezmoi_mousse_splash -->
<g id="edge4" class="edge">
<title>chezmoi_mousse_chezmoi&#45;&gt;chezmoi_mousse_splash</title><style>.edge>path:hover{stroke-width:8}</style>
<path fill="none" stroke="silver" d="M596.29,-316.43C600.17,-308.56 604.67,-299.42 608.92,-290.81"/>
<polygon fill="#e72622" stroke="silver" points="611.95,-292.57 613.23,-282.05 605.67,-289.48 611.95,-292.57"/>
</g>
<!-- chezmoi_mousse_components&#45;&gt;chezmoi_mousse_main_tabs -->
<g id="edge5" class="edge">
<title>chezmoi_mousse_components&#45;&gt;chezmoi_mousse_main_tabs</title><style>.edge>path:hover{stroke-width:8}</style>
<path fill="none" stroke="silver" d="M371.54,-237.3C373.91,-229.69 376.65,-220.89 379.25,-212.53"/>
<polygon fill="#732726" stroke="silver" points="382.58,-213.59 382.21,-203.01 375.9,-211.52 382.58,-213.59"/>
</g>
<!-- chezmoi_mousse_config -->
<g id="node4" class="node">
<title>chezmoi_mousse_config</title><style>.edge>path:hover{stroke-width:8}</style>
<ellipse fill="#ce3d3b" stroke="silver" cx="96.11" cy="-338.1" rx="66.47" ry="21.57"/>
<text text-anchor="middle" x="96.11" y="-339.85" font-family="Helvetica,sans-Serif" font-size="10.00" fill="#ffffff">chezmoi_mousse.</text>
<text text-anchor="middle" x="96.11" y="-328.6" font-family="Helvetica,sans-Serif" font-size="10.00" fill="#ffffff">config</text>
</g>
<!-- chezmoi_mousse_config&#45;&gt;chezmoi_mousse_components -->
<g id="edge6" class="edge">
<title>chezmoi_mousse_config&#45;&gt;chezmoi_mousse_components</title><style>.edge>path:hover{stroke-width:8}</style>
<path fill="none" stroke="silver" d="M144.82,-323.13C189.91,-310.2 257.07,-290.95 305.38,-277.09"/>
<polygon fill="#ce3d3b" stroke="silver" points="306.2,-280.5 314.85,-274.38 304.27,-273.77 306.2,-280.5"/>
</g>
<!-- chezmoi_mousse_config&#45;&gt;chezmoi_mousse_main_tabs -->
<g id="edge7" class="edge">
<title>chezmoi_mousse_config&#45;&gt;chezmoi_mousse_main_tabs</title><style>.edge>path:hover{stroke-width:8}</style>
<path fill="none" stroke="silver" d="M90.64,-316.26C87.55,-299.82 86.06,-276.89 96.11,-259.97"/>
</g>
<!-- chezmoi_mousse_gui&#45;&gt;chezmoi_mousse___main__ -->
<g id="edge8" class="edge">
<title>chezmoi_mousse_gui&#45;&gt;chezmoi_mousse___main__</title><style>.edge>path:hover{stroke-width:8}</style>
<path fill="none" stroke="silver" d="M436.11,-79.03C436.11,-71.65 436.11,-63.16 436.11,-55.03"/>
<polygon fill="#732726" stroke="silver" points="439.61,-55.08 436.11,-45.08 432.61,-55.08 439.61,-55.08"/>
</g>
<!-- chezmoi_mousse_main_tabs&#45;&gt;chezmoi_mousse_gui -->
<g id="edge9" class="edge">
<title>chezmoi_mousse_main_tabs&#45;&gt;chezmoi_mousse_gui</title><style>.edge>path:hover{stroke-width:8}</style>
<path fill="none" stroke="silver" d="M401.7,-158.16C406.64,-150.06 412.41,-140.6 417.79,-131.76"/>
<polygon fill="#732726" stroke="silver" points="420.64,-133.81 422.86,-123.45 414.66,-130.17 420.64,-133.81"/>
</g>
<!-- chezmoi_mousse_mouse_types -->
<g id="node7" class="node">
<title>chezmoi_mousse_mouse_types</title><style>.edge>path:hover{stroke-width:8}</style>
<ellipse fill="#ce3d3b" stroke="silver" cx="247.11" cy="-338.1" rx="66.47" ry="21.57"/>
<text text-anchor="middle" x="247.11" y="-339.85" font-family="Helvetica,sans-Serif" font-size="10.00" fill="#ffffff">chezmoi_mousse.</text>
<text text-anchor="middle" x="247.11" y="-328.6" font-family="Helvetica,sans-Serif" font-size="10.00" fill="#ffffff">mouse_types</text>
</g>
<!-- chezmoi_mousse_mouse_types&#45;&gt;chezmoi_mousse_components -->
<g id="edge10" class="edge">
<title>chezmoi_mousse_mouse_types&#45;&gt;chezmoi_mousse_components</title><style>.edge>path:hover{stroke-width:8}</style>
<path fill="none" stroke="silver" d="M275.98,-318.23C291.38,-308.17 310.52,-295.65 327.11,-284.8"/>
<polygon fill="#ce3d3b" stroke="silver" points="328.82,-287.87 335.27,-279.47 324.99,-282.01 328.82,-287.87"/>
</g>
<!-- chezmoi_mousse_mouse_types&#45;&gt;chezmoi_mousse_main_tabs -->
<g id="edge11" class="edge">
<title>chezmoi_mousse_mouse_types&#45;&gt;chezmoi_mousse_main_tabs</title><style>.edge>path:hover{stroke-width:8}</style>
<path fill="none" stroke="silver" d="M199.18,-322.85C150.43,-307.01 83.68,-280.91 96.11,-259.97"/>
</g>
<!-- chezmoi_mousse_splash&#45;&gt;chezmoi_mousse_gui -->
<g id="edge12" class="edge">
<title>chezmoi_mousse_splash&#45;&gt;chezmoi_mousse_gui</title><style>.edge>path:hover{stroke-width:8}</style>
<path fill="none" stroke="silver" d="M597.54,-238.89C577.87,-224.15 550.99,-202.63 530.11,-180.83"/>
</g>
<!-- chezmoi_mousse_theme -->
<g id="node9" class="node">
<title>chezmoi_mousse_theme</title><style>.edge>path:hover{stroke-width:8}</style>
<ellipse fill="#c43331" stroke="silver" cx="435.11" cy="-338.1" rx="66.47" ry="21.57"/>
<text text-anchor="middle" x="435.11" y="-339.85" font-family="Helvetica,sans-Serif" font-size="10.00" fill="#ffffff">chezmoi_mousse.</text>
<text text-anchor="middle" x="435.11" y="-328.6" font-family="Helvetica,sans-Serif" font-size="10.00" fill="#ffffff">theme</text>
</g>
<!-- chezmoi_mousse_theme&#45;&gt;chezmoi_mousse_components -->
<g id="edge13" class="edge">
<title>chezmoi_mousse_theme&#45;&gt;chezmoi_mousse_components</title><style>.edge>path:hover{stroke-width:8}</style>
<path fill="none" stroke="silver" d="M417.08,-317.24C409.14,-308.49 399.67,-298.05 390.99,-288.49"/>
<polygon fill="#c43331" stroke="silver" points="393.65,-286.21 384.34,-281.15 388.46,-290.91 393.65,-286.21"/>
</g>
<!-- chezmoi_mousse_theme&#45;&gt;chezmoi_mousse_gui -->
<g id="edge14" class="edge">
<title>chezmoi_mousse_theme&#45;&gt;chezmoi_mousse_gui</title><style>.edge>path:hover{stroke-width:8}</style>
<path fill="none" stroke="silver" d="M453.65,-317.1C486.88,-280.14 551.25,-202.9 530.11,-180.83"/>
<path fill="none" stroke="silver" d="M530.11,-178.83C512.09,-160.33 489.83,-141.9 471.49,-127.69"/>
<polygon fill="#c43331" stroke="silver" points="473.85,-125.09 463.78,-121.8 469.6,-130.65 473.85,-125.09"/>
</g>
<!-- rich -->
<g id="node10" class="node">
<title>rich</title><style>.edge>path:hover{stroke-width:8}</style>
<polygon fill="#06f90a" stroke="silver" points="423.11,-577.67 420.11,-581.67 399.11,-581.67 396.11,-577.67 369.11,-577.67 369.11,-541.67 423.11,-541.67 423.11,-577.67"/>
<text text-anchor="middle" x="396.11" y="-555.79" font-family="Helvetica,sans-Serif" font-size="10.00" fill="#000000">rich</text>
</g>
<!-- rich&#45;&gt;chezmoi_mousse_components -->
<g id="edge15" class="edge">
<title>rich&#45;&gt;chezmoi_mousse_components</title><style>.edge>path:hover{stroke-width:8}</style>
<path fill="none" stroke="silver" d="M341.11,-395.67C326.49,-375.21 341.38,-364.24 341.11,-339.1"/>
<path fill="none" stroke="silver" d="M341.11,-337.1C340.94,-321.5 345.45,-304.89 350.61,-291.09"/>
<polygon fill="#06f90a" stroke="silver" points="353.73,-292.69 354.23,-282.11 347.24,-290.07 353.73,-292.69"/>
</g>
<!-- rich&#45;&gt;chezmoi_mousse_gui -->
<g id="edge16" class="edge">
<title>rich&#45;&gt;chezmoi_mousse_gui</title><style>.edge>path:hover{stroke-width:8}</style>
<path fill="none" stroke="silver" d="M718.11,-337.1C727.42,-304.11 733.59,-290.56 718.11,-259.97"/>
</g>
<!-- rich&#45;&gt;chezmoi_mousse_main_tabs -->
<g id="edge17" class="edge">
<title>rich&#45;&gt;chezmoi_mousse_main_tabs</title><style>.edge>path:hover{stroke-width:8}</style>
<path fill="none" stroke="silver" d="M395.4,-541.45C395.15,-531.07 395.13,-517.59 396.11,-505.67"/>
<path fill="none" stroke="silver" d="M396.11,-504.67C397.95,-482.12 371.39,-488.28 360.11,-468.67 343.62,-439.97 360.35,-423.6 341.11,-396.67"/>
<path fill="none" stroke="silver" d="M341.11,-395.67C236.68,-284.19 42.77,-486.34 2.11,-339.1"/>
<path fill="none" stroke="silver" d="M2.11,-337.1C-12.28,-285.01 68.52,-306.44 96.11,-259.97"/>
<path fill="none" stroke="silver" d="M96.11,-257.97C118.47,-220.3 235.76,-198.99 314.99,-188.71"/>
<polygon fill="#06f90a" stroke="silver" points="315.41,-192.18 324.89,-187.46 314.53,-185.24 315.41,-192.18"/>
</g>
<!-- rich&#45;&gt;chezmoi_mousse_splash -->
<g id="edge18" class="edge">
<title>rich&#45;&gt;chezmoi_mousse_splash</title><style>.edge>path:hover{stroke-width:8}</style>
<path fill="none" stroke="silver" d="M396.11,-504.67C396.11,-467.84 663.32,-379.87 694.11,-359.67 705.85,-351.96 713.78,-352.47 718.11,-339.1"/>
<path fill="none" stroke="silver" d="M718.11,-337.1C725.21,-311.92 703.41,-293.05 679.03,-280.27"/>
<polygon fill="#06f90a" stroke="silver" points="680.75,-277.22 670.23,-276 677.7,-283.51 680.75,-277.22"/>
</g>
<!-- textual -->
<g id="node11" class="node">
<title>textual</title><style>.edge>path:hover{stroke-width:8}</style>
<polygon fill="#0a06ef" stroke="silver" points="423.11,-468.67 420.11,-472.67 399.11,-472.67 396.11,-468.67 369.11,-468.67 369.11,-432.67 423.11,-432.67 423.11,-468.67"/>
<text text-anchor="middle" x="396.11" y="-446.79" font-family="Helvetica,sans-Serif" font-size="10.00" fill="#ffffff">textual</text>
</g>
<!-- rich&#45;&gt;textual -->
<g id="edge19" class="edge">
<title>rich&#45;&gt;textual</title><style>.edge>path:hover{stroke-width:8}</style>
<path fill="none" stroke="silver" d="M396.11,-504.67C396.11,-496.72 396.11,-488.11 396.11,-480.18"/>
<polygon fill="#06f90a" stroke="silver" points="399.61,-480.37 396.11,-470.37 392.61,-480.37 399.61,-480.37"/>
</g>
<!-- textual&#45;&gt;chezmoi_mousse_components -->
<g id="edge20" class="edge">
<title>textual&#45;&gt;chezmoi_mousse_components</title><style>.edge>path:hover{stroke-width:8}</style>
<path fill="none" stroke="silver" d="M379.11,-395.67C370.93,-366.51 341.44,-369.39 341.11,-339.1"/>
</g>
<!-- textual&#45;&gt;chezmoi_mousse_gui -->
<g id="edge21" class="edge">
<title>textual&#45;&gt;chezmoi_mousse_gui</title><style>.edge>path:hover{stroke-width:8}</style>
<path fill="none" stroke="silver" d="M680.11,-337.1C702.73,-306.3 735.36,-294.07 718.11,-259.97"/>
<path fill="none" stroke="silver" d="M718.11,-257.97C686.33,-195.15 594.04,-246.48 530.11,-180.83"/>
</g>
<!-- textual&#45;&gt;chezmoi_mousse_main_tabs -->
<g id="edge22" class="edge">
<title>textual&#45;&gt;chezmoi_mousse_main_tabs</title><style>.edge>path:hover{stroke-width:8}</style>
<path fill="none" stroke="silver" d="M390.27,-432.58C386.83,-422.24 382.5,-408.76 379.11,-396.67"/>
<path fill="none" stroke="silver" d="M379.11,-395.67C356.22,-314.1 24.66,-420.76 2.11,-339.1"/>
</g>
<!-- textual&#45;&gt;chezmoi_mousse_splash -->
<g id="edge23" class="edge">
<title>textual&#45;&gt;chezmoi_mousse_splash</title><style>.edge>path:hover{stroke-width:8}</style>
<path fill="none" stroke="silver" d="M379.11,-395.67C362.04,-334.84 604.96,-388.61 661.11,-359.67 672.17,-353.97 672.74,-349.13 680.11,-339.1"/>
<path fill="none" stroke="silver" d="M680.11,-337.1C692.65,-320.02 678.64,-300.73 661.49,-285.71"/>
<polygon fill="#0a06ef" stroke="silver" points="664.06,-283.29 654.1,-279.67 659.63,-288.71 664.06,-283.29"/>
</g>
<!-- textual&#45;&gt;chezmoi_mousse_theme -->
<g id="edge24" class="edge">
<title>textual&#45;&gt;chezmoi_mousse_theme</title><style>.edge>path:hover{stroke-width:8}</style>
<path fill="none" stroke="silver" d="M379.11,-395.67C375.67,-383.42 381.95,-372.67 391.39,-363.92"/>
<polygon fill="#0a06ef" stroke="silver" points="393.54,-366.68 399.16,-357.7 389.17,-361.22 393.54,-366.68"/>
</g>
</g>
</svg>
