<?xml version="1.0" encoding="UTF-8" standalone="no"?>
<!DOCTYPE svg PUBLIC "-//W3C//DTD SVG 1.1//EN"
 "http://www.w3.org/Graphics/SVG/1.1/DTD/svg11.dtd">
<!-- Generated by graphviz version 12.2.1 (0)
 -->
<!-- Title: G Pages: 1 -->
<svg width="434pt" height="586pt"
 viewBox="0.00 0.00 434.38 585.67" xmlns="http://www.w3.org/2000/svg" xmlns:xlink="http://www.w3.org/1999/xlink">
<g id="graph0" class="graph" transform="scale(1 1) rotate(0) translate(4 581.67)">
<title>G</title><style>.edge>path:hover{stroke-width:8}</style>
<polygon fill="black" stroke="none" points="-4,4 -4,-581.67 430.38,-581.67 430.38,4 -4,4"/>
<!-- chezmoi_mousse___main__ -->
<g id="node1" class="node">
<title>chezmoi_mousse___main__</title><style>.edge>path:hover{stroke-width:8}</style>
<ellipse fill="#ac4b49" stroke="silver" cx="257.44" cy="-21.57" rx="66.47" ry="21.57"/>
<text text-anchor="middle" x="257.44" y="-23.32" font-family="Helvetica,sans-Serif" font-size="10.00" fill="#ffffff">chezmoi_mousse.</text>
<text text-anchor="middle" x="257.44" y="-12.07" font-family="Helvetica,sans-Serif" font-size="10.00" fill="#ffffff">__main__</text>
</g>
<!-- chezmoi_mousse_chezmoi -->
<g id="node2" class="node">
<title>chezmoi_mousse_chezmoi</title><style>.edge>path:hover{stroke-width:8}</style>
<ellipse fill="#e72622" stroke="silver" cx="290.44" cy="-338.1" rx="66.47" ry="21.57"/>
<text text-anchor="middle" x="290.44" y="-339.85" font-family="Helvetica,sans-Serif" font-size="10.00" fill="#ffffff">chezmoi_mousse.</text>
<text text-anchor="middle" x="290.44" y="-328.6" font-family="Helvetica,sans-Serif" font-size="10.00" fill="#ffffff">chezmoi</text>
</g>
<!-- chezmoi_mousse_components -->
<g id="node3" class="node">
<title>chezmoi_mousse_components</title><style>.edge>path:hover{stroke-width:8}</style>
<ellipse fill="#732726" stroke="silver" cx="140.44" cy="-258.97" rx="66.47" ry="21.57"/>
<text text-anchor="middle" x="140.44" y="-260.72" font-family="Helvetica,sans-Serif" font-size="10.00" fill="#ffffff">chezmoi_mousse.</text>
<text text-anchor="middle" x="140.44" y="-249.47" font-family="Helvetica,sans-Serif" font-size="10.00" fill="#ffffff">components</text>
</g>
<!-- chezmoi_mousse_chezmoi&#45;&gt;chezmoi_mousse_components -->
<g id="edge1" class="edge">
<title>chezmoi_mousse_chezmoi&#45;&gt;chezmoi_mousse_components</title><style>.edge>path:hover{stroke-width:8}</style>
<path fill="none" stroke="silver" d="M256.03,-319.4C234.95,-308.57 207.76,-294.58 185.04,-282.9"/>
<polygon fill="#e72622" stroke="silver" points="186.8,-279.87 176.3,-278.41 183.59,-286.09 186.8,-279.87"/>
</g>
<!-- chezmoi_mousse_gui -->
<g id="node5" class="node">
<title>chezmoi_mousse_gui</title><style>.edge>path:hover{stroke-width:8}</style>
<ellipse fill="#732726" stroke="silver" cx="257.44" cy="-100.7" rx="66.47" ry="21.57"/>
<text text-anchor="middle" x="257.44" y="-102.45" font-family="Helvetica,sans-Serif" font-size="10.00" fill="#ffffff">chezmoi_mousse.</text>
<text text-anchor="middle" x="257.44" y="-91.2" font-family="Helvetica,sans-Serif" font-size="10.00" fill="#ffffff">gui</text>
</g>
<!-- chezmoi_mousse_chezmoi&#45;&gt;chezmoi_mousse_gui -->
<g id="edge2" class="edge">
<title>chezmoi_mousse_chezmoi&#45;&gt;chezmoi_mousse_gui</title><style>.edge>path:hover{stroke-width:8}</style>
<path fill="none" stroke="silver" d="M234.44,-257.97C225.64,-204.65 347.77,-231.3 328.44,-180.83"/>
<path fill="none" stroke="silver" d="M328.44,-178.83C320.94,-159.23 305.78,-141.63 291.39,-128.21"/>
<polygon fill="#e72622" stroke="silver" points="294,-125.84 284.2,-121.81 289.34,-131.07 294,-125.84"/>
</g>
<!-- chezmoi_mousse_main_tabs -->
<g id="node6" class="node">
<title>chezmoi_mousse_main_tabs</title><style>.edge>path:hover{stroke-width:8}</style>
<ellipse fill="#732726" stroke="silver" cx="187.44" cy="-179.83" rx="66.47" ry="21.57"/>
<text text-anchor="middle" x="187.44" y="-181.58" font-family="Helvetica,sans-Serif" font-size="10.00" fill="#ffffff">chezmoi_mousse.</text>
<text text-anchor="middle" x="187.44" y="-170.33" font-family="Helvetica,sans-Serif" font-size="10.00" fill="#ffffff">main_tabs</text>
</g>
<!-- chezmoi_mousse_chezmoi&#45;&gt;chezmoi_mousse_main_tabs -->
<g id="edge3" class="edge">
<title>chezmoi_mousse_chezmoi&#45;&gt;chezmoi_mousse_main_tabs</title><style>.edge>path:hover{stroke-width:8}</style>
<path fill="none" stroke="silver" d="M268.09,-317.41C254.15,-303.15 238.16,-282.5 234.44,-259.97"/>
<path fill="none" stroke="silver" d="M234.44,-257.97C231.56,-240.49 222.07,-223.43 212.37,-209.81"/>
<polygon fill="#e72622" stroke="silver" points="215.43,-208.05 206.61,-202.17 209.84,-212.26 215.43,-208.05"/>
</g>
<!-- chezmoi_mousse_splash -->
<g id="node7" class="node">
<title>chezmoi_mousse_splash</title><style>.edge>path:hover{stroke-width:8}</style>
<ellipse fill="#732726" stroke="silver" cx="328.44" cy="-258.97" rx="66.47" ry="21.57"/>
<text text-anchor="middle" x="328.44" y="-260.72" font-family="Helvetica,sans-Serif" font-size="10.00" fill="#ffffff">chezmoi_mousse.</text>
<text text-anchor="middle" x="328.44" y="-249.47" font-family="Helvetica,sans-Serif" font-size="10.00" fill="#ffffff">splash</text>
</g>
<!-- chezmoi_mousse_chezmoi&#45;&gt;chezmoi_mousse_splash -->
<g id="edge4" class="edge">
<title>chezmoi_mousse_chezmoi&#45;&gt;chezmoi_mousse_splash</title><style>.edge>path:hover{stroke-width:8}</style>
<path fill="none" stroke="silver" d="M300.63,-316.43C304.5,-308.56 309.01,-299.42 313.25,-290.81"/>
<polygon fill="#e72622" stroke="silver" points="316.28,-292.57 317.56,-282.05 310,-289.48 316.28,-292.57"/>
</g>
<!-- chezmoi_mousse_components&#45;&gt;chezmoi_mousse_main_tabs -->
<g id="edge5" class="edge">
<title>chezmoi_mousse_components&#45;&gt;chezmoi_mousse_main_tabs</title><style>.edge>path:hover{stroke-width:8}</style>
<path fill="none" stroke="silver" d="M153.04,-237.3C157.98,-229.19 163.74,-219.73 169.13,-210.9"/>
<polygon fill="#732726" stroke="silver" points="171.97,-212.95 174.19,-202.59 166,-209.3 171.97,-212.95"/>
</g>
<!-- chezmoi_mousse_config -->
<g id="node4" class="node">
<title>chezmoi_mousse_config</title><style>.edge>path:hover{stroke-width:8}</style>
<ellipse fill="#ce3d3b" stroke="silver" cx="102.44" cy="-338.1" rx="66.47" ry="21.57"/>
<text text-anchor="middle" x="102.44" y="-339.85" font-family="Helvetica,sans-Serif" font-size="10.00" fill="#ffffff">chezmoi_mousse.</text>
<text text-anchor="middle" x="102.44" y="-328.6" font-family="Helvetica,sans-Serif" font-size="10.00" fill="#ffffff">config</text>
</g>
<!-- chezmoi_mousse_config&#45;&gt;chezmoi_mousse_components -->
<g id="edge6" class="edge">
<title>chezmoi_mousse_config&#45;&gt;chezmoi_mousse_components</title><style>.edge>path:hover{stroke-width:8}</style>
<path fill="none" stroke="silver" d="M112.63,-316.43C116.5,-308.56 121.01,-299.42 125.25,-290.81"/>
<polygon fill="#ce3d3b" stroke="silver" points="128.28,-292.57 129.56,-282.05 122,-289.48 128.28,-292.57"/>
</g>
<!-- chezmoi_mousse_config&#45;&gt;chezmoi_mousse_main_tabs -->
<g id="edge7" class="edge">
<title>chezmoi_mousse_config&#45;&gt;chezmoi_mousse_main_tabs</title><style>.edge>path:hover{stroke-width:8}</style>
<path fill="none" stroke="silver" d="M57.7,-321.82C29.24,-309.13 -0.68,-288.52 8.44,-259.97"/>
</g>
<!-- chezmoi_mousse_gui&#45;&gt;chezmoi_mousse___main__ -->
<g id="edge8" class="edge">
<title>chezmoi_mousse_gui&#45;&gt;chezmoi_mousse___main__</title><style>.edge>path:hover{stroke-width:8}</style>
<path fill="none" stroke="silver" d="M257.44,-79.03C257.44,-71.65 257.44,-63.16 257.44,-55.03"/>
<polygon fill="#732726" stroke="silver" points="260.94,-55.08 257.44,-45.08 253.94,-55.08 260.94,-55.08"/>
</g>
<!-- chezmoi_mousse_main_tabs&#45;&gt;chezmoi_mousse_gui -->
<g id="edge9" class="edge">
<title>chezmoi_mousse_main_tabs&#45;&gt;chezmoi_mousse_gui</title><style>.edge>path:hover{stroke-width:8}</style>
<path fill="none" stroke="silver" d="M205.47,-158.97C213.41,-150.22 222.89,-139.78 231.56,-130.22"/>
<polygon fill="#732726" stroke="silver" points="234.09,-132.64 238.22,-122.89 228.91,-127.94 234.09,-132.64"/>
</g>
<!-- chezmoi_mousse_splash&#45;&gt;chezmoi_mousse_gui -->
<g id="edge10" class="edge">
<title>chezmoi_mousse_splash&#45;&gt;chezmoi_mousse_gui</title><style>.edge>path:hover{stroke-width:8}</style>
<path fill="none" stroke="silver" d="M332.36,-237.27C334.46,-221.3 335.39,-198.97 328.44,-180.83"/>
</g>
<!-- rich -->
<g id="node8" class="node">
<title>rich</title><style>.edge>path:hover{stroke-width:8}</style>
<polygon fill="#06f90a" stroke="silver" points="259.44,-577.67 256.44,-581.67 235.44,-581.67 232.44,-577.67 205.44,-577.67 205.44,-541.67 259.44,-541.67 259.44,-577.67"/>
<text text-anchor="middle" x="232.44" y="-555.79" font-family="Helvetica,sans-Serif" font-size="10.00" fill="#000000">rich</text>
</g>
<!-- rich&#45;&gt;chezmoi_mousse_components -->
<g id="edge11" class="edge">
<title>rich&#45;&gt;chezmoi_mousse_components</title><style>.edge>path:hover{stroke-width:8}</style>
<path fill="none" stroke="silver" d="M177.44,-449.67C158.26,-403.65 232.79,-373.24 196.44,-339.1"/>
<path fill="none" stroke="silver" d="M196.44,-337.1C181.92,-323.21 168.58,-305.15 158.57,-290"/>
<polygon fill="#06f90a" stroke="silver" points="161.65,-288.33 153.3,-281.8 155.76,-292.11 161.65,-288.33"/>
</g>
<!-- rich&#45;&gt;chezmoi_mousse_gui -->
<g id="edge12" class="edge">
<title>rich&#45;&gt;chezmoi_mousse_gui</title><style>.edge>path:hover{stroke-width:8}</style>
<path fill="none" stroke="silver" d="M422.44,-395.67C432.02,-372.42 419.9,-364.11 422.44,-339.1"/>
</g>
<!-- rich&#45;&gt;chezmoi_mousse_main_tabs -->
<g id="edge13" class="edge">
<title>rich&#45;&gt;chezmoi_mousse_main_tabs</title><style>.edge>path:hover{stroke-width:8}</style>
<path fill="none" stroke="silver" d="M231.69,-541.45C231.43,-531.07 231.41,-517.58 232.44,-505.67"/>
<path fill="none" stroke="silver" d="M232.44,-504.67C235.38,-470.85 191.55,-482.54 177.44,-451.67"/>
<path fill="none" stroke="silver" d="M177.44,-449.67C167.05,-426.91 178.86,-411.14 158.44,-396.67"/>
<path fill="none" stroke="silver" d="M158.44,-395.67C109.19,-360.74 68.4,-404.03 27.44,-359.67 -3.15,-326.52 -5.29,-302.94 8.44,-259.97"/>
<path fill="none" stroke="silver" d="M8.44,-257.97C21.44,-215.17 68.74,-196 111.45,-187.47"/>
<polygon fill="#06f90a" stroke="silver" points="112.06,-190.92 121.28,-185.7 110.82,-184.03 112.06,-190.92"/>
</g>
<!-- rich&#45;&gt;chezmoi_mousse_splash -->
<g id="edge14" class="edge">
<title>rich&#45;&gt;chezmoi_mousse_splash</title><style>.edge>path:hover{stroke-width:8}</style>
<path fill="none" stroke="silver" d="M232.44,-504.67C232.44,-456.1 401.96,-440.7 422.44,-396.67"/>
<path fill="none" stroke="silver" d="M422.44,-395.67C433.98,-367.66 398.05,-366.16 384.44,-339.1"/>
</g>
<!-- textual -->
<g id="node9" class="node">
<title>textual</title><style>.edge>path:hover{stroke-width:8}</style>
<polygon fill="#0a06ef" stroke="silver" points="259.44,-468.67 256.44,-472.67 235.44,-472.67 232.44,-468.67 205.44,-468.67 205.44,-432.67 259.44,-432.67 259.44,-468.67"/>
<text text-anchor="middle" x="232.44" y="-446.79" font-family="Helvetica,sans-Serif" font-size="10.00" fill="#ffffff">textual</text>
</g>
<!-- rich&#45;&gt;textual -->
<g id="edge15" class="edge">
<title>rich&#45;&gt;textual</title><style>.edge>path:hover{stroke-width:8}</style>
<path fill="none" stroke="silver" d="M232.44,-504.67C232.44,-496.72 232.44,-488.11 232.44,-480.18"/>
<polygon fill="#06f90a" stroke="silver" points="235.94,-480.37 232.44,-470.37 228.94,-480.37 235.94,-480.37"/>
</g>
<!-- textual&#45;&gt;chezmoi_mousse_components -->
<g id="edge16" class="edge">
<title>textual&#45;&gt;chezmoi_mousse_components</title><style>.edge>path:hover{stroke-width:8}</style>
<path fill="none" stroke="silver" d="M259.67,-438.02C264.25,-436.17 268.96,-434.32 273.44,-432.67 322.1,-414.72 371.22,-446.82 384.44,-396.67"/>
<path fill="none" stroke="silver" d="M384.44,-395.67C404.02,-321.41 282.19,-397.65 215.44,-359.67 204.63,-353.51 205.51,-347.62 196.44,-339.1"/>
</g>
<!-- textual&#45;&gt;chezmoi_mousse_gui -->
<g id="edge17" class="edge">
<title>textual&#45;&gt;chezmoi_mousse_gui</title><style>.edge>path:hover{stroke-width:8}</style>
<path fill="none" stroke="silver" d="M384.44,-395.67C392.17,-366.38 417.68,-369.01 422.44,-339.1"/>
<path fill="none" stroke="silver" d="M422.44,-337.1C429.55,-292.55 427.27,-275.7 403.44,-237.4 381.39,-201.95 343.37,-219.83 328.44,-180.83"/>
</g>
<!-- textual&#45;&gt;chezmoi_mousse_main_tabs -->
<g id="edge18" class="edge">
<title>textual&#45;&gt;chezmoi_mousse_main_tabs</title><style>.edge>path:hover{stroke-width:8}</style>
<path fill="none" stroke="silver" d="M208.15,-432.19C193.73,-421.83 175.07,-408.46 158.44,-396.67"/>
</g>
<!-- textual&#45;&gt;chezmoi_mousse_splash -->
<g id="edge19" class="edge">
<title>textual&#45;&gt;chezmoi_mousse_splash</title><style>.edge>path:hover{stroke-width:8}</style>
<path fill="none" stroke="silver" d="M384.44,-395.67C390.85,-371.36 395.74,-361.56 384.44,-339.1"/>
<path fill="none" stroke="silver" d="M384.44,-337.1C375.84,-320 363.58,-302.61 352.73,-288.68"/>
<polygon fill="#0a06ef" stroke="silver" points="355.76,-286.87 346.79,-281.24 350.29,-291.24 355.76,-286.87"/>
</g>
</g>
</svg>
