<?xml version="1.0" encoding="UTF-8" standalone="no"?>
<!DOCTYPE svg PUBLIC "-//W3C//DTD SVG 1.1//EN"
 "http://www.w3.org/Graphics/SVG/1.1/DTD/svg11.dtd">
<!-- Generated by graphviz version 12.2.1 (0)
 -->
<!-- Title: G Pages: 1 -->
<svg width="756pt" height="586pt"
 viewBox="0.00 0.00 756.32 585.67" xmlns="http://www.w3.org/2000/svg" xmlns:xlink="http://www.w3.org/1999/xlink">
<g id="graph0" class="graph" transform="scale(1 1) rotate(0) translate(4 581.67)">
<title>G</title><style>.edge>path:hover{stroke-width:8}</style>
<polygon fill="black" stroke="none" points="-4,4 -4,-581.67 752.32,-581.67 752.32,4 -4,4"/>
<!-- chezmoi_mousse___main__ -->
<g id="node1" class="node">
<title>chezmoi_mousse___main__</title><style>.edge>path:hover{stroke-width:8}</style>
<ellipse fill="#ac4b49" stroke="silver" cx="274.15" cy="-21.57" rx="66.47" ry="21.57"/>
<text text-anchor="middle" x="274.15" y="-23.32" font-family="Helvetica,sans-Serif" font-size="10.00" fill="#ffffff">chezmoi_mousse.</text>
<text text-anchor="middle" x="274.15" y="-12.07" font-family="Helvetica,sans-Serif" font-size="10.00" fill="#ffffff">__main__</text>
</g>
<!-- chezmoi_mousse_chezmoi -->
<g id="node2" class="node">
<title>chezmoi_mousse_chezmoi</title><style>.edge>path:hover{stroke-width:8}</style>
<ellipse fill="#e72622" stroke="silver" cx="613.15" cy="-338.1" rx="66.47" ry="21.57"/>
<text text-anchor="middle" x="613.15" y="-339.85" font-family="Helvetica,sans-Serif" font-size="10.00" fill="#ffffff">chezmoi_mousse.</text>
<text text-anchor="middle" x="613.15" y="-328.6" font-family="Helvetica,sans-Serif" font-size="10.00" fill="#ffffff">chezmoi</text>
</g>
<!-- chezmoi_mousse_components -->
<g id="node3" class="node">
<title>chezmoi_mousse_components</title><style>.edge>path:hover{stroke-width:8}</style>
<ellipse fill="#732726" stroke="silver" cx="368.15" cy="-258.97" rx="66.47" ry="21.57"/>
<text text-anchor="middle" x="368.15" y="-260.72" font-family="Helvetica,sans-Serif" font-size="10.00" fill="#ffffff">chezmoi_mousse.</text>
<text text-anchor="middle" x="368.15" y="-249.47" font-family="Helvetica,sans-Serif" font-size="10.00" fill="#ffffff">components</text>
</g>
<!-- chezmoi_mousse_chezmoi&#45;&gt;chezmoi_mousse_components -->
<g id="edge1" class="edge">
<title>chezmoi_mousse_chezmoi&#45;&gt;chezmoi_mousse_components</title><style>.edge>path:hover{stroke-width:8}</style>
<path fill="none" stroke="silver" d="M566.49,-322.41C526.39,-309.79 468.41,-291.53 425.48,-278.02"/>
<polygon fill="#e72622" stroke="silver" points="426.67,-274.72 416.08,-275.06 424.57,-281.4 426.67,-274.72"/>
</g>
<!-- chezmoi_mousse_gui -->
<g id="node5" class="node">
<title>chezmoi_mousse_gui</title><style>.edge>path:hover{stroke-width:8}</style>
<ellipse fill="#732726" stroke="silver" cx="274.15" cy="-100.7" rx="66.47" ry="21.57"/>
<text text-anchor="middle" x="274.15" y="-102.45" font-family="Helvetica,sans-Serif" font-size="10.00" fill="#ffffff">chezmoi_mousse.</text>
<text text-anchor="middle" x="274.15" y="-91.2" font-family="Helvetica,sans-Serif" font-size="10.00" fill="#ffffff">gui</text>
</g>
<!-- chezmoi_mousse_chezmoi&#45;&gt;chezmoi_mousse_gui -->
<g id="edge2" class="edge">
<title>chezmoi_mousse_chezmoi&#45;&gt;chezmoi_mousse_gui</title><style>.edge>path:hover{stroke-width:8}</style>
<path fill="none" stroke="silver" d="M557.15,-257.97C520.52,-218.23 685.21,-222.79 651.15,-180.83"/>
<path fill="none" stroke="silver" d="M651.15,-178.83C614.09,-133.18 449.74,-113.84 350.68,-106.21"/>
<polygon fill="#e72622" stroke="silver" points="350.98,-102.73 340.74,-105.47 350.46,-109.71 350.98,-102.73"/>
</g>
<!-- chezmoi_mousse_main_tabs -->
<g id="node6" class="node">
<title>chezmoi_mousse_main_tabs</title><style>.edge>path:hover{stroke-width:8}</style>
<ellipse fill="#732726" stroke="silver" cx="274.15" cy="-179.83" rx="66.47" ry="21.57"/>
<text text-anchor="middle" x="274.15" y="-181.58" font-family="Helvetica,sans-Serif" font-size="10.00" fill="#ffffff">chezmoi_mousse.</text>
<text text-anchor="middle" x="274.15" y="-170.33" font-family="Helvetica,sans-Serif" font-size="10.00" fill="#ffffff">main_tabs</text>
</g>
<!-- chezmoi_mousse_chezmoi&#45;&gt;chezmoi_mousse_main_tabs -->
<g id="edge3" class="edge">
<title>chezmoi_mousse_chezmoi&#45;&gt;chezmoi_mousse_main_tabs</title><style>.edge>path:hover{stroke-width:8}</style>
<path fill="none" stroke="silver" d="M600.31,-316.79C589.66,-300.63 573.64,-277.85 557.15,-259.97"/>
<path fill="none" stroke="silver" d="M557.15,-257.97C528.67,-227.07 419.3,-203.96 345.17,-191.43"/>
<polygon fill="#e72622" stroke="silver" points="345.98,-188.01 335.54,-189.83 344.84,-194.92 345.98,-188.01"/>
</g>
<!-- chezmoi_mousse_splash -->
<g id="node8" class="node">
<title>chezmoi_mousse_splash</title><style>.edge>path:hover{stroke-width:8}</style>
<ellipse fill="#732726" stroke="silver" cx="651.15" cy="-258.97" rx="66.47" ry="21.57"/>
<text text-anchor="middle" x="651.15" y="-260.72" font-family="Helvetica,sans-Serif" font-size="10.00" fill="#ffffff">chezmoi_mousse.</text>
<text text-anchor="middle" x="651.15" y="-249.47" font-family="Helvetica,sans-Serif" font-size="10.00" fill="#ffffff">splash</text>
</g>
<!-- chezmoi_mousse_chezmoi&#45;&gt;chezmoi_mousse_splash -->
<g id="edge4" class="edge">
<title>chezmoi_mousse_chezmoi&#45;&gt;chezmoi_mousse_splash</title><style>.edge>path:hover{stroke-width:8}</style>
<path fill="none" stroke="silver" d="M623.33,-316.43C627.21,-308.56 631.72,-299.42 635.96,-290.81"/>
<polygon fill="#e72622" stroke="silver" points="638.99,-292.57 640.27,-282.05 632.71,-289.48 638.99,-292.57"/>
</g>
<!-- chezmoi_mousse_components&#45;&gt;chezmoi_mousse_main_tabs -->
<g id="edge5" class="edge">
<title>chezmoi_mousse_components&#45;&gt;chezmoi_mousse_main_tabs</title><style>.edge>path:hover{stroke-width:8}</style>
<path fill="none" stroke="silver" d="M344.43,-238.5C332.96,-229.09 319.02,-217.66 306.59,-207.45"/>
<polygon fill="#732726" stroke="silver" points="308.98,-204.89 299.03,-201.25 304.54,-210.3 308.98,-204.89"/>
</g>
<!-- chezmoi_mousse_config -->
<g id="node4" class="node">
<title>chezmoi_mousse_config</title><style>.edge>path:hover{stroke-width:8}</style>
<ellipse fill="#ce3d3b" stroke="silver" cx="274.15" cy="-338.1" rx="66.47" ry="21.57"/>
<text text-anchor="middle" x="274.15" y="-339.85" font-family="Helvetica,sans-Serif" font-size="10.00" fill="#ffffff">chezmoi_mousse.</text>
<text text-anchor="middle" x="274.15" y="-328.6" font-family="Helvetica,sans-Serif" font-size="10.00" fill="#ffffff">config</text>
</g>
<!-- chezmoi_mousse_config&#45;&gt;chezmoi_mousse_components -->
<g id="edge6" class="edge">
<title>chezmoi_mousse_config&#45;&gt;chezmoi_mousse_components</title><style>.edge>path:hover{stroke-width:8}</style>
<path fill="none" stroke="silver" d="M297.87,-317.64C309.34,-308.23 323.28,-296.79 335.71,-286.59"/>
<polygon fill="#ce3d3b" stroke="silver" points="337.76,-289.43 343.27,-280.39 333.32,-284.02 337.76,-289.43"/>
</g>
<!-- chezmoi_mousse_config&#45;&gt;chezmoi_mousse_main_tabs -->
<g id="edge7" class="edge">
<title>chezmoi_mousse_config&#45;&gt;chezmoi_mousse_main_tabs</title><style>.edge>path:hover{stroke-width:8}</style>
<path fill="none" stroke="silver" d="M274.15,-316.35C274.15,-289.96 274.15,-244.12 274.15,-213.14"/>
<polygon fill="#ce3d3b" stroke="silver" points="277.65,-213.18 274.15,-203.18 270.65,-213.18 277.65,-213.18"/>
</g>
<!-- chezmoi_mousse_gui&#45;&gt;chezmoi_mousse___main__ -->
<g id="edge8" class="edge">
<title>chezmoi_mousse_gui&#45;&gt;chezmoi_mousse___main__</title><style>.edge>path:hover{stroke-width:8}</style>
<path fill="none" stroke="silver" d="M274.15,-79.03C274.15,-71.65 274.15,-63.16 274.15,-55.03"/>
<polygon fill="#732726" stroke="silver" points="277.65,-55.08 274.15,-45.08 270.65,-55.08 277.65,-55.08"/>
</g>
<!-- chezmoi_mousse_main_tabs&#45;&gt;chezmoi_mousse_gui -->
<g id="edge9" class="edge">
<title>chezmoi_mousse_main_tabs&#45;&gt;chezmoi_mousse_gui</title><style>.edge>path:hover{stroke-width:8}</style>
<path fill="none" stroke="silver" d="M274.15,-158.16C274.15,-150.79 274.15,-142.29 274.15,-134.16"/>
<polygon fill="#732726" stroke="silver" points="277.65,-134.21 274.15,-124.21 270.65,-134.21 277.65,-134.21"/>
</g>
<!-- chezmoi_mousse_mouse_types -->
<g id="node7" class="node">
<title>chezmoi_mousse_mouse_types</title><style>.edge>path:hover{stroke-width:8}</style>
<ellipse fill="#ce3d3b" stroke="silver" cx="462.15" cy="-338.1" rx="66.47" ry="21.57"/>
<text text-anchor="middle" x="462.15" y="-339.85" font-family="Helvetica,sans-Serif" font-size="10.00" fill="#ffffff">chezmoi_mousse.</text>
<text text-anchor="middle" x="462.15" y="-328.6" font-family="Helvetica,sans-Serif" font-size="10.00" fill="#ffffff">mouse_types</text>
</g>
<!-- chezmoi_mousse_mouse_types&#45;&gt;chezmoi_mousse_components -->
<g id="edge10" class="edge">
<title>chezmoi_mousse_mouse_types&#45;&gt;chezmoi_mousse_components</title><style>.edge>path:hover{stroke-width:8}</style>
<path fill="none" stroke="silver" d="M438.43,-317.64C426.96,-308.23 413.02,-296.79 400.59,-286.59"/>
<polygon fill="#ce3d3b" stroke="silver" points="402.98,-284.02 393.03,-280.39 398.54,-289.43 402.98,-284.02"/>
</g>
<!-- chezmoi_mousse_mouse_types&#45;&gt;chezmoi_mousse_main_tabs -->
<g id="edge11" class="edge">
<title>chezmoi_mousse_mouse_types&#45;&gt;chezmoi_mousse_main_tabs</title><style>.edge>path:hover{stroke-width:8}</style>
<path fill="none" stroke="silver" d="M463.92,-316.16C464.61,-293.96 462.16,-259.16 443.15,-237.4 419.47,-210.29 382.4,-196.14 349.01,-188.77"/>
<polygon fill="#ce3d3b" stroke="silver" points="349.83,-185.36 339.34,-186.82 348.45,-192.22 349.83,-185.36"/>
</g>
<!-- chezmoi_mousse_splash&#45;&gt;chezmoi_mousse_gui -->
<g id="edge12" class="edge">
<title>chezmoi_mousse_splash&#45;&gt;chezmoi_mousse_gui</title><style>.edge>path:hover{stroke-width:8}</style>
<path fill="none" stroke="silver" d="M657.66,-237.27C661.64,-220.23 663.81,-196.43 651.15,-180.83"/>
</g>
<!-- chezmoi_mousse_theme -->
<g id="node9" class="node">
<title>chezmoi_mousse_theme</title><style>.edge>path:hover{stroke-width:8}</style>
<ellipse fill="#d02724" stroke="silver" cx="123.15" cy="-338.1" rx="66.47" ry="21.57"/>
<text text-anchor="middle" x="123.15" y="-339.85" font-family="Helvetica,sans-Serif" font-size="10.00" fill="#ffffff">chezmoi_mousse.</text>
<text text-anchor="middle" x="123.15" y="-328.6" font-family="Helvetica,sans-Serif" font-size="10.00" fill="#ffffff">theme</text>
</g>
<!-- chezmoi_mousse_theme&#45;&gt;chezmoi_mousse_components -->
<g id="edge13" class="edge">
<title>chezmoi_mousse_theme&#45;&gt;chezmoi_mousse_components</title><style>.edge>path:hover{stroke-width:8}</style>
<path fill="none" stroke="silver" d="M169.81,-322.41C209.91,-309.79 267.9,-291.53 310.82,-278.02"/>
<polygon fill="#d02724" stroke="silver" points="311.73,-281.4 320.22,-275.06 309.63,-274.72 311.73,-281.4"/>
</g>
<!-- chezmoi_mousse_theme&#45;&gt;chezmoi_mousse_gui -->
<g id="edge14" class="edge">
<title>chezmoi_mousse_theme&#45;&gt;chezmoi_mousse_gui</title><style>.edge>path:hover{stroke-width:8}</style>
<path fill="none" stroke="silver" d="M108.62,-316.81C99.38,-301.45 90.04,-279.69 95.15,-259.97"/>
<path fill="none" stroke="silver" d="M95.15,-257.97C103.74,-224.78 68.99,-202.99 95.15,-180.83"/>
</g>
<!-- chezmoi_mousse_theme&#45;&gt;chezmoi_mousse_main_tabs -->
<g id="edge15" class="edge">
<title>chezmoi_mousse_theme&#45;&gt;chezmoi_mousse_main_tabs</title><style>.edge>path:hover{stroke-width:8}</style>
<path fill="none" stroke="silver" d="M95.15,-257.97C106.46,-214.27 154.59,-195.17 198.09,-186.9"/>
<polygon fill="#d02724" stroke="silver" points="198.56,-190.37 207.82,-185.23 197.37,-183.47 198.56,-190.37"/>
</g>
<!-- rich -->
<g id="node10" class="node">
<title>rich</title><style>.edge>path:hover{stroke-width:8}</style>
<polygon fill="#06f90a" stroke="silver" points="395.15,-577.67 392.15,-581.67 371.15,-581.67 368.15,-577.67 341.15,-577.67 341.15,-541.67 395.15,-541.67 395.15,-577.67"/>
<text text-anchor="middle" x="368.15" y="-555.79" font-family="Helvetica,sans-Serif" font-size="10.00" fill="#000000">rich</text>
</g>
<!-- rich&#45;&gt;chezmoi_mousse_components -->
<g id="edge16" class="edge">
<title>rich&#45;&gt;chezmoi_mousse_components</title><style>.edge>path:hover{stroke-width:8}</style>
<path fill="none" stroke="silver" d="M368.15,-504.67C358.32,-462.22 742.3,-440.15 745.15,-396.67"/>
<path fill="none" stroke="silver" d="M745.15,-395.67C745.47,-355.69 422.93,-377.51 387.15,-359.67 376.01,-354.11 375.54,-349.11 368.15,-339.1"/>
</g>
<!-- rich&#45;&gt;chezmoi_mousse_gui -->
<g id="edge17" class="edge">
<title>rich&#45;&gt;chezmoi_mousse_gui</title><style>.edge>path:hover{stroke-width:8}</style>
<path fill="none" stroke="silver" d="M745.15,-337.1C733.21,-293.6 749.98,-275.7 726.15,-237.4 704.1,-201.95 677.47,-213.25 651.15,-180.83"/>
</g>
<!-- rich&#45;&gt;chezmoi_mousse_main_tabs -->
<g id="edge18" class="edge">
<title>rich&#45;&gt;chezmoi_mousse_main_tabs</title><style>.edge>path:hover{stroke-width:8}</style>
<path fill="none" stroke="silver" d="M366.76,-541.37C366.27,-530.96 366.24,-517.48 368.15,-505.67"/>
<path fill="none" stroke="silver" d="M368.15,-504.67C374.92,-462.81 38.76,-394.89 15.15,-359.67 -9.76,-322.5 -1.25,-292.8 29.15,-259.97"/>
<path fill="none" stroke="silver" d="M29.15,-257.97C70.01,-209.07 141.6,-190.72 196.87,-184.06"/>
<polygon fill="#06f90a" stroke="silver" points="196.98,-187.57 206.55,-183.01 196.23,-180.61 196.98,-187.57"/>
</g>
<!-- rich&#45;&gt;chezmoi_mousse_splash -->
<g id="edge19" class="edge">
<title>rich&#45;&gt;chezmoi_mousse_splash</title><style>.edge>path:hover{stroke-width:8}</style>
<path fill="none" stroke="silver" d="M745.15,-395.67C745.35,-370.53 751.81,-363.34 745.15,-339.1"/>
<path fill="none" stroke="silver" d="M745.15,-337.1C738.67,-313.48 718.75,-295.43 698.92,-282.75"/>
<polygon fill="#06f90a" stroke="silver" points="700.92,-279.87 690.54,-277.73 697.32,-285.87 700.92,-279.87"/>
</g>
<!-- textual -->
<g id="node11" class="node">
<title>textual</title><style>.edge>path:hover{stroke-width:8}</style>
<polygon fill="#0a06ef" stroke="silver" points="395.15,-468.67 392.15,-472.67 371.15,-472.67 368.15,-468.67 341.15,-468.67 341.15,-432.67 395.15,-432.67 395.15,-468.67"/>
<text text-anchor="middle" x="368.15" y="-446.79" font-family="Helvetica,sans-Serif" font-size="10.00" fill="#ffffff">textual</text>
</g>
<!-- rich&#45;&gt;textual -->
<g id="edge20" class="edge">
<title>rich&#45;&gt;textual</title><style>.edge>path:hover{stroke-width:8}</style>
<path fill="none" stroke="silver" d="M368.15,-504.67C366.36,-496.93 365.78,-488.38 365.79,-480.45"/>
<polygon fill="#06f90a" stroke="silver" points="369.28,-480.71 366.14,-470.59 362.29,-480.46 369.28,-480.71"/>
</g>
<!-- textual&#45;&gt;chezmoi_mousse_components -->
<g id="edge21" class="edge">
<title>textual&#45;&gt;chezmoi_mousse_components</title><style>.edge>path:hover{stroke-width:8}</style>
<path fill="none" stroke="silver" d="M368.15,-395.67C358.22,-372.57 383.08,-359.33 368.15,-339.1"/>
<path fill="none" stroke="silver" d="M368.15,-337.1C358.71,-324.31 358.02,-306.79 360.01,-291.68"/>
<polygon fill="#0a06ef" stroke="silver" points="363.39,-292.66 361.68,-282.21 356.49,-291.45 363.39,-292.66"/>
</g>
<!-- textual&#45;&gt;chezmoi_mousse_gui -->
<g id="edge22" class="edge">
<title>textual&#45;&gt;chezmoi_mousse_gui</title><style>.edge>path:hover{stroke-width:8}</style>
<path fill="none" stroke="silver" d="M371.64,-432.21C372.96,-421.5 373.11,-407.75 368.15,-396.67"/>
<path fill="none" stroke="silver" d="M368.15,-395.67C338.93,-330.35 112,-391.98 48.15,-359.67 37.05,-354.05 38.24,-347.61 29.15,-339.1"/>
<path fill="none" stroke="silver" d="M29.15,-337.1C-3.52,-306.52 -5.42,-277.14 15.15,-237.4 35.17,-198.73 61.92,-208.98 95.15,-180.83"/>
<path fill="none" stroke="silver" d="M95.15,-178.83C127.7,-148.93 173.62,-129.46 210.81,-117.57"/>
<polygon fill="#0a06ef" stroke="silver" points="211.57,-120.99 220.1,-114.71 209.51,-114.3 211.57,-120.99"/>
</g>
<!-- textual&#45;&gt;chezmoi_mousse_main_tabs -->
<g id="edge23" class="edge">
<title>textual&#45;&gt;chezmoi_mousse_main_tabs</title><style>.edge>path:hover{stroke-width:8}</style>
<path fill="none" stroke="silver" d="M29.15,-337.1C4.12,-313.67 5.86,-285.12 29.15,-259.97"/>
</g>
<!-- textual&#45;&gt;chezmoi_mousse_splash -->
<g id="edge24" class="edge">
<title>textual&#45;&gt;chezmoi_mousse_splash</title><style>.edge>path:hover{stroke-width:8}</style>
<path fill="none" stroke="silver" d="M368.15,-395.67C339.89,-329.93 640.46,-413.02 688.15,-359.67 705.94,-339.76 691.83,-310.53 676.18,-288.87"/>
<polygon fill="#0a06ef" stroke="silver" points="679.01,-286.81 670.15,-281 673.45,-291.07 679.01,-286.81"/>
</g>
<!-- textual&#45;&gt;chezmoi_mousse_theme -->
<g id="edge25" class="edge">
<title>textual&#45;&gt;chezmoi_mousse_theme</title><style>.edge>path:hover{stroke-width:8}</style>
<path fill="none" stroke="silver" d="M368.15,-395.67C352.98,-360.39 236.47,-368.69 199.15,-359.67 194.02,-358.43 188.71,-357.1 183.39,-355.73"/>
<polygon fill="#0a06ef" stroke="silver" points="184.54,-352.41 173.98,-353.26 182.77,-359.18 184.54,-352.41"/>
</g>
</g>
</svg>
