<?xml version="1.0" encoding="UTF-8" standalone="no"?>
<!DOCTYPE svg PUBLIC "-//W3C//DTD SVG 1.1//EN"
 "http://www.w3.org/Graphics/SVG/1.1/DTD/svg11.dtd">
<!-- Generated by graphviz version 12.2.1 (0)
 -->
<!-- Title: G Pages: 1 -->
<svg width="775pt" height="700pt"
 viewBox="0.00 0.00 775.48 699.80" xmlns="http://www.w3.org/2000/svg" xmlns:xlink="http://www.w3.org/1999/xlink">
<g id="graph0" class="graph" transform="scale(1 1) rotate(0) translate(4 695.8)">
<title>G</title><style>.edge>path:hover{stroke-width:8}</style>
<polygon fill="black" stroke="none" points="-4,4 -4,-695.8 771.48,-695.8 771.48,4 -4,4"/>
<!-- __main___py -->
<g id="node1" class="node">
<title>__main___py</title><style>.edge>path:hover{stroke-width:8}</style>
<ellipse fill="#9f5756" stroke="silver" cx="221.42" cy="-18" rx="41.42" ry="18"/>
<text text-anchor="middle" x="221.42" y="-14.12" font-family="Helvetica,sans-Serif" font-size="10.00" fill="#ffffff">__main__.py</text>
</g>
<!-- chezmoi_mousse -->
<g id="node2" class="node">
<title>chezmoi_mousse</title><style>.edge>path:hover{stroke-width:8}</style>
<ellipse fill="#82db2f" stroke="silver" cx="152.42" cy="-130.57" rx="54.29" ry="18"/>
<text text-anchor="middle" x="152.42" y="-126.69" font-family="Helvetica,sans-Serif" font-size="10.00" fill="#000000">chezmoi_mousse</text>
</g>
<!-- chezmoi_mousse&#45;&gt;__main___py -->
<g id="edge1" class="edge">
<title>chezmoi_mousse&#45;&gt;__main___py</title><style>.edge>path:hover{stroke-width:8}</style>
<path fill="none" stroke="silver" d="M186.57,-116.37C203.98,-107.19 221.5,-92.98 221.42,-73"/>
<path fill="none" stroke="silver" d="M221.42,-72C221.38,-64.06 221.37,-55.44 221.37,-47.52"/>
<polygon fill="#82db2f" stroke="silver" points="224.87,-47.7 221.38,-37.7 217.87,-47.7 224.87,-47.7"/>
</g>
<!-- chezmoi_mousse_chezmoi -->
<g id="node3" class="node">
<title>chezmoi_mousse_chezmoi</title><style>.edge>path:hover{stroke-width:8}</style>
<ellipse fill="#82ce3b" stroke="silver" cx="197.42" cy="-288.83" rx="66.47" ry="21.57"/>
<text text-anchor="middle" x="197.42" y="-290.58" font-family="Helvetica,sans-Serif" font-size="10.00" fill="#000000">chezmoi_mousse.</text>
<text text-anchor="middle" x="197.42" y="-279.33" font-family="Helvetica,sans-Serif" font-size="10.00" fill="#000000">chezmoi</text>
</g>
<!-- chezmoi_mousse_gui -->
<g id="node4" class="node">
<title>chezmoi_mousse_gui</title><style>.edge>path:hover{stroke-width:8}</style>
<ellipse fill="#4b6b2e" stroke="silver" cx="291.42" cy="-130.57" rx="66.47" ry="21.57"/>
<text text-anchor="middle" x="291.42" y="-132.32" font-family="Helvetica,sans-Serif" font-size="10.00" fill="#ffffff">chezmoi_mousse.</text>
<text text-anchor="middle" x="291.42" y="-121.07" font-family="Helvetica,sans-Serif" font-size="10.00" fill="#ffffff">gui</text>
</g>
<!-- chezmoi_mousse_chezmoi&#45;&gt;chezmoi_mousse_gui -->
<g id="edge2" class="edge">
<title>chezmoi_mousse_chezmoi&#45;&gt;chezmoi_mousse_gui</title><style>.edge>path:hover{stroke-width:8}</style>
<path fill="none" stroke="silver" d="M235.51,-270.85C258.14,-258.13 283.87,-238.18 291.42,-210.7"/>
<path fill="none" stroke="silver" d="M291.42,-208.7C295.38,-194.27 295.88,-177.75 295.19,-163.7"/>
<polygon fill="#82ce3b" stroke="silver" points="298.71,-163.82 294.49,-154.1 291.73,-164.33 298.71,-163.82"/>
</g>
<!-- chezmoi_mousse_main_tabs -->
<g id="node5" class="node">
<title>chezmoi_mousse_main_tabs</title><style>.edge>path:hover{stroke-width:8}</style>
<ellipse fill="#5a8137" stroke="silver" cx="197.42" cy="-209.7" rx="66.47" ry="21.57"/>
<text text-anchor="middle" x="197.42" y="-211.45" font-family="Helvetica,sans-Serif" font-size="10.00" fill="#ffffff">chezmoi_mousse.</text>
<text text-anchor="middle" x="197.42" y="-200.2" font-family="Helvetica,sans-Serif" font-size="10.00" fill="#ffffff">main_tabs</text>
</g>
<!-- chezmoi_mousse_chezmoi&#45;&gt;chezmoi_mousse_main_tabs -->
<g id="edge3" class="edge">
<title>chezmoi_mousse_chezmoi&#45;&gt;chezmoi_mousse_main_tabs</title><style>.edge>path:hover{stroke-width:8}</style>
<path fill="none" stroke="silver" d="M197.42,-267.16C197.42,-259.79 197.42,-251.29 197.42,-243.16"/>
<polygon fill="#82ce3b" stroke="silver" points="200.92,-243.21 197.42,-233.21 193.92,-243.21 200.92,-243.21"/>
</g>
<!-- chezmoi_mousse_splash -->
<g id="node6" class="node">
<title>chezmoi_mousse_splash</title><style>.edge>path:hover{stroke-width:8}</style>
<ellipse fill="#507231" stroke="silver" cx="395.42" cy="-209.7" rx="66.47" ry="21.57"/>
<text text-anchor="middle" x="395.42" y="-211.45" font-family="Helvetica,sans-Serif" font-size="10.00" fill="#ffffff">chezmoi_mousse.</text>
<text text-anchor="middle" x="395.42" y="-200.2" font-family="Helvetica,sans-Serif" font-size="10.00" fill="#ffffff">splash</text>
</g>
<!-- chezmoi_mousse_chezmoi&#45;&gt;chezmoi_mousse_splash -->
<g id="edge4" class="edge">
<title>chezmoi_mousse_chezmoi&#45;&gt;chezmoi_mousse_splash</title><style>.edge>path:hover{stroke-width:8}</style>
<path fill="none" stroke="silver" d="M238.92,-271.66C269.28,-259.84 310.68,-243.71 343.28,-231.01"/>
<polygon fill="#82ce3b" stroke="silver" points="344.5,-234.29 352.55,-227.4 341.96,-227.77 344.5,-234.29"/>
</g>
<!-- chezmoi_mousse_gui&#45;&gt;__main___py -->
<g id="edge5" class="edge">
<title>chezmoi_mousse_gui&#45;&gt;__main___py</title><style>.edge>path:hover{stroke-width:8}</style>
<path fill="none" stroke="silver" d="M250.77,-113.1C235.38,-103.98 221.49,-90.81 221.42,-73"/>
</g>
<!-- chezmoi_mousse_main_tabs&#45;&gt;chezmoi_mousse_gui -->
<g id="edge6" class="edge">
<title>chezmoi_mousse_main_tabs&#45;&gt;chezmoi_mousse_gui</title><style>.edge>path:hover{stroke-width:8}</style>
<path fill="none" stroke="silver" d="M221.14,-189.24C232.6,-179.83 246.54,-168.39 258.97,-158.19"/>
<polygon fill="#5a8137" stroke="silver" points="261.02,-161.03 266.53,-151.98 256.58,-155.62 261.02,-161.03"/>
</g>
<!-- chezmoi_mousse_splash&#45;&gt;chezmoi_mousse_gui -->
<g id="edge7" class="edge">
<title>chezmoi_mousse_splash&#45;&gt;chezmoi_mousse_gui</title><style>.edge>path:hover{stroke-width:8}</style>
<path fill="none" stroke="silver" d="M369.44,-189.44C356.41,-179.77 340.44,-167.93 326.36,-157.48"/>
<polygon fill="#507231" stroke="silver" points="328.75,-154.9 318.64,-151.76 324.58,-160.52 328.75,-154.9"/>
</g>
<!-- rich -->
<g id="node7" class="node">
<title>rich</title><style>.edge>path:hover{stroke-width:8}</style>
<ellipse fill="#06f5f9" stroke="silver" cx="292.42" cy="-601.8" rx="27" ry="18"/>
<text text-anchor="middle" x="292.42" y="-597.93" font-family="Helvetica,sans-Serif" font-size="10.00" fill="#000000">rich</text>
</g>
<!-- rich&#45;&gt;chezmoi_mousse_gui -->
<g id="edge8" class="edge">
<title>rich&#45;&gt;chezmoi_mousse_gui</title><style>.edge>path:hover{stroke-width:8}</style>
<path fill="none" stroke="silver" d="M265.39,-598.74C228.11,-594.67 160.42,-582.68 115.42,-547.8 42.02,-490.93 -21.1,-457.33 7.42,-368.97"/>
<path fill="none" stroke="silver" d="M7.42,-366.97C18.14,-330.29 52.63,-327.36 45.42,-289.83"/>
<path fill="none" stroke="silver" d="M45.42,-287.83C34.85,-232.85 76.79,-220.58 122.42,-188.13 140.14,-175.53 189.38,-159.71 230.17,-148"/>
<polygon fill="#06f5f9" stroke="silver" points="231.02,-151.4 239.68,-145.3 229.11,-144.66 231.02,-151.4"/>
</g>
<!-- rich&#45;&gt;chezmoi_mousse_main_tabs -->
<g id="edge9" class="edge">
<title>rich&#45;&gt;chezmoi_mousse_main_tabs</title><style>.edge>path:hover{stroke-width:8}</style>
<path fill="none" stroke="silver" d="M7.42,-366.97C22.19,-321.17 86.65,-337.85 83.42,-289.83"/>
<path fill="none" stroke="silver" d="M83.42,-287.83C81.44,-258.55 107.6,-239.61 135.35,-227.83"/>
<polygon fill="#06f5f9" stroke="silver" points="136.56,-231.12 144.6,-224.21 134.01,-224.6 136.56,-231.12"/>
</g>
<!-- rich&#45;&gt;chezmoi_mousse_splash -->
<g id="edge10" class="edge">
<title>rich&#45;&gt;chezmoi_mousse_splash</title><style>.edge>path:hover{stroke-width:8}</style>
<path fill="none" stroke="silver" d="M319.16,-598.49C363.81,-593.3 454.1,-576.97 509.42,-527.23"/>
<path fill="none" stroke="silver" d="M509.42,-525.23C552.63,-486.37 374.93,-344.23 395.42,-289.83"/>
</g>
<!-- textual -->
<g id="node11" class="node">
<title>textual</title><style>.edge>path:hover{stroke-width:8}</style>
<ellipse fill="#7e06ef" stroke="silver" cx="488.42" cy="-367.97" rx="27" ry="18"/>
<text text-anchor="middle" x="488.42" y="-364.09" font-family="Helvetica,sans-Serif" font-size="10.00" fill="#ffffff">textual</text>
</g>
<!-- rich&#45;&gt;textual -->
<g id="edge11" class="edge">
<title>rich&#45;&gt;textual</title><style>.edge>path:hover{stroke-width:8}</style>
<path fill="none" stroke="silver" d="M509.42,-525.23C544.63,-492.07 521.22,-430.23 503.34,-395.1"/>
<polygon fill="#06f5f9" stroke="silver" points="506.53,-393.65 498.75,-386.46 500.35,-396.93 506.53,-393.65"/>
</g>
<!-- textual_app -->
<g id="node12" class="node">
<title>textual_app</title><style>.edge>path:hover{stroke-width:8}</style>
<polygon fill="blue" stroke="silver" points="264.67,-465.1 202.17,-465.1 202.17,-429.1 264.67,-429.1 264.67,-465.1"/>
<text text-anchor="middle" x="233.42" y="-443.23" font-family="Helvetica,sans-Serif" font-size="10.00" fill="white">textual.app</text>
</g>
<!-- rich&#45;&gt;textual_app -->
<g id="edge12" class="edge">
<title>rich&#45;&gt;textual_app</title><style>.edge>path:hover{stroke-width:8}</style>
<path fill="none" stroke="silver" d="M294.14,-583.4C295.22,-568.4 295.84,-546.21 292.42,-527.23"/>
<path fill="none" stroke="silver" d="M292.42,-525.23C288.82,-505.31 275.62,-487.11 262.61,-473.39"/>
<polygon fill="#06f5f9" stroke="silver" points="265.26,-471.09 255.7,-466.53 260.33,-476.06 265.26,-471.09"/>
</g>
<!-- textual_screen -->
<g id="node15" class="node">
<title>textual_screen</title><style>.edge>path:hover{stroke-width:8}</style>
<polygon fill="blue" stroke="silver" points="329.42,-385.97 253.42,-385.97 253.42,-349.97 329.42,-349.97 329.42,-385.97"/>
<text text-anchor="middle" x="291.42" y="-364.09" font-family="Helvetica,sans-Serif" font-size="10.00" fill="white">textual.screen</text>
</g>
<!-- rich&#45;&gt;textual_screen -->
<g id="edge13" class="edge">
<title>rich&#45;&gt;textual_screen</title><style>.edge>path:hover{stroke-width:8}</style>
<path fill="none" stroke="silver" d="M292.42,-525.23C284.47,-481.16 286.35,-428.94 288.7,-397.42"/>
<polygon fill="#06f5f9" stroke="silver" points="292.18,-397.78 289.51,-387.53 285.2,-397.21 292.18,-397.78"/>
</g>
<!-- textual_scrollbar -->
<g id="node16" class="node">
<title>textual_scrollbar</title><style>.edge>path:hover{stroke-width:8}</style>
<ellipse fill="#6c4096" stroke="silver" cx="684.42" cy="-447.1" rx="37.3" ry="21.57"/>
<text text-anchor="middle" x="684.42" y="-448.85" font-family="Helvetica,sans-Serif" font-size="10.00" fill="#ffffff">textual.</text>
<text text-anchor="middle" x="684.42" y="-437.6" font-family="Helvetica,sans-Serif" font-size="10.00" fill="#ffffff">scrollbar</text>
</g>
<!-- rich&#45;&gt;textual_scrollbar -->
<g id="edge14" class="edge">
<title>rich&#45;&gt;textual_scrollbar</title><style>.edge>path:hover{stroke-width:8}</style>
<path fill="none" stroke="silver" d="M509.42,-525.23C546.04,-490.74 600.63,-470.05 639.08,-458.92"/>
<polygon fill="#06f5f9" stroke="silver" points="639.8,-462.35 648.5,-456.3 637.93,-455.6 639.8,-462.35"/>
</g>
<!-- rich_color -->
<g id="node8" class="node">
<title>rich_color</title><style>.edge>path:hover{stroke-width:8}</style>
<polygon fill="blue" stroke="silver" points="740.92,-619.8 685.92,-619.8 685.92,-583.8 740.92,-583.8 740.92,-619.8"/>
<text text-anchor="middle" x="713.42" y="-597.93" font-family="Helvetica,sans-Serif" font-size="10.00" fill="white">rich.color</text>
</g>
<!-- rich_color&#45;&gt;chezmoi_mousse_gui -->
<g id="edge15" class="edge">
<title>rich_color&#45;&gt;chezmoi_mousse_gui</title><style>.edge>path:hover{stroke-width:8}</style>
<path fill="none" stroke="silver" d="M711.42,-525.23C712.24,-487.03 744.92,-486.05 749.42,-448.1"/>
<path fill="none" stroke="silver" d="M749.42,-446.1C753.44,-412.06 744.5,-402.89 749.42,-368.97"/>
</g>
<!-- rich_style -->
<g id="node10" class="node">
<title>rich_style</title><style>.edge>path:hover{stroke-width:8}</style>
<polygon fill="blue" stroke="silver" points="649.54,-691.8 595.29,-691.8 595.29,-655.8 649.54,-655.8 649.54,-691.8"/>
<text text-anchor="middle" x="622.42" y="-669.93" font-family="Helvetica,sans-Serif" font-size="10.00" fill="white">rich.style</text>
</g>
<!-- rich_color&#45;&gt;textual_scrollbar -->
<g id="edge17" class="edge">
<title>rich_color&#45;&gt;textual_scrollbar</title><style>.edge>path:hover{stroke-width:8}</style>
<path fill="none" stroke="silver" d="M712.47,-583.56C711.77,-568.65 711,-546.52 711.42,-527.23"/>
<path fill="none" stroke="silver" d="M711.42,-525.23C711.76,-509.23 706.55,-492.35 700.63,-478.47"/>
<polygon fill="blue" stroke="silver" points="703.82,-477.04 696.44,-469.44 697.47,-479.98 703.82,-477.04"/>
</g>
<!-- rich_segment -->
<g id="node9" class="node">
<title>rich_segment</title><style>.edge>path:hover{stroke-width:8}</style>
<ellipse fill="#24ced0" stroke="silver" cx="587.42" cy="-601.8" rx="42.31" ry="18"/>
<text text-anchor="middle" x="587.42" y="-597.93" font-family="Helvetica,sans-Serif" font-size="10.00" fill="#000000">rich.segment</text>
</g>
<!-- rich_segment&#45;&gt;chezmoi_mousse_gui -->
<g id="edge18" class="edge">
<title>rich_segment&#45;&gt;chezmoi_mousse_gui</title><style>.edge>path:hover{stroke-width:8}</style>
<path fill="none" stroke="silver" d="M619.42,-366.97C612.87,-333.32 615.54,-323.9 619.42,-289.83"/>
</g>
<!-- rich_segment&#45;&gt;chezmoi_mousse_splash -->
<g id="edge19" class="edge">
<title>rich_segment&#45;&gt;chezmoi_mousse_splash</title><style>.edge>path:hover{stroke-width:8}</style>
<path fill="none" stroke="silver" d="M595.06,-583.62C601.64,-568.75 611.32,-546.65 619.42,-527.23"/>
<path fill="none" stroke="silver" d="M619.42,-525.23C646.15,-461.13 627.58,-437.94 619.42,-368.97"/>
<path fill="none" stroke="silver" d="M619.42,-366.97C612.12,-329.45 606.1,-319.01 581.42,-289.83"/>
</g>
<!-- rich_segment&#45;&gt;textual_app -->
<g id="edge20" class="edge">
<title>rich_segment&#45;&gt;textual_app</title><style>.edge>path:hover{stroke-width:8}</style>
<path fill="none" stroke="silver" d="M545.84,-598.23C496.77,-593.71 413.95,-581.36 351.42,-547.8 327,-534.7 327.39,-522.76 306.42,-504.67 293.62,-493.63 278.98,-482.09 266.19,-472.33"/>
<polygon fill="#24ced0" stroke="silver" points="268.55,-469.73 258.46,-466.49 264.33,-475.31 268.55,-469.73"/>
</g>
<!-- rich_segment&#45;&gt;textual_scrollbar -->
<g id="edge21" class="edge">
<title>rich_segment&#45;&gt;textual_scrollbar</title><style>.edge>path:hover{stroke-width:8}</style>
<path fill="none" stroke="silver" d="M619.42,-525.23C627.57,-505.69 642.52,-487.4 656.03,-473.54"/>
<polygon fill="#24ced0" stroke="silver" points="658.43,-476.09 663.1,-466.58 653.52,-471.1 658.43,-476.09"/>
</g>
<!-- rich_style&#45;&gt;chezmoi_mousse_gui -->
<g id="edge22" class="edge">
<title>rich_style&#45;&gt;chezmoi_mousse_gui</title><style>.edge>path:hover{stroke-width:8}</style>
<path fill="none" stroke="silver" d="M649.98,-670.15C680.43,-665.58 728.1,-653.2 750.42,-619.8 792.82,-556.35 740.44,-523.88 749.42,-448.1"/>
</g>
<!-- rich_style&#45;&gt;chezmoi_mousse_splash -->
<g id="edge23" class="edge">
<title>rich_style&#45;&gt;chezmoi_mousse_splash</title><style>.edge>path:hover{stroke-width:8}</style>
<path fill="none" stroke="silver" d="M594.92,-664.07C574.76,-656.06 548.81,-642 536.42,-619.8 500.34,-555.19 629.21,-346.34 581.42,-289.83"/>
<path fill="none" stroke="silver" d="M581.42,-287.83C551.47,-253.53 503.85,-234.17 464.29,-223.42"/>
<polygon fill="blue" stroke="silver" points="465.38,-220.09 454.83,-220.99 463.64,-226.87 465.38,-220.09"/>
</g>
<!-- rich_style&#45;&gt;rich_color -->
<g id="edge24" class="edge">
<title>rich_style&#45;&gt;rich_color</title><style>.edge>path:hover{stroke-width:8}</style>
<path fill="none" stroke="silver" d="M653.86,-648.61C662.9,-641.66 672.75,-634.08 681.8,-627.12"/>
<polygon fill="blue" stroke="silver" points="651.9,-645.7 646.11,-654.57 656.17,-651.25 651.9,-645.7"/>
<polygon fill="blue" stroke="silver" points="683.87,-629.94 689.66,-621.07 679.6,-624.39 683.87,-629.94"/>
</g>
<!-- rich_style&#45;&gt;rich_segment -->
<g id="edge25" class="edge">
<title>rich_style&#45;&gt;rich_segment</title><style>.edge>path:hover{stroke-width:8}</style>
<path fill="none" stroke="silver" d="M613.76,-655.5C609.95,-647.87 605.37,-638.72 601.11,-630.2"/>
<polygon fill="blue" stroke="silver" points="604.25,-628.64 596.64,-621.26 597.99,-631.77 604.25,-628.64"/>
</g>
<!-- rich_style&#45;&gt;textual_screen -->
<g id="edge26" class="edge">
<title>rich_style&#45;&gt;textual_screen</title><style>.edge>path:hover{stroke-width:8}</style>
<path fill="none" stroke="silver" d="M595.1,-671.89C533.34,-669.18 378.78,-658.72 256.42,-619.8 189.36,-598.47 152.15,-607.81 115.42,-547.8 74.56,-481.06 177.7,-419.93 242.87,-389.39"/>
<polygon fill="blue" stroke="silver" points="243.97,-392.74 251.6,-385.39 241.05,-386.38 243.97,-392.74"/>
</g>
<!-- rich_style&#45;&gt;textual_scrollbar -->
<g id="edge27" class="edge">
<title>rich_style&#45;&gt;textual_scrollbar</title><style>.edge>path:hover{stroke-width:8}</style>
<path fill="none" stroke="silver" d="M627.74,-655.66C630.92,-645.3 634.99,-631.82 638.42,-619.8 652.31,-571 667.33,-514.06 676.3,-479.57"/>
<polygon fill="blue" stroke="silver" points="679.6,-480.8 678.72,-470.24 672.82,-479.04 679.6,-480.8"/>
</g>
<!-- textual&#45;&gt;chezmoi_mousse_gui -->
<g id="edge28" class="edge">
<title>textual&#45;&gt;chezmoi_mousse_gui</title><style>.edge>path:hover{stroke-width:8}</style>
<path fill="none" stroke="silver" d="M543.42,-287.83C547.75,-239.9 655.47,-242.58 619.42,-210.7"/>
<path fill="none" stroke="silver" d="M619.42,-208.7C582.07,-175.68 449.1,-152.44 364.36,-140.6"/>
<polygon fill="#7e06ef" stroke="silver" points="364.88,-137.13 354.49,-139.24 363.92,-144.07 364.88,-137.13"/>
</g>
<!-- textual&#45;&gt;chezmoi_mousse_main_tabs -->
<g id="edge29" class="edge">
<title>textual&#45;&gt;chezmoi_mousse_main_tabs</title><style>.edge>path:hover{stroke-width:8}</style>
<path fill="none" stroke="silver" d="M464.05,-359.75C448.53,-355.37 427.93,-349.96 409.42,-346.4 337.21,-332.53 88.2,-363.2 83.42,-289.83"/>
</g>
<!-- textual&#45;&gt;chezmoi_mousse_splash -->
<g id="edge30" class="edge">
<title>textual&#45;&gt;chezmoi_mousse_splash</title><style>.edge>path:hover{stroke-width:8}</style>
<path fill="none" stroke="silver" d="M505.11,-353.35C520.41,-339.33 541.06,-315.88 543.42,-289.83"/>
<path fill="none" stroke="silver" d="M543.42,-287.83C546.88,-249.59 507.08,-230.27 467.89,-220.53"/>
<polygon fill="#7e06ef" stroke="silver" points="468.9,-217.17 458.37,-218.36 467.35,-223.99 468.9,-217.17"/>
</g>
<!-- textual_app&#45;&gt;chezmoi_mousse_gui -->
<g id="edge31" class="edge">
<title>textual_app&#45;&gt;chezmoi_mousse_gui</title><style>.edge>path:hover{stroke-width:8}</style>
<path fill="none" stroke="silver" d="M232.38,-428.77C231.8,-408.26 232.91,-373.49 244.42,-346.4 257.19,-316.31 285,-321.88 291.42,-289.83"/>
<path fill="none" stroke="silver" d="M291.42,-287.83C296.85,-253.99 282.34,-243.76 291.42,-210.7"/>
</g>
<!-- textual_app&#45;&gt;chezmoi_mousse_main_tabs -->
<g id="edge32" class="edge">
<title>textual_app&#45;&gt;chezmoi_mousse_main_tabs</title><style>.edge>path:hover{stroke-width:8}</style>
<path fill="none" stroke="silver" d="M201.86,-441.13C171.62,-434.64 127.05,-420.27 102.42,-389.53 74.2,-354.34 86.35,-334.85 83.42,-289.83"/>
</g>
<!-- textual_app&#45;&gt;chezmoi_mousse_splash -->
<g id="edge33" class="edge">
<title>textual_app&#45;&gt;chezmoi_mousse_splash</title><style>.edge>path:hover{stroke-width:8}</style>
<path fill="none" stroke="silver" d="M264.81,-434.65C287.36,-425.22 317.36,-410.06 338.42,-389.53 374.96,-353.9 377.5,-337.63 395.42,-289.83"/>
</g>
<!-- textual_app&#45;&gt;textual_screen -->
<g id="edge34" class="edge">
<title>textual_app&#45;&gt;textual_screen</title><style>.edge>path:hover{stroke-width:8}</style>
<path fill="none" stroke="silver" d="M252.97,-420.09C258.99,-412.09 265.61,-403.28 271.64,-395.26"/>
<polygon fill="blue" stroke="silver" points="250.41,-417.68 247.2,-427.77 256,-421.88 250.41,-417.68"/>
<polygon fill="blue" stroke="silver" points="274.26,-397.61 277.47,-387.51 268.66,-393.4 274.26,-397.61"/>
</g>
<!-- textual_containers -->
<g id="node13" class="node">
<title>textual_containers</title><style>.edge>path:hover{stroke-width:8}</style>
<ellipse fill="#8233cc" stroke="silver" cx="154.42" cy="-367.97" rx="43.13" ry="21.57"/>
<text text-anchor="middle" x="154.42" y="-369.72" font-family="Helvetica,sans-Serif" font-size="10.00" fill="#ffffff">textual.</text>
<text text-anchor="middle" x="154.42" y="-358.47" font-family="Helvetica,sans-Serif" font-size="10.00" fill="#ffffff">containers</text>
</g>
<!-- textual_containers&#45;&gt;chezmoi_mousse_gui -->
<g id="edge35" class="edge">
<title>textual_containers&#45;&gt;chezmoi_mousse_gui</title><style>.edge>path:hover{stroke-width:8}</style>
<path fill="none" stroke="silver" d="M117.59,-356.38C87.99,-345.36 50.52,-324.7 45.42,-289.83"/>
</g>
<!-- textual_containers&#45;&gt;chezmoi_mousse_main_tabs -->
<g id="edge36" class="edge">
<title>textual_containers&#45;&gt;chezmoi_mousse_main_tabs</title><style>.edge>path:hover{stroke-width:8}</style>
<path fill="none" stroke="silver" d="M126.92,-350.89C107.68,-337.42 85.13,-316.17 83.42,-289.83"/>
</g>
<!-- textual_containers&#45;&gt;chezmoi_mousse_splash -->
<g id="edge37" class="edge">
<title>textual_containers&#45;&gt;chezmoi_mousse_splash</title><style>.edge>path:hover{stroke-width:8}</style>
<path fill="none" stroke="silver" d="M193.27,-358C259.57,-342.22 388.11,-309.32 395.42,-289.83"/>
<path fill="none" stroke="silver" d="M395.42,-287.83C400.7,-273.73 401.34,-257.12 400.4,-242.94"/>
<polygon fill="#8233cc" stroke="silver" points="403.9,-242.82 399.45,-233.21 396.94,-243.5 403.9,-242.82"/>
</g>
<!-- textual_lazy -->
<g id="node14" class="node">
<title>textual_lazy</title><style>.edge>path:hover{stroke-width:8}</style>
<ellipse fill="#814cb3" stroke="silver" cx="684.42" cy="-288.83" rx="37.42" ry="18"/>
<text text-anchor="middle" x="684.42" y="-284.96" font-family="Helvetica,sans-Serif" font-size="10.00" fill="#ffffff">textual.lazy</text>
</g>
<!-- textual_lazy&#45;&gt;chezmoi_mousse_gui -->
<g id="edge38" class="edge">
<title>textual_lazy&#45;&gt;chezmoi_mousse_gui</title><style>.edge>path:hover{stroke-width:8}</style>
<path fill="none" stroke="silver" d="M672.7,-271.26C660.55,-254.75 640.41,-229.26 619.42,-210.7"/>
</g>
<!-- textual_screen&#45;&gt;chezmoi_mousse_gui -->
<g id="edge39" class="edge">
<title>textual_screen&#45;&gt;chezmoi_mousse_gui</title><style>.edge>path:hover{stroke-width:8}</style>
<path fill="none" stroke="silver" d="M289.49,-349.62C288.19,-333.86 287.37,-310.06 291.42,-289.83"/>
</g>
<!-- textual_screen&#45;&gt;chezmoi_mousse_main_tabs -->
<g id="edge40" class="edge">
<title>textual_screen&#45;&gt;chezmoi_mousse_main_tabs</title><style>.edge>path:hover{stroke-width:8}</style>
<path fill="none" stroke="silver" d="M253.04,-356.69C193.27,-340.15 84.58,-307.66 83.42,-289.83"/>
</g>
<!-- textual_screen&#45;&gt;chezmoi_mousse_splash -->
<g id="edge41" class="edge">
<title>textual_screen&#45;&gt;chezmoi_mousse_splash</title><style>.edge>path:hover{stroke-width:8}</style>
<path fill="none" stroke="silver" d="M329.86,-351.69C354.73,-339.32 384.45,-319.09 395.42,-289.83"/>
</g>
<!-- textual_scrollbar&#45;&gt;chezmoi_mousse_gui -->
<g id="edge43" class="edge">
<title>textual_scrollbar&#45;&gt;chezmoi_mousse_gui</title><style>.edge>path:hover{stroke-width:8}</style>
<path fill="none" stroke="silver" d="M707.02,-429.79C723.74,-415.91 744.43,-394.22 749.42,-368.97"/>
<path fill="none" stroke="silver" d="M749.42,-366.97C758.15,-322.71 757.49,-303.34 730.42,-267.27 697.18,-222.98 660.9,-247.38 619.42,-210.7"/>
</g>
<!-- textual_theme -->
<g id="node17" class="node">
<title>textual_theme</title><style>.edge>path:hover{stroke-width:8}</style>
<ellipse fill="#8240c0" stroke="silver" cx="168.42" cy="-526.23" rx="43.64" ry="18"/>
<text text-anchor="middle" x="168.42" y="-522.36" font-family="Helvetica,sans-Serif" font-size="10.00" fill="#ffffff">textual.theme</text>
</g>
<!-- textual_theme&#45;&gt;chezmoi_mousse_gui -->
<g id="edge44" class="edge">
<title>textual_theme&#45;&gt;chezmoi_mousse_gui</title><style>.edge>path:hover{stroke-width:8}</style>
<path fill="none" stroke="silver" d="M154.81,-508.92C125.66,-472.51 58.7,-380.63 45.42,-289.83"/>
</g>
<!-- textual_theme&#45;&gt;textual_app -->
<g id="edge45" class="edge">
<title>textual_theme&#45;&gt;textual_app</title><style>.edge>path:hover{stroke-width:8}</style>
<path fill="none" stroke="silver" d="M182.2,-508.88C190.67,-498.83 201.71,-485.73 211.37,-474.26"/>
<polygon fill="#8240c0" stroke="silver" points="214,-476.57 217.77,-466.66 208.65,-472.06 214,-476.57"/>
</g>
<!-- textual_widgets -->
<g id="node18" class="node">
<title>textual_widgets</title><style>.edge>path:hover{stroke-width:8}</style>
<ellipse fill="#7e0ce9" stroke="silver" cx="395.42" cy="-526.23" rx="35.18" ry="21.57"/>
<text text-anchor="middle" x="395.42" y="-527.98" font-family="Helvetica,sans-Serif" font-size="10.00" fill="#ffffff">textual.</text>
<text text-anchor="middle" x="395.42" y="-516.73" font-family="Helvetica,sans-Serif" font-size="10.00" fill="#ffffff">widgets</text>
</g>
<!-- textual_widgets&#45;&gt;chezmoi_mousse_gui -->
<g id="edge46" class="edge">
<title>textual_widgets&#45;&gt;chezmoi_mousse_gui</title><style>.edge>path:hover{stroke-width:8}</style>
<path fill="none" stroke="silver" d="M420.88,-511.23C474.18,-480 594.62,-398.75 619.42,-289.83"/>
<path fill="none" stroke="silver" d="M619.42,-287.83C623.29,-253.77 644.84,-233.7 619.42,-210.7"/>
</g>
<!-- textual_widgets&#45;&gt;chezmoi_mousse_main_tabs -->
<g id="edge47" class="edge">
<title>textual_widgets&#45;&gt;chezmoi_mousse_main_tabs</title><style>.edge>path:hover{stroke-width:8}</style>
<path fill="none" stroke="silver" d="M395.42,-446.1C385.59,-413.26 413.35,-398.18 395.42,-368.97"/>
<path fill="none" stroke="silver" d="M395.42,-366.97C320.67,-245.24 93.02,-432.35 83.42,-289.83"/>
</g>
<!-- textual_widgets&#45;&gt;chezmoi_mousse_splash -->
<g id="edge48" class="edge">
<title>textual_widgets&#45;&gt;chezmoi_mousse_splash</title><style>.edge>path:hover{stroke-width:8}</style>
<path fill="none" stroke="silver" d="M395.42,-366.97C377.48,-337.75 383.34,-321.92 395.42,-289.83"/>
</g>
<!-- textual_widgets&#45;&gt;textual_app -->
<g id="edge49" class="edge">
<title>textual_widgets&#45;&gt;textual_app</title><style>.edge>path:hover{stroke-width:8}</style>
<path fill="none" stroke="silver" d="M368.3,-512.32C342.95,-500.25 304.71,-482.05 275.42,-468.1"/>
<polygon fill="#7e0ce9" stroke="silver" points="276.97,-464.96 266.43,-463.82 273.96,-471.28 276.97,-464.96"/>
</g>
<!-- textual_widgets&#45;&gt;textual_screen -->
<g id="edge50" class="edge">
<title>textual_widgets&#45;&gt;textual_screen</title><style>.edge>path:hover{stroke-width:8}</style>
<path fill="none" stroke="silver" d="M398.59,-504.47C400.25,-488.67 400.94,-466.58 395.42,-448.1"/>
<path fill="none" stroke="silver" d="M395.42,-446.1C387.47,-419.56 363.07,-400.69 339.9,-388.26"/>
<polygon fill="#7e0ce9" stroke="silver" points="341.61,-385.21 331.1,-383.85 338.47,-391.46 341.61,-385.21"/>
</g>
</g>
</svg>
