<?xml version="1.0" encoding="UTF-8" standalone="no"?>
<!DOCTYPE svg PUBLIC "-//W3C//DTD SVG 1.1//EN"
 "http://www.w3.org/Graphics/SVG/1.1/DTD/svg11.dtd">
<!-- Generated by graphviz version 12.2.1 (0)
 -->
<!-- Title: G Pages: 1 -->
<svg width="803pt" height="700pt"
 viewBox="0.00 0.00 803.30 699.80" xmlns="http://www.w3.org/2000/svg" xmlns:xlink="http://www.w3.org/1999/xlink">
<g id="graph0" class="graph" transform="scale(1 1) rotate(0) translate(4 695.8)">
<title>G</title><style>.edge>path:hover{stroke-width:8}</style>
<polygon fill="black" stroke="none" points="-4,4 -4,-695.8 799.3,-695.8 799.3,4 -4,4"/>
<!-- __main___py -->
<g id="node1" class="node">
<title>__main___py</title><style>.edge>path:hover{stroke-width:8}</style>
<ellipse fill="#9f5756" stroke="silver" cx="308.03" cy="-18" rx="41.42" ry="18"/>
<text text-anchor="middle" x="308.03" y="-14.12" font-family="Helvetica,sans-Serif" font-size="10.00" fill="#ffffff">__main__.py</text>
</g>
<!-- chezmoi_mousse -->
<g id="node2" class="node">
<title>chezmoi_mousse</title><style>.edge>path:hover{stroke-width:8}</style>
<ellipse fill="#82db2f" stroke="silver" cx="239.03" cy="-130.57" rx="54.29" ry="18"/>
<text text-anchor="middle" x="239.03" y="-126.69" font-family="Helvetica,sans-Serif" font-size="10.00" fill="#000000">chezmoi_mousse</text>
</g>
<!-- chezmoi_mousse&#45;&gt;__main___py -->
<g id="edge1" class="edge">
<title>chezmoi_mousse&#45;&gt;__main___py</title><style>.edge>path:hover{stroke-width:8}</style>
<path fill="none" stroke="silver" d="M273.19,-116.37C290.59,-107.19 308.12,-92.98 308.03,-73"/>
<path fill="none" stroke="silver" d="M308.03,-72C308,-64.06 307.98,-55.44 307.99,-47.52"/>
<polygon fill="#82db2f" stroke="silver" points="311.48,-47.7 307.99,-37.7 304.48,-47.7 311.48,-47.7"/>
</g>
<!-- chezmoi_mousse_chezmoi -->
<g id="node3" class="node">
<title>chezmoi_mousse_chezmoi</title><style>.edge>path:hover{stroke-width:8}</style>
<ellipse fill="#82ce3b" stroke="silver" cx="208.03" cy="-288.83" rx="66.47" ry="21.57"/>
<text text-anchor="middle" x="208.03" y="-290.58" font-family="Helvetica,sans-Serif" font-size="10.00" fill="#000000">chezmoi_mousse.</text>
<text text-anchor="middle" x="208.03" y="-279.33" font-family="Helvetica,sans-Serif" font-size="10.00" fill="#000000">chezmoi</text>
</g>
<!-- chezmoi_mousse_gui -->
<g id="node4" class="node">
<title>chezmoi_mousse_gui</title><style>.edge>path:hover{stroke-width:8}</style>
<ellipse fill="#4b6b2e" stroke="silver" cx="378.03" cy="-130.57" rx="66.47" ry="21.57"/>
<text text-anchor="middle" x="378.03" y="-132.32" font-family="Helvetica,sans-Serif" font-size="10.00" fill="#ffffff">chezmoi_mousse.</text>
<text text-anchor="middle" x="378.03" y="-121.07" font-family="Helvetica,sans-Serif" font-size="10.00" fill="#ffffff">gui</text>
</g>
<!-- chezmoi_mousse_chezmoi&#45;&gt;chezmoi_mousse_gui -->
<g id="edge2" class="edge">
<title>chezmoi_mousse_chezmoi&#45;&gt;chezmoi_mousse_gui</title><style>.edge>path:hover{stroke-width:8}</style>
<path fill="none" stroke="silver" d="M233.32,-268.61C250.21,-254.42 271.54,-233.65 284.03,-210.7"/>
<path fill="none" stroke="silver" d="M284.03,-208.7C295.86,-186.97 316.56,-168.97 335.53,-155.84"/>
<polygon fill="#82ce3b" stroke="silver" points="337.27,-158.88 343.68,-150.44 333.41,-153.04 337.27,-158.88"/>
</g>
<!-- chezmoi_mousse_main_tabs -->
<g id="node5" class="node">
<title>chezmoi_mousse_main_tabs</title><style>.edge>path:hover{stroke-width:8}</style>
<ellipse fill="#5a8137" stroke="silver" cx="142.03" cy="-209.7" rx="66.47" ry="21.57"/>
<text text-anchor="middle" x="142.03" y="-211.45" font-family="Helvetica,sans-Serif" font-size="10.00" fill="#ffffff">chezmoi_mousse.</text>
<text text-anchor="middle" x="142.03" y="-200.2" font-family="Helvetica,sans-Serif" font-size="10.00" fill="#ffffff">main_tabs</text>
</g>
<!-- chezmoi_mousse_chezmoi&#45;&gt;chezmoi_mousse_main_tabs -->
<g id="edge3" class="edge">
<title>chezmoi_mousse_chezmoi&#45;&gt;chezmoi_mousse_main_tabs</title><style>.edge>path:hover{stroke-width:8}</style>
<path fill="none" stroke="silver" d="M190.69,-267.57C183.34,-258.98 174.64,-248.81 166.64,-239.46"/>
<polygon fill="#82ce3b" stroke="silver" points="169.4,-237.3 160.24,-231.98 164.08,-241.85 169.4,-237.3"/>
</g>
<!-- chezmoi_mousse_splash -->
<g id="node6" class="node">
<title>chezmoi_mousse_splash</title><style>.edge>path:hover{stroke-width:8}</style>
<ellipse fill="#507231" stroke="silver" cx="378.03" cy="-209.7" rx="66.47" ry="21.57"/>
<text text-anchor="middle" x="378.03" y="-211.45" font-family="Helvetica,sans-Serif" font-size="10.00" fill="#ffffff">chezmoi_mousse.</text>
<text text-anchor="middle" x="378.03" y="-200.2" font-family="Helvetica,sans-Serif" font-size="10.00" fill="#ffffff">splash</text>
</g>
<!-- chezmoi_mousse_chezmoi&#45;&gt;chezmoi_mousse_splash -->
<g id="edge4" class="edge">
<title>chezmoi_mousse_chezmoi&#45;&gt;chezmoi_mousse_splash</title><style>.edge>path:hover{stroke-width:8}</style>
<path fill="none" stroke="silver" d="M245.76,-270.72C270.63,-259.43 303.42,-244.55 330.13,-232.44"/>
<polygon fill="#82ce3b" stroke="silver" points="331.37,-235.72 339.03,-228.4 328.48,-229.34 331.37,-235.72"/>
</g>
<!-- chezmoi_mousse_gui&#45;&gt;__main___py -->
<g id="edge5" class="edge">
<title>chezmoi_mousse_gui&#45;&gt;__main___py</title><style>.edge>path:hover{stroke-width:8}</style>
<path fill="none" stroke="silver" d="M337.38,-113.1C322,-103.98 308.11,-90.81 308.03,-73"/>
</g>
<!-- chezmoi_mousse_main_tabs&#45;&gt;chezmoi_mousse_gui -->
<g id="edge6" class="edge">
<title>chezmoi_mousse_main_tabs&#45;&gt;chezmoi_mousse_gui</title><style>.edge>path:hover{stroke-width:8}</style>
<path fill="none" stroke="silver" d="M187.81,-193.74C226,-181.26 280.58,-163.42 321.49,-150.05"/>
<polygon fill="#5a8137" stroke="silver" points="322.52,-153.39 330.94,-146.96 320.34,-146.74 322.52,-153.39"/>
</g>
<!-- chezmoi_mousse_splash&#45;&gt;chezmoi_mousse_gui -->
<g id="edge7" class="edge">
<title>chezmoi_mousse_splash&#45;&gt;chezmoi_mousse_gui</title><style>.edge>path:hover{stroke-width:8}</style>
<path fill="none" stroke="silver" d="M378.03,-188.03C378.03,-180.65 378.03,-172.16 378.03,-164.03"/>
<polygon fill="#507231" stroke="silver" points="381.53,-164.08 378.03,-154.08 374.53,-164.08 381.53,-164.08"/>
</g>
<!-- chezmoi_mousse_theme -->
<g id="node7" class="node">
<title>chezmoi_mousse_theme</title><style>.edge>path:hover{stroke-width:8}</style>
<ellipse fill="#79ac49" stroke="silver" cx="566.03" cy="-209.7" rx="66.47" ry="21.57"/>
<text text-anchor="middle" x="566.03" y="-211.45" font-family="Helvetica,sans-Serif" font-size="10.00" fill="#000000">chezmoi_mousse.</text>
<text text-anchor="middle" x="566.03" y="-200.2" font-family="Helvetica,sans-Serif" font-size="10.00" fill="#000000">theme</text>
</g>
<!-- chezmoi_mousse_theme&#45;&gt;chezmoi_mousse_gui -->
<g id="edge8" class="edge">
<title>chezmoi_mousse_theme&#45;&gt;chezmoi_mousse_gui</title><style>.edge>path:hover{stroke-width:8}</style>
<path fill="none" stroke="silver" d="M525.7,-192.15C497.32,-180.51 459.14,-164.84 428.71,-152.36"/>
<polygon fill="#79ac49" stroke="silver" points="430.27,-149.22 419.69,-148.66 427.62,-155.69 430.27,-149.22"/>
</g>
<!-- rich -->
<g id="node8" class="node">
<title>rich</title><style>.edge>path:hover{stroke-width:8}</style>
<ellipse fill="#06f5f9" stroke="silver" cx="222.03" cy="-601.8" rx="27" ry="18"/>
<text text-anchor="middle" x="222.03" y="-597.93" font-family="Helvetica,sans-Serif" font-size="10.00" fill="#000000">rich</text>
</g>
<!-- rich&#45;&gt;chezmoi_mousse_gui -->
<g id="edge9" class="edge">
<title>rich&#45;&gt;chezmoi_mousse_gui</title><style>.edge>path:hover{stroke-width:8}</style>
<path fill="none" stroke="silver" d="M196.13,-595.8C137.57,-582.84 0.03,-542.36 0.03,-448.1 0.03,-448.1 0.03,-448.1 0.03,-366.97 0.03,-294.31 -0.45,-264.81 48.03,-210.7"/>
<path fill="none" stroke="silver" d="M48.03,-208.7C56.16,-199.28 56.04,-193.97 67.03,-188.13 160.33,-138.55 198.65,-173.97 302.03,-152.13 307.49,-150.98 313.14,-149.67 318.79,-148.29"/>
<polygon fill="#06f5f9" stroke="silver" points="319.28,-151.77 328.11,-145.92 317.55,-144.99 319.28,-151.77"/>
</g>
<!-- rich&#45;&gt;chezmoi_mousse_main_tabs -->
<g id="edge10" class="edge">
<title>rich&#45;&gt;chezmoi_mousse_main_tabs</title><style>.edge>path:hover{stroke-width:8}</style>
<path fill="none" stroke="silver" d="M206.57,-586.93C195.79,-576.77 181.52,-562.27 171.03,-547.8 141.57,-507.17 128.79,-497.12 118.03,-448.1"/>
<path fill="none" stroke="silver" d="M118.03,-446.1C104.14,-416.51 83.86,-419.6 71.03,-389.53 49.65,-339.42 36.98,-315.66 62.03,-267.27 69.13,-253.54 81.27,-242.44 93.97,-233.82"/>
<polygon fill="#06f5f9" stroke="silver" points="95.82,-236.79 102.44,-228.51 92.11,-230.86 95.82,-236.79"/>
</g>
<!-- rich&#45;&gt;chezmoi_mousse_splash -->
<g id="edge11" class="edge">
<title>rich&#45;&gt;chezmoi_mousse_splash</title><style>.edge>path:hover{stroke-width:8}</style>
<path fill="none" stroke="silver" d="M240.88,-588.53C258.7,-575.69 284.24,-553.73 295.03,-527.23"/>
<path fill="none" stroke="silver" d="M295.03,-525.23C306.64,-496.72 264.36,-498.01 255.03,-468.67 249.22,-450.4 244.03,-441.24 255.03,-425.53 289.55,-376.25 356.65,-425.21 378.03,-368.97"/>
<path fill="none" stroke="silver" d="M378.03,-366.97C389.6,-334.7 368.65,-322.81 378.03,-289.83"/>
</g>
<!-- textual -->
<g id="node12" class="node">
<title>textual</title><style>.edge>path:hover{stroke-width:8}</style>
<ellipse fill="#7e06ef" stroke="silver" cx="433.03" cy="-367.97" rx="27" ry="18"/>
<text text-anchor="middle" x="433.03" y="-364.09" font-family="Helvetica,sans-Serif" font-size="10.00" fill="#ffffff">textual</text>
</g>
<!-- rich&#45;&gt;textual -->
<g id="edge12" class="edge">
<title>rich&#45;&gt;textual</title><style>.edge>path:hover{stroke-width:8}</style>
<path fill="none" stroke="silver" d="M295.03,-525.23C307.59,-494.17 374.17,-426.29 410.06,-391.11"/>
<polygon fill="#06f5f9" stroke="silver" points="412.26,-393.86 416.97,-384.37 407.37,-388.84 412.26,-393.86"/>
</g>
<!-- textual_app -->
<g id="node13" class="node">
<title>textual_app</title><style>.edge>path:hover{stroke-width:8}</style>
<polygon fill="blue" stroke="silver" points="326.28,-465.1 263.78,-465.1 263.78,-429.1 326.28,-429.1 326.28,-465.1"/>
<text text-anchor="middle" x="295.03" y="-443.23" font-family="Helvetica,sans-Serif" font-size="10.00" fill="white">textual.app</text>
</g>
<!-- rich&#45;&gt;textual_app -->
<g id="edge13" class="edge">
<title>rich&#45;&gt;textual_app</title><style>.edge>path:hover{stroke-width:8}</style>
<path fill="none" stroke="silver" d="M295.03,-525.23C301.21,-509.95 301.44,-491.53 300.02,-476.53"/>
<polygon fill="#06f5f9" stroke="silver" points="303.53,-476.33 298.8,-466.85 296.58,-477.21 303.53,-476.33"/>
</g>
<!-- textual_screen -->
<g id="node16" class="node">
<title>textual_screen</title><style>.edge>path:hover{stroke-width:8}</style>
<polygon fill="blue" stroke="silver" points="156.03,-385.97 80.03,-385.97 80.03,-349.97 156.03,-349.97 156.03,-385.97"/>
<text text-anchor="middle" x="118.03" y="-364.09" font-family="Helvetica,sans-Serif" font-size="10.00" fill="white">textual.screen</text>
</g>
<!-- rich&#45;&gt;textual_screen -->
<g id="edge14" class="edge">
<title>rich&#45;&gt;textual_screen</title><style>.edge>path:hover{stroke-width:8}</style>
<path fill="none" stroke="silver" d="M118.03,-446.1C114.58,-430.36 114.37,-412.38 115.12,-397.74"/>
<polygon fill="#06f5f9" stroke="silver" points="118.6,-398.08 115.82,-387.86 111.62,-397.59 118.6,-398.08"/>
</g>
<!-- textual_scrollbar -->
<g id="node17" class="node">
<title>textual_scrollbar</title><style>.edge>path:hover{stroke-width:8}</style>
<ellipse fill="#6c4096" stroke="silver" cx="725.03" cy="-447.1" rx="37.3" ry="21.57"/>
<text text-anchor="middle" x="725.03" y="-448.85" font-family="Helvetica,sans-Serif" font-size="10.00" fill="#ffffff">textual.</text>
<text text-anchor="middle" x="725.03" y="-437.6" font-family="Helvetica,sans-Serif" font-size="10.00" fill="#ffffff">scrollbar</text>
</g>
<!-- rich&#45;&gt;textual_scrollbar -->
<g id="edge15" class="edge">
<title>rich&#45;&gt;textual_scrollbar</title><style>.edge>path:hover{stroke-width:8}</style>
<path fill="none" stroke="silver" d="M249.25,-599.26C325.64,-594.6 540.5,-578.98 603.03,-547.8 627.25,-535.72 625.4,-522.19 646.03,-504.67 660.37,-492.48 677.22,-480.18 691.66,-470.17"/>
<polygon fill="#06f5f9" stroke="silver" points="693.23,-473.34 699.5,-464.8 689.28,-467.56 693.23,-473.34"/>
</g>
<!-- rich_color -->
<g id="node9" class="node">
<title>rich_color</title><style>.edge>path:hover{stroke-width:8}</style>
<polygon fill="blue" stroke="silver" points="761.53,-619.8 706.53,-619.8 706.53,-583.8 761.53,-583.8 761.53,-619.8"/>
<text text-anchor="middle" x="734.03" y="-597.93" font-family="Helvetica,sans-Serif" font-size="10.00" fill="white">rich.color</text>
</g>
<!-- rich_color&#45;&gt;chezmoi_mousse_gui -->
<g id="edge16" class="edge">
<title>rich_color&#45;&gt;chezmoi_mousse_gui</title><style>.edge>path:hover{stroke-width:8}</style>
<path fill="none" stroke="silver" d="M752.03,-525.23C757.8,-487.46 785.54,-486.05 790.03,-448.1"/>
<path fill="none" stroke="silver" d="M790.03,-446.1C794.06,-412.06 785.11,-402.89 790.03,-368.97"/>
</g>
<!-- rich_style -->
<g id="node11" class="node">
<title>rich_style</title><style>.edge>path:hover{stroke-width:8}</style>
<polygon fill="blue" stroke="silver" points="670.16,-691.8 615.91,-691.8 615.91,-655.8 670.16,-655.8 670.16,-691.8"/>
<text text-anchor="middle" x="643.03" y="-669.93" font-family="Helvetica,sans-Serif" font-size="10.00" fill="white">rich.style</text>
</g>
<!-- rich_color&#45;&gt;textual_scrollbar -->
<g id="edge18" class="edge">
<title>rich_color&#45;&gt;textual_scrollbar</title><style>.edge>path:hover{stroke-width:8}</style>
<path fill="none" stroke="silver" d="M739.2,-583.44C743.38,-568.64 749.05,-546.73 752.03,-527.23"/>
<path fill="none" stroke="silver" d="M752.03,-525.23C754.51,-509.03 749.25,-491.74 742.73,-477.64"/>
<polygon fill="blue" stroke="silver" points="745.94,-476.24 738.29,-468.91 739.7,-479.41 745.94,-476.24"/>
</g>
<!-- rich_segment -->
<g id="node10" class="node">
<title>rich_segment</title><style>.edge>path:hover{stroke-width:8}</style>
<ellipse fill="#24ced0" stroke="silver" cx="608.03" cy="-601.8" rx="42.31" ry="18"/>
<text text-anchor="middle" x="608.03" y="-597.93" font-family="Helvetica,sans-Serif" font-size="10.00" fill="#000000">rich.segment</text>
</g>
<!-- rich_segment&#45;&gt;chezmoi_mousse_gui -->
<g id="edge19" class="edge">
<title>rich_segment&#45;&gt;chezmoi_mousse_gui</title><style>.edge>path:hover{stroke-width:8}</style>
<path fill="none" stroke="silver" d="M621.42,-584.31C632.71,-569.87 648.79,-548 660.03,-527.23"/>
<path fill="none" stroke="silver" d="M660.03,-525.23C676.67,-494.5 686.71,-233.28 660.03,-210.7"/>
</g>
<!-- rich_segment&#45;&gt;chezmoi_mousse_splash -->
<g id="edge20" class="edge">
<title>rich_segment&#45;&gt;chezmoi_mousse_splash</title><style>.edge>path:hover{stroke-width:8}</style>
<path fill="none" stroke="silver" d="M478.03,-525.23C469.93,-519.46 469.59,-356.33 469.03,-346.4 467.03,-311.22 481.73,-297.74 464.03,-267.27 455.65,-252.83 441.93,-241.39 427.88,-232.69"/>
<polygon fill="#24ced0" stroke="silver" points="429.89,-229.81 419.48,-227.86 426.4,-235.88 429.89,-229.81"/>
</g>
<!-- rich_segment&#45;&gt;textual_app -->
<g id="edge21" class="edge">
<title>rich_segment&#45;&gt;textual_app</title><style>.edge>path:hover{stroke-width:8}</style>
<path fill="none" stroke="silver" d="M576.61,-589.53C553.37,-580.33 521.61,-565.92 497.03,-547.8 487.01,-540.42 488.16,-534.46 478.03,-527.23"/>
<path fill="none" stroke="silver" d="M478.03,-525.23C434.48,-494.16 376.48,-472.41 337.56,-460.11"/>
<polygon fill="#24ced0" stroke="silver" points="338.65,-456.78 328.07,-457.18 336.59,-463.47 338.65,-456.78"/>
</g>
<!-- rich_segment&#45;&gt;textual_scrollbar -->
<g id="edge22" class="edge">
<title>rich_segment&#45;&gt;textual_scrollbar</title><style>.edge>path:hover{stroke-width:8}</style>
<path fill="none" stroke="silver" d="M660.03,-525.23C670.11,-506.61 685.17,-488.38 698.25,-474.31"/>
<polygon fill="#24ced0" stroke="silver" points="700.65,-476.87 705.04,-467.23 695.59,-472.03 700.65,-476.87"/>
</g>
<!-- rich_style&#45;&gt;chezmoi_mousse_gui -->
<g id="edge23" class="edge">
<title>rich_style&#45;&gt;chezmoi_mousse_gui</title><style>.edge>path:hover{stroke-width:8}</style>
<path fill="none" stroke="silver" d="M670.48,-669.59C700.35,-664.53 747.05,-651.72 771.03,-619.8 817.14,-558.41 781.01,-524.35 790.03,-448.1"/>
</g>
<!-- rich_style&#45;&gt;chezmoi_mousse_splash -->
<g id="edge24" class="edge">
<title>rich_style&#45;&gt;chezmoi_mousse_splash</title><style>.edge>path:hover{stroke-width:8}</style>
<path fill="none" stroke="silver" d="M615.63,-660.3C538.53,-623.15 328.44,-507.34 378.03,-368.97"/>
</g>
<!-- rich_style&#45;&gt;rich_color -->
<g id="edge25" class="edge">
<title>rich_style&#45;&gt;rich_color</title><style>.edge>path:hover{stroke-width:8}</style>
<path fill="none" stroke="silver" d="M674.48,-648.61C683.51,-641.66 693.37,-634.08 702.41,-627.12"/>
<polygon fill="blue" stroke="silver" points="672.52,-645.7 666.72,-654.57 676.78,-651.25 672.52,-645.7"/>
<polygon fill="blue" stroke="silver" points="704.49,-629.94 710.28,-621.07 700.22,-624.39 704.49,-629.94"/>
</g>
<!-- rich_style&#45;&gt;rich_segment -->
<g id="edge26" class="edge">
<title>rich_style&#45;&gt;rich_segment</title><style>.edge>path:hover{stroke-width:8}</style>
<path fill="none" stroke="silver" d="M634.38,-655.5C630.56,-647.87 625.99,-638.72 621.73,-630.2"/>
<polygon fill="blue" stroke="silver" points="624.86,-628.64 617.26,-621.26 618.6,-631.77 624.86,-628.64"/>
</g>
<!-- rich_style&#45;&gt;textual_screen -->
<g id="edge27" class="edge">
<title>rich_style&#45;&gt;textual_screen</title><style>.edge>path:hover{stroke-width:8}</style>
<path fill="none" stroke="silver" d="M615.57,-671.75C529.14,-668.12 263.86,-654.37 186.03,-619.8 141.71,-600.11 124.03,-591.98 104.03,-547.8 81.72,-498.52 96.13,-433.78 107.7,-397.25"/>
<polygon fill="blue" stroke="silver" points="110.99,-398.47 110.83,-387.87 104.35,-396.25 110.99,-398.47"/>
</g>
<!-- rich_style&#45;&gt;textual_scrollbar -->
<g id="edge28" class="edge">
<title>rich_style&#45;&gt;textual_scrollbar</title><style>.edge>path:hover{stroke-width:8}</style>
<path fill="none" stroke="silver" d="M649.33,-655.54C663.11,-617.77 696.12,-527.33 713.64,-479.31"/>
<polygon fill="blue" stroke="silver" points="716.88,-480.64 717.02,-470.04 710.31,-478.24 716.88,-480.64"/>
</g>
<!-- textual&#45;&gt;chezmoi_mousse_gui -->
<g id="edge29" class="edge">
<title>textual&#45;&gt;chezmoi_mousse_gui</title><style>.edge>path:hover{stroke-width:8}</style>
<path fill="none" stroke="silver" d="M450.03,-287.83C448.35,-252.22 486.45,-243.3 472.03,-210.7"/>
<path fill="none" stroke="silver" d="M472.03,-208.7C462.09,-186.24 441.77,-168.26 422.56,-155.33"/>
<polygon fill="#7e06ef" stroke="silver" points="424.56,-152.46 414.25,-150.03 420.79,-158.36 424.56,-152.46"/>
</g>
<!-- textual&#45;&gt;chezmoi_mousse_main_tabs -->
<g id="edge30" class="edge">
<title>textual&#45;&gt;chezmoi_mousse_main_tabs</title><style>.edge>path:hover{stroke-width:8}</style>
<path fill="none" stroke="silver" d="M408.62,-359.98C393.08,-355.69 372.47,-350.29 354.03,-346.4 256.66,-325.84 220.69,-357.52 133.03,-310.4 122.07,-304.51 119.04,-301.23 114.03,-289.83"/>
</g>
<!-- textual&#45;&gt;chezmoi_mousse_splash -->
<g id="edge31" class="edge">
<title>textual&#45;&gt;chezmoi_mousse_splash</title><style>.edge>path:hover{stroke-width:8}</style>
<path fill="none" stroke="silver" d="M439.45,-350.04C444.67,-334.56 451.03,-310.93 450.03,-289.83"/>
<path fill="none" stroke="silver" d="M450.03,-287.83C449.03,-266.68 434.25,-248.91 418.35,-235.77"/>
<polygon fill="#7e06ef" stroke="silver" points="420.74,-233.19 410.67,-229.88 416.47,-238.74 420.74,-233.19"/>
</g>
<!-- textual&#45;&gt;chezmoi_mousse_theme -->
<g id="edge32" class="edge">
<title>textual&#45;&gt;chezmoi_mousse_theme</title><style>.edge>path:hover{stroke-width:8}</style>
<path fill="none" stroke="silver" d="M446.02,-351.7C468.17,-325.69 513.54,-272.38 541.71,-239.28"/>
<polygon fill="#7e06ef" stroke="silver" points="544.02,-241.96 547.84,-232.07 538.69,-237.42 544.02,-241.96"/>
</g>
<!-- textual_app&#45;&gt;chezmoi_mousse_gui -->
<g id="edge33" class="edge">
<title>textual_app&#45;&gt;chezmoi_mousse_gui</title><style>.edge>path:hover{stroke-width:8}</style>
<path fill="none" stroke="silver" d="M326.69,-446.1C367.2,-444.2 436.08,-434.11 469.03,-389.53 516.29,-325.61 504.2,-283.39 472.03,-210.7"/>
</g>
<!-- textual_app&#45;&gt;chezmoi_mousse_main_tabs -->
<g id="edge34" class="edge">
<title>textual_app&#45;&gt;chezmoi_mousse_main_tabs</title><style>.edge>path:hover{stroke-width:8}</style>
<path fill="none" stroke="silver" d="M268.4,-428.73C252.84,-418.11 233.16,-403.86 217.03,-389.53 207.73,-381.27 205.88,-378.62 198.03,-368.97"/>
</g>
<!-- textual_app&#45;&gt;chezmoi_mousse_splash -->
<g id="edge35" class="edge">
<title>textual_app&#45;&gt;chezmoi_mousse_splash</title><style>.edge>path:hover{stroke-width:8}</style>
<path fill="none" stroke="silver" d="M324.68,-428.8C344.34,-415.36 368.24,-394.71 378.03,-368.97"/>
</g>
<!-- textual_app&#45;&gt;textual_screen -->
<g id="edge36" class="edge">
<title>textual_app&#45;&gt;textual_screen</title><style>.edge>path:hover{stroke-width:8}</style>
<path fill="none" stroke="silver" d="M253.06,-427.81C227.2,-416.54 193.94,-402.05 166.9,-390.26"/>
<polygon fill="blue" stroke="silver" points="251.43,-430.92 262,-431.71 254.23,-424.5 251.43,-430.92"/>
<polygon fill="blue" stroke="silver" points="168.45,-387.12 157.88,-386.33 165.65,-393.54 168.45,-387.12"/>
</g>
<!-- textual_containers -->
<g id="node14" class="node">
<title>textual_containers</title><style>.edge>path:hover{stroke-width:8}</style>
<ellipse fill="#8233cc" stroke="silver" cx="269.03" cy="-367.97" rx="43.13" ry="21.57"/>
<text text-anchor="middle" x="269.03" y="-369.72" font-family="Helvetica,sans-Serif" font-size="10.00" fill="#ffffff">textual.</text>
<text text-anchor="middle" x="269.03" y="-358.47" font-family="Helvetica,sans-Serif" font-size="10.00" fill="#ffffff">containers</text>
</g>
<!-- textual_containers&#45;&gt;chezmoi_mousse_gui -->
<g id="edge37" class="edge">
<title>textual_containers&#45;&gt;chezmoi_mousse_gui</title><style>.edge>path:hover{stroke-width:8}</style>
<path fill="none" stroke="silver" d="M297.67,-351.68C318.5,-338.24 342.64,-316.64 340.03,-289.83"/>
<path fill="none" stroke="silver" d="M340.03,-287.83C335.92,-245.67 263.78,-247.91 284.03,-210.7"/>
</g>
<!-- textual_containers&#45;&gt;chezmoi_mousse_main_tabs -->
<g id="edge38" class="edge">
<title>textual_containers&#45;&gt;chezmoi_mousse_main_tabs</title><style>.edge>path:hover{stroke-width:8}</style>
<path fill="none" stroke="silver" d="M234.67,-354.6C200.27,-341.88 150.07,-322.3 133.03,-310.4 122.83,-303.28 119.04,-301.23 114.03,-289.83"/>
</g>
<!-- textual_containers&#45;&gt;chezmoi_mousse_splash -->
<g id="edge39" class="edge">
<title>textual_containers&#45;&gt;chezmoi_mousse_splash</title><style>.edge>path:hover{stroke-width:8}</style>
<path fill="none" stroke="silver" d="M304.72,-355.45C332.73,-344.01 368.51,-323.28 378.03,-289.83"/>
<path fill="none" stroke="silver" d="M378.03,-287.83C382.15,-273.34 382.65,-256.69 381.92,-242.58"/>
<polygon fill="#8233cc" stroke="silver" points="385.43,-242.64 381.18,-232.93 378.45,-243.17 385.43,-242.64"/>
</g>
<!-- textual_lazy -->
<g id="node15" class="node">
<title>textual_lazy</title><style>.edge>path:hover{stroke-width:8}</style>
<ellipse fill="#814cb3" stroke="silver" cx="725.03" cy="-288.83" rx="37.42" ry="18"/>
<text text-anchor="middle" x="725.03" y="-284.96" font-family="Helvetica,sans-Serif" font-size="10.00" fill="#ffffff">textual.lazy</text>
</g>
<!-- textual_lazy&#45;&gt;chezmoi_mousse_gui -->
<g id="edge40" class="edge">
<title>textual_lazy&#45;&gt;chezmoi_mousse_gui</title><style>.edge>path:hover{stroke-width:8}</style>
<path fill="none" stroke="silver" d="M713.79,-271.28C701.85,-254.56 681.74,-228.69 660.03,-210.7"/>
</g>
<!-- textual_screen&#45;&gt;chezmoi_mousse_gui -->
<g id="edge41" class="edge">
<title>textual_screen&#45;&gt;chezmoi_mousse_gui</title><style>.edge>path:hover{stroke-width:8}</style>
<path fill="none" stroke="silver" d="M103.65,-349.62C92.65,-334.8 78.89,-312.37 76.03,-289.83"/>
<path fill="none" stroke="silver" d="M76.03,-287.83C71.44,-251.65 23.69,-237.86 48.03,-210.7"/>
</g>
<!-- textual_screen&#45;&gt;chezmoi_mousse_main_tabs -->
<g id="edge42" class="edge">
<title>textual_screen&#45;&gt;chezmoi_mousse_main_tabs</title><style>.edge>path:hover{stroke-width:8}</style>
<path fill="none" stroke="silver" d="M76.03,-287.83C73.43,-267.33 87.06,-249.42 102.6,-236.04"/>
<polygon fill="blue" stroke="silver" points="104.52,-238.99 110.16,-230.02 100.16,-233.51 104.52,-238.99"/>
</g>
<!-- textual_screen&#45;&gt;chezmoi_mousse_splash -->
<g id="edge43" class="edge">
<title>textual_screen&#45;&gt;chezmoi_mousse_splash</title><style>.edge>path:hover{stroke-width:8}</style>
<path fill="none" stroke="silver" d="M156.36,-359.33C191.36,-351.12 243.51,-335.73 283.03,-310.4 312.27,-291.66 338.91,-262.09 356.49,-240.01"/>
<polygon fill="blue" stroke="silver" points="359.15,-242.3 362.52,-232.26 353.62,-238 359.15,-242.3"/>
</g>
<!-- textual_scrollbar&#45;&gt;chezmoi_mousse_gui -->
<g id="edge45" class="edge">
<title>textual_scrollbar&#45;&gt;chezmoi_mousse_gui</title><style>.edge>path:hover{stroke-width:8}</style>
<path fill="none" stroke="silver" d="M747.64,-429.79C764.35,-415.91 785.05,-394.22 790.03,-368.97"/>
<path fill="none" stroke="silver" d="M790.03,-366.97C798.76,-322.71 798.11,-303.34 771.03,-267.27 737.79,-222.98 702.66,-246.03 660.03,-210.7"/>
</g>
<!-- textual_theme -->
<g id="node18" class="node">
<title>textual_theme</title><style>.edge>path:hover{stroke-width:8}</style>
<ellipse fill="#8233cc" stroke="silver" cx="550.03" cy="-526.23" rx="43.64" ry="18"/>
<text text-anchor="middle" x="550.03" y="-522.36" font-family="Helvetica,sans-Serif" font-size="10.00" fill="#ffffff">textual.theme</text>
</g>
<!-- textual_theme&#45;&gt;chezmoi_mousse_gui -->
<g id="edge46" class="edge">
<title>textual_theme&#45;&gt;chezmoi_mousse_gui</title><style>.edge>path:hover{stroke-width:8}</style>
<path fill="none" stroke="silver" d="M622.03,-287.83C621.82,-249.62 689.2,-235.39 660.03,-210.7"/>
<path fill="none" stroke="silver" d="M660.03,-208.7C650.53,-200.66 651.84,-194.3 641.03,-188.13 583.84,-155.51 509.88,-141.66 454.97,-135.81"/>
<polygon fill="#8233cc" stroke="silver" points="455.36,-132.33 445.06,-134.82 454.66,-139.29 455.36,-132.33"/>
</g>
<!-- textual_theme&#45;&gt;chezmoi_mousse_theme -->
<g id="edge47" class="edge">
<title>textual_theme&#45;&gt;chezmoi_mousse_theme</title><style>.edge>path:hover{stroke-width:8}</style>
<path fill="none" stroke="silver" d="M559.71,-508.34C580.43,-470.37 626.86,-374.96 622.03,-289.83"/>
<path fill="none" stroke="silver" d="M622.03,-287.83C621.93,-268.92 610.76,-251.52 598.42,-238.06"/>
<polygon fill="#8233cc" stroke="silver" points="601.25,-235.94 591.74,-231.28 596.27,-240.86 601.25,-235.94"/>
</g>
<!-- textual_theme&#45;&gt;textual_app -->
<g id="edge48" class="edge">
<title>textual_theme&#45;&gt;textual_app</title><style>.edge>path:hover{stroke-width:8}</style>
<path fill="none" stroke="silver" d="M518.24,-513.57C509.76,-510.56 500.58,-507.41 492.03,-504.67 439.18,-487.73 377.6,-470.43 337.55,-459.5"/>
<polygon fill="#8233cc" stroke="silver" points="338.63,-456.17 328.06,-456.92 336.79,-462.92 338.63,-456.17"/>
</g>
<!-- textual_widgets -->
<g id="node19" class="node">
<title>textual_widgets</title><style>.edge>path:hover{stroke-width:8}</style>
<ellipse fill="#7e0ce9" stroke="silver" cx="215.03" cy="-526.23" rx="35.18" ry="21.57"/>
<text text-anchor="middle" x="215.03" y="-527.98" font-family="Helvetica,sans-Serif" font-size="10.00" fill="#ffffff">textual.</text>
<text text-anchor="middle" x="215.03" y="-516.73" font-family="Helvetica,sans-Serif" font-size="10.00" fill="#ffffff">widgets</text>
</g>
<!-- textual_widgets&#45;&gt;chezmoi_mousse_gui -->
<g id="edge49" class="edge">
<title>textual_widgets&#45;&gt;chezmoi_mousse_gui</title><style>.edge>path:hover{stroke-width:8}</style>
<path fill="none" stroke="silver" d="M198.03,-446.1C199.35,-385.94 272.34,-424.89 321.03,-389.53 331.1,-382.22 332.51,-378.88 340.03,-368.97"/>
<path fill="none" stroke="silver" d="M340.03,-366.97C360.75,-339.66 343.35,-323.95 340.03,-289.83"/>
</g>
<!-- textual_widgets&#45;&gt;chezmoi_mousse_main_tabs -->
<g id="edge50" class="edge">
<title>textual_widgets&#45;&gt;chezmoi_mousse_main_tabs</title><style>.edge>path:hover{stroke-width:8}</style>
<path fill="none" stroke="silver" d="M198.03,-446.1C198.78,-411.83 219.65,-395.57 198.03,-368.97"/>
<path fill="none" stroke="silver" d="M198.03,-366.97C166.06,-327.64 134.43,-336.23 114.03,-289.83"/>
<path fill="none" stroke="silver" d="M114.03,-287.83C107.34,-272.62 112.56,-255.25 120.23,-240.85"/>
<polygon fill="#7e0ce9" stroke="silver" points="123.24,-242.65 125.34,-232.26 117.22,-239.07 123.24,-242.65"/>
</g>
<!-- textual_widgets&#45;&gt;chezmoi_mousse_splash -->
<g id="edge51" class="edge">
<title>textual_widgets&#45;&gt;chezmoi_mousse_splash</title><style>.edge>path:hover{stroke-width:8}</style>
<path fill="none" stroke="silver" d="M340.03,-366.97C363.13,-336.52 367.57,-326.59 378.03,-289.83"/>
</g>
<!-- textual_widgets&#45;&gt;textual_app -->
<g id="edge52" class="edge">
<title>textual_widgets&#45;&gt;textual_app</title><style>.edge>path:hover{stroke-width:8}</style>
<path fill="none" stroke="silver" d="M233.18,-507.73C243.72,-497.57 257.17,-484.6 268.84,-473.36"/>
<polygon fill="#7e0ce9" stroke="silver" points="271.09,-476.05 275.86,-466.58 266.23,-471.01 271.09,-476.05"/>
</g>
<!-- textual_widgets&#45;&gt;textual_screen -->
<g id="edge53" class="edge">
<title>textual_widgets&#45;&gt;textual_screen</title><style>.edge>path:hover{stroke-width:8}</style>
<path fill="none" stroke="silver" d="M207.77,-504.87C202.96,-489.48 197.6,-467.71 198.03,-448.1"/>
<path fill="none" stroke="silver" d="M198.03,-446.1C198.52,-423.6 181.95,-405.59 163.77,-392.65"/>
<polygon fill="#7e0ce9" stroke="silver" points="165.74,-389.75 155.46,-387.18 161.89,-395.6 165.74,-389.75"/>
</g>
</g>
</svg>
