<?xml version="1.0" encoding="UTF-8" standalone="no"?>
<!DOCTYPE svg PUBLIC "-//W3C//DTD SVG 1.1//EN"
 "http://www.w3.org/Graphics/SVG/1.1/DTD/svg11.dtd">
<!-- Generated by graphviz version 12.2.1 (0)
 -->
<!-- Title: G Pages: 1 -->
<svg width="876pt" height="700pt"
 viewBox="0.00 0.00 875.68 699.80" xmlns="http://www.w3.org/2000/svg" xmlns:xlink="http://www.w3.org/1999/xlink">
<g id="graph0" class="graph" transform="scale(1 1) rotate(0) translate(4 695.8)">
<title>G</title><style>.edge>path:hover{stroke-width:8}</style>
<polygon fill="black" stroke="none" points="-4,4 -4,-695.8 871.68,-695.8 871.68,4 -4,4"/>
<!-- __main___py -->
<g id="node1" class="node">
<title>__main___py</title><style>.edge>path:hover{stroke-width:8}</style>
<ellipse fill="#9f5756" stroke="silver" cx="455.02" cy="-18" rx="41.42" ry="18"/>
<text text-anchor="middle" x="455.02" y="-14.12" font-family="Helvetica,sans-Serif" font-size="10.00" fill="#ffffff">__main__.py</text>
</g>
<!-- chezmoi_mousse -->
<g id="node2" class="node">
<title>chezmoi_mousse</title><style>.edge>path:hover{stroke-width:8}</style>
<ellipse fill="#82db2f" stroke="silver" cx="386.02" cy="-130.57" rx="54.29" ry="18"/>
<text text-anchor="middle" x="386.02" y="-126.69" font-family="Helvetica,sans-Serif" font-size="10.00" fill="#000000">chezmoi_mousse</text>
</g>
<!-- chezmoi_mousse&#45;&gt;__main___py -->
<g id="edge1" class="edge">
<title>chezmoi_mousse&#45;&gt;__main___py</title><style>.edge>path:hover{stroke-width:8}</style>
<path fill="none" stroke="silver" d="M420.18,-116.37C437.59,-107.19 455.11,-92.98 455.02,-73"/>
<path fill="none" stroke="silver" d="M455.02,-72C454.99,-64.06 454.98,-55.44 454.98,-47.52"/>
<polygon fill="#82db2f" stroke="silver" points="458.48,-47.7 454.99,-37.7 451.48,-47.7 458.48,-47.7"/>
</g>
<!-- chezmoi_mousse_chezmoi -->
<g id="node3" class="node">
<title>chezmoi_mousse_chezmoi</title><style>.edge>path:hover{stroke-width:8}</style>
<ellipse fill="#82ce3b" stroke="silver" cx="421.02" cy="-288.83" rx="66.47" ry="21.57"/>
<text text-anchor="middle" x="421.02" y="-290.58" font-family="Helvetica,sans-Serif" font-size="10.00" fill="#000000">chezmoi_mousse.</text>
<text text-anchor="middle" x="421.02" y="-279.33" font-family="Helvetica,sans-Serif" font-size="10.00" fill="#000000">chezmoi</text>
</g>
<!-- chezmoi_mousse_gui -->
<g id="node4" class="node">
<title>chezmoi_mousse_gui</title><style>.edge>path:hover{stroke-width:8}</style>
<ellipse fill="#4b6b2e" stroke="silver" cx="525.02" cy="-130.57" rx="66.47" ry="21.57"/>
<text text-anchor="middle" x="525.02" y="-132.32" font-family="Helvetica,sans-Serif" font-size="10.00" fill="#ffffff">chezmoi_mousse.</text>
<text text-anchor="middle" x="525.02" y="-121.07" font-family="Helvetica,sans-Serif" font-size="10.00" fill="#ffffff">gui</text>
</g>
<!-- chezmoi_mousse_chezmoi&#45;&gt;chezmoi_mousse_gui -->
<g id="edge2" class="edge">
<title>chezmoi_mousse_chezmoi&#45;&gt;chezmoi_mousse_gui</title><style>.edge>path:hover{stroke-width:8}</style>
<path fill="none" stroke="silver" d="M464.53,-272.12C489.95,-259.98 518.31,-240.18 525.02,-210.7"/>
<path fill="none" stroke="silver" d="M525.02,-208.7C528.35,-194.11 528.77,-177.57 528.19,-163.55"/>
<polygon fill="#82ce3b" stroke="silver" points="531.71,-163.75 527.6,-153.98 524.72,-164.18 531.71,-163.75"/>
</g>
<!-- chezmoi_mousse_main_tabs -->
<g id="node5" class="node">
<title>chezmoi_mousse_main_tabs</title><style>.edge>path:hover{stroke-width:8}</style>
<ellipse fill="#557934" stroke="silver" cx="289.02" cy="-209.7" rx="66.47" ry="21.57"/>
<text text-anchor="middle" x="289.02" y="-211.45" font-family="Helvetica,sans-Serif" font-size="10.00" fill="#ffffff">chezmoi_mousse.</text>
<text text-anchor="middle" x="289.02" y="-200.2" font-family="Helvetica,sans-Serif" font-size="10.00" fill="#ffffff">main_tabs</text>
</g>
<!-- chezmoi_mousse_chezmoi&#45;&gt;chezmoi_mousse_main_tabs -->
<g id="edge3" class="edge">
<title>chezmoi_mousse_chezmoi&#45;&gt;chezmoi_mousse_main_tabs</title><style>.edge>path:hover{stroke-width:8}</style>
<path fill="none" stroke="silver" d="M389.74,-269.55C371.95,-259.16 349.46,-246.02 330.25,-234.79"/>
<polygon fill="#82ce3b" stroke="silver" points="332.25,-231.9 321.85,-229.88 328.71,-237.95 332.25,-231.9"/>
</g>
<!-- chezmoi_mousse_splash -->
<g id="node6" class="node">
<title>chezmoi_mousse_splash</title><style>.edge>path:hover{stroke-width:8}</style>
<ellipse fill="#507231" stroke="silver" cx="619.02" cy="-209.7" rx="66.47" ry="21.57"/>
<text text-anchor="middle" x="619.02" y="-211.45" font-family="Helvetica,sans-Serif" font-size="10.00" fill="#ffffff">chezmoi_mousse.</text>
<text text-anchor="middle" x="619.02" y="-200.2" font-family="Helvetica,sans-Serif" font-size="10.00" fill="#ffffff">splash</text>
</g>
<!-- chezmoi_mousse_chezmoi&#45;&gt;chezmoi_mousse_splash -->
<g id="edge4" class="edge">
<title>chezmoi_mousse_chezmoi&#45;&gt;chezmoi_mousse_splash</title><style>.edge>path:hover{stroke-width:8}</style>
<path fill="none" stroke="silver" d="M462.53,-271.66C492.89,-259.84 534.29,-243.71 566.89,-231.01"/>
<polygon fill="#82ce3b" stroke="silver" points="568.11,-234.29 576.16,-227.4 565.57,-227.77 568.11,-234.29"/>
</g>
<!-- chezmoi_mousse_gui&#45;&gt;__main___py -->
<g id="edge5" class="edge">
<title>chezmoi_mousse_gui&#45;&gt;__main___py</title><style>.edge>path:hover{stroke-width:8}</style>
<path fill="none" stroke="silver" d="M484.38,-113.1C468.99,-103.98 455.1,-90.81 455.02,-73"/>
</g>
<!-- chezmoi_mousse_main_tabs&#45;&gt;chezmoi_mousse_gui -->
<g id="edge6" class="edge">
<title>chezmoi_mousse_main_tabs&#45;&gt;chezmoi_mousse_gui</title><style>.edge>path:hover{stroke-width:8}</style>
<path fill="none" stroke="silver" d="M334.81,-193.74C372.99,-181.26 427.58,-163.42 468.48,-150.05"/>
<polygon fill="#557934" stroke="silver" points="469.51,-153.39 477.93,-146.96 467.34,-146.74 469.51,-153.39"/>
</g>
<!-- chezmoi_mousse_splash&#45;&gt;chezmoi_mousse_gui -->
<g id="edge7" class="edge">
<title>chezmoi_mousse_splash&#45;&gt;chezmoi_mousse_gui</title><style>.edge>path:hover{stroke-width:8}</style>
<path fill="none" stroke="silver" d="M595.3,-189.24C583.84,-179.83 569.9,-168.39 557.47,-158.19"/>
<polygon fill="#507231" stroke="silver" points="559.86,-155.62 549.91,-151.98 555.42,-161.03 559.86,-155.62"/>
</g>
<!-- chezmoi_mousse_theme -->
<g id="node7" class="node">
<title>chezmoi_mousse_theme</title><style>.edge>path:hover{stroke-width:8}</style>
<ellipse fill="#78b83d" stroke="silver" cx="119.02" cy="-288.83" rx="66.47" ry="21.57"/>
<text text-anchor="middle" x="119.02" y="-290.58" font-family="Helvetica,sans-Serif" font-size="10.00" fill="#000000">chezmoi_mousse.</text>
<text text-anchor="middle" x="119.02" y="-279.33" font-family="Helvetica,sans-Serif" font-size="10.00" fill="#000000">theme</text>
</g>
<!-- chezmoi_mousse_theme&#45;&gt;chezmoi_mousse_gui -->
<g id="edge8" class="edge">
<title>chezmoi_mousse_theme&#45;&gt;chezmoi_mousse_gui</title><style>.edge>path:hover{stroke-width:8}</style>
<path fill="none" stroke="silver" d="M136.86,-267.84C151.71,-251.66 173.8,-228.68 195.02,-210.7"/>
</g>
<!-- chezmoi_mousse_theme&#45;&gt;chezmoi_mousse_main_tabs -->
<g id="edge9" class="edge">
<title>chezmoi_mousse_theme&#45;&gt;chezmoi_mousse_main_tabs</title><style>.edge>path:hover{stroke-width:8}</style>
<path fill="none" stroke="silver" d="M156.75,-270.72C181.62,-259.43 214.41,-244.55 241.12,-232.44"/>
<polygon fill="#78b83d" stroke="silver" points="242.36,-235.72 250.02,-228.4 239.47,-229.34 242.36,-235.72"/>
</g>
<!-- rich -->
<g id="node8" class="node">
<title>rich</title><style>.edge>path:hover{stroke-width:8}</style>
<ellipse fill="#06f5f9" stroke="silver" cx="388.02" cy="-601.8" rx="27" ry="18"/>
<text text-anchor="middle" x="388.02" y="-597.93" font-family="Helvetica,sans-Serif" font-size="10.00" fill="#000000">rich</text>
</g>
<!-- rich&#45;&gt;chezmoi_mousse_gui -->
<g id="edge10" class="edge">
<title>rich&#45;&gt;chezmoi_mousse_gui</title><style>.edge>path:hover{stroke-width:8}</style>
<path fill="none" stroke="silver" d="M360.95,-599.48C295.89,-595.78 133.24,-583.12 94.02,-547.8 5.84,-468.38 -26.57,-396.71 25.02,-289.83"/>
<path fill="none" stroke="silver" d="M25.02,-287.83C66.17,-215.79 131.72,-264.33 195.02,-210.7"/>
<path fill="none" stroke="silver" d="M195.02,-208.7C204.52,-200.66 203.04,-193.97 214.02,-188.13 307.33,-138.55 345.64,-173.97 449.02,-152.13 454.49,-150.98 460.14,-149.67 465.78,-148.29"/>
<polygon fill="#06f5f9" stroke="silver" points="466.27,-151.77 475.1,-145.92 464.55,-144.99 466.27,-151.77"/>
</g>
<!-- rich&#45;&gt;chezmoi_mousse_main_tabs -->
<g id="edge11" class="edge">
<title>rich&#45;&gt;chezmoi_mousse_main_tabs</title><style>.edge>path:hover{stroke-width:8}</style>
<path fill="none" stroke="silver" d="M268.02,-525.23C236.37,-425.96 263.41,-300.39 279.35,-242.53"/>
<polygon fill="#06f5f9" stroke="silver" points="282.69,-243.6 282.06,-233.03 275.96,-241.69 282.69,-243.6"/>
</g>
<!-- rich&#45;&gt;chezmoi_mousse_splash -->
<g id="edge12" class="edge">
<title>rich&#45;&gt;chezmoi_mousse_splash</title><style>.edge>path:hover{stroke-width:8}</style>
<path fill="none" stroke="silver" d="M401.62,-585.86C432.62,-550.86 508.68,-459.66 545.02,-368.97"/>
<path fill="none" stroke="silver" d="M545.02,-366.97C560.09,-330 576.02,-326.82 591.02,-289.83"/>
</g>
<!-- textual -->
<g id="node12" class="node">
<title>textual</title><style>.edge>path:hover{stroke-width:8}</style>
<ellipse fill="#7e06ef" stroke="silver" cx="213.02" cy="-447.1" rx="27" ry="18"/>
<text text-anchor="middle" x="213.02" y="-443.23" font-family="Helvetica,sans-Serif" font-size="10.00" fill="#ffffff">textual</text>
</g>
<!-- rich&#45;&gt;textual -->
<g id="edge13" class="edge">
<title>rich&#45;&gt;textual</title><style>.edge>path:hover{stroke-width:8}</style>
<path fill="none" stroke="silver" d="M362.41,-595.32C331.15,-586.95 280.87,-567.51 268.02,-527.23"/>
<path fill="none" stroke="silver" d="M268.02,-525.23C261.49,-504.73 247.26,-485.04 234.92,-470.68"/>
<polygon fill="#06f5f9" stroke="silver" points="237.85,-468.71 228.57,-463.6 232.64,-473.38 237.85,-468.71"/>
</g>
<!-- textual_app -->
<g id="node13" class="node">
<title>textual_app</title><style>.edge>path:hover{stroke-width:8}</style>
<polygon fill="blue" stroke="silver" points="452.27,-465.1 389.77,-465.1 389.77,-429.1 452.27,-429.1 452.27,-465.1"/>
<text text-anchor="middle" x="421.02" y="-443.23" font-family="Helvetica,sans-Serif" font-size="10.00" fill="white">textual.app</text>
</g>
<!-- rich&#45;&gt;textual_app -->
<g id="edge14" class="edge">
<title>rich&#45;&gt;textual_app</title><style>.edge>path:hover{stroke-width:8}</style>
<path fill="none" stroke="silver" d="M268.02,-525.23C252.39,-476.2 327.78,-458.21 378.29,-451.7"/>
<polygon fill="#06f5f9" stroke="silver" points="378.56,-455.2 388.09,-450.56 377.75,-448.24 378.56,-455.2"/>
</g>
<!-- textual_screen -->
<g id="node16" class="node">
<title>textual_screen</title><style>.edge>path:hover{stroke-width:8}</style>
<polygon fill="blue" stroke="silver" points="649.02,-385.97 573.02,-385.97 573.02,-349.97 649.02,-349.97 649.02,-385.97"/>
<text text-anchor="middle" x="611.02" y="-364.09" font-family="Helvetica,sans-Serif" font-size="10.00" fill="white">textual.screen</text>
</g>
<!-- rich&#45;&gt;textual_screen -->
<g id="edge15" class="edge">
<title>rich&#45;&gt;textual_screen</title><style>.edge>path:hover{stroke-width:8}</style>
<path fill="none" stroke="silver" d="M415,-598.98C459.05,-595.05 548.1,-583.05 614.02,-547.8 625.83,-541.49 624.71,-534.39 636.02,-527.23"/>
<path fill="none" stroke="silver" d="M636.02,-525.23C677.51,-498.98 648.9,-433.24 627.83,-395.93"/>
<polygon fill="#06f5f9" stroke="silver" points="630.99,-394.39 622.92,-387.52 624.95,-397.92 630.99,-394.39"/>
</g>
<!-- textual_scrollbar -->
<g id="node17" class="node">
<title>textual_scrollbar</title><style>.edge>path:hover{stroke-width:8}</style>
<ellipse fill="#6c4096" stroke="silver" cx="780.02" cy="-447.1" rx="37.3" ry="21.57"/>
<text text-anchor="middle" x="780.02" y="-448.85" font-family="Helvetica,sans-Serif" font-size="10.00" fill="#ffffff">textual.</text>
<text text-anchor="middle" x="780.02" y="-437.6" font-family="Helvetica,sans-Serif" font-size="10.00" fill="#ffffff">scrollbar</text>
</g>
<!-- rich&#45;&gt;textual_scrollbar -->
<g id="edge16" class="edge">
<title>rich&#45;&gt;textual_scrollbar</title><style>.edge>path:hover{stroke-width:8}</style>
<path fill="none" stroke="silver" d="M636.02,-525.23C670.6,-503.35 711.95,-481.64 741.44,-466.85"/>
<polygon fill="#06f5f9" stroke="silver" points="742.99,-469.99 750.39,-462.4 739.87,-463.72 742.99,-469.99"/>
</g>
<!-- rich_color -->
<g id="node9" class="node">
<title>rich_color</title><style>.edge>path:hover{stroke-width:8}</style>
<polygon fill="blue" stroke="silver" points="844.52,-619.8 789.52,-619.8 789.52,-583.8 844.52,-583.8 844.52,-619.8"/>
<text text-anchor="middle" x="817.02" y="-597.93" font-family="Helvetica,sans-Serif" font-size="10.00" fill="white">rich.color</text>
</g>
<!-- rich_color&#45;&gt;chezmoi_mousse_gui -->
<g id="edge17" class="edge">
<title>rich_color&#45;&gt;chezmoi_mousse_gui</title><style>.edge>path:hover{stroke-width:8}</style>
<path fill="none" stroke="silver" d="M807.02,-525.23C805.84,-487.04 840.53,-486.05 845.02,-448.1"/>
<path fill="none" stroke="silver" d="M845.02,-446.1C849.05,-412.06 840.51,-402.95 845.02,-368.97"/>
</g>
<!-- rich_style -->
<g id="node11" class="node">
<title>rich_style</title><style>.edge>path:hover{stroke-width:8}</style>
<polygon fill="blue" stroke="silver" points="788.15,-691.8 733.9,-691.8 733.9,-655.8 788.15,-655.8 788.15,-691.8"/>
<text text-anchor="middle" x="761.02" y="-669.93" font-family="Helvetica,sans-Serif" font-size="10.00" fill="white">rich.style</text>
</g>
<!-- rich_color&#45;&gt;textual_scrollbar -->
<g id="edge19" class="edge">
<title>rich_color&#45;&gt;textual_scrollbar</title><style>.edge>path:hover{stroke-width:8}</style>
<path fill="none" stroke="silver" d="M813.61,-583.35C810.96,-568.49 807.63,-546.56 807.02,-527.23"/>
<path fill="none" stroke="silver" d="M807.02,-525.23C806.53,-509.23 801.22,-492.35 795.45,-478.48"/>
<polygon fill="blue" stroke="silver" points="798.69,-477.15 791.41,-469.45 792.3,-480.01 798.69,-477.15"/>
</g>
<!-- rich_segment -->
<g id="node10" class="node">
<title>rich_segment</title><style>.edge>path:hover{stroke-width:8}</style>
<ellipse fill="#24ced0" stroke="silver" cx="691.02" cy="-601.8" rx="42.31" ry="18"/>
<text text-anchor="middle" x="691.02" y="-597.93" font-family="Helvetica,sans-Serif" font-size="10.00" fill="#000000">rich.segment</text>
</g>
<!-- rich_segment&#45;&gt;chezmoi_mousse_gui -->
<g id="edge20" class="edge">
<title>rich_segment&#45;&gt;chezmoi_mousse_gui</title><style>.edge>path:hover{stroke-width:8}</style>
<path fill="none" stroke="silver" d="M715.02,-446.1C710.99,-412.06 701.34,-400.4 715.02,-368.97"/>
</g>
<!-- rich_segment&#45;&gt;chezmoi_mousse_splash -->
<g id="edge21" class="edge">
<title>rich_segment&#45;&gt;chezmoi_mousse_splash</title><style>.edge>path:hover{stroke-width:8}</style>
<path fill="none" stroke="silver" d="M696.33,-583.45C700.99,-568.47 708.1,-546.3 715.02,-527.23"/>
<path fill="none" stroke="silver" d="M715.02,-525.23C726.73,-493.01 719.05,-482.14 715.02,-448.1"/>
<path fill="none" stroke="silver" d="M715.02,-446.1C710.53,-408.15 696.39,-401.92 677.02,-368.97"/>
</g>
<!-- rich_segment&#45;&gt;textual_app -->
<g id="edge22" class="edge">
<title>rich_segment&#45;&gt;textual_app</title><style>.edge>path:hover{stroke-width:8}</style>
<path fill="none" stroke="silver" d="M652.97,-593.67C618.17,-586 566.14,-571.58 526.02,-547.8 492.96,-528.2 461.93,-496.43 442.3,-474.04"/>
<polygon fill="#24ced0" stroke="silver" points="445.02,-471.83 435.85,-466.52 439.7,-476.39 445.02,-471.83"/>
</g>
<!-- rich_segment&#45;&gt;textual_scrollbar -->
<g id="edge23" class="edge">
<title>rich_segment&#45;&gt;textual_scrollbar</title><style>.edge>path:hover{stroke-width:8}</style>
<path fill="none" stroke="silver" d="M715.02,-525.23C722.26,-505.33 737.16,-487.03 750.87,-473.25"/>
<polygon fill="#24ced0" stroke="silver" points="753.29,-475.77 758.08,-466.32 748.44,-470.72 753.29,-475.77"/>
</g>
<!-- rich_style&#45;&gt;chezmoi_mousse_gui -->
<g id="edge24" class="edge">
<title>rich_style&#45;&gt;chezmoi_mousse_gui</title><style>.edge>path:hover{stroke-width:8}</style>
<path fill="none" stroke="silver" d="M788.45,-665.46C810.5,-657.96 840.02,-643.9 854.02,-619.8 892.42,-553.73 836.04,-523.99 845.02,-448.1"/>
</g>
<!-- rich_style&#45;&gt;chezmoi_mousse_splash -->
<g id="edge25" class="edge">
<title>rich_style&#45;&gt;chezmoi_mousse_splash</title><style>.edge>path:hover{stroke-width:8}</style>
<path fill="none" stroke="silver" d="M677.02,-446.1C674.26,-411.93 694.39,-398.52 677.02,-368.97"/>
<path fill="none" stroke="silver" d="M677.02,-366.97C670.72,-356.24 667.02,-355 658.02,-346.4 629.86,-319.47 576.38,-325.95 591.02,-289.83"/>
</g>
<!-- rich_style&#45;&gt;rich_color -->
<g id="edge26" class="edge">
<title>rich_style&#45;&gt;rich_color</title><style>.edge>path:hover{stroke-width:8}</style>
<path fill="none" stroke="silver" d="M781.99,-646.6C786.67,-640.74 791.64,-634.53 796.32,-628.69"/>
<polygon fill="blue" stroke="silver" points="779.33,-644.32 775.81,-654.32 784.79,-648.69 779.33,-644.32"/>
<polygon fill="blue" stroke="silver" points="798.88,-631.08 802.4,-621.09 793.42,-626.71 798.88,-631.08"/>
</g>
<!-- rich_style&#45;&gt;rich_segment -->
<g id="edge27" class="edge">
<title>rich_style&#45;&gt;rich_segment</title><style>.edge>path:hover{stroke-width:8}</style>
<path fill="none" stroke="silver" d="M743.72,-655.5C734.95,-646.73 724.18,-635.95 714.66,-626.43"/>
<polygon fill="blue" stroke="silver" points="717.31,-624.14 707.77,-619.54 712.36,-629.09 717.31,-624.14"/>
</g>
<!-- rich_style&#45;&gt;textual_screen -->
<g id="edge28" class="edge">
<title>rich_style&#45;&gt;textual_screen</title><style>.edge>path:hover{stroke-width:8}</style>
<path fill="none" stroke="silver" d="M733.61,-669.43C704.74,-664.26 660.67,-651.38 640.02,-619.8 631.27,-606.41 637.86,-599.65 640.02,-583.8 644.25,-552.83 682.77,-478.82 677.02,-448.1"/>
<path fill="none" stroke="silver" d="M677.02,-446.1C675.34,-425.25 661.02,-407.15 646.16,-393.73"/>
<polygon fill="blue" stroke="silver" points="648.49,-391.13 638.59,-387.37 643.99,-396.48 648.49,-391.13"/>
</g>
<!-- rich_style&#45;&gt;textual_scrollbar -->
<g id="edge29" class="edge">
<title>rich_style&#45;&gt;textual_scrollbar</title><style>.edge>path:hover{stroke-width:8}</style>
<path fill="none" stroke="silver" d="M762.48,-655.54C765.66,-618.03 773.22,-528.55 777.3,-480.28"/>
<polygon fill="blue" stroke="silver" points="780.78,-480.72 778.13,-470.46 773.8,-480.13 780.78,-480.72"/>
</g>
<!-- textual&#45;&gt;chezmoi_mousse_gui -->
<g id="edge30" class="edge">
<title>textual&#45;&gt;chezmoi_mousse_gui</title><style>.edge>path:hover{stroke-width:8}</style>
<path fill="none" stroke="silver" d="M213.02,-366.97C203.95,-333.91 207.03,-323.59 213.02,-289.83"/>
<path fill="none" stroke="silver" d="M213.02,-287.83C219.18,-253.17 168.16,-233.45 195.02,-210.7"/>
</g>
<!-- textual&#45;&gt;chezmoi_mousse_main_tabs -->
<g id="edge31" class="edge">
<title>textual&#45;&gt;chezmoi_mousse_main_tabs</title><style>.edge>path:hover{stroke-width:8}</style>
<path fill="none" stroke="silver" d="M213.02,-287.83C216.79,-266.59 232.45,-248.9 248.59,-235.83"/>
<polygon fill="#7e06ef" stroke="silver" points="250.46,-238.8 256.32,-229.98 246.24,-233.23 250.46,-238.8"/>
</g>
<!-- textual&#45;&gt;chezmoi_mousse_splash -->
<g id="edge32" class="edge">
<title>textual&#45;&gt;chezmoi_mousse_splash</title><style>.edge>path:hover{stroke-width:8}</style>
<path fill="none" stroke="silver" d="M237.05,-438.36C317.99,-411.98 576.54,-325.29 591.02,-289.83"/>
<path fill="none" stroke="silver" d="M591.02,-287.83C597.07,-272.94 603.22,-256.19 608.22,-242.11"/>
<polygon fill="#7e06ef" stroke="silver" points="611.44,-243.51 611.45,-232.91 604.83,-241.19 611.44,-243.51"/>
</g>
<!-- textual&#45;&gt;chezmoi_mousse_theme -->
<g id="edge33" class="edge">
<title>textual&#45;&gt;chezmoi_mousse_theme</title><style>.edge>path:hover{stroke-width:8}</style>
<path fill="none" stroke="silver" d="M215.59,-428.9C217.36,-413.04 218.52,-388.98 213.02,-368.97"/>
<path fill="none" stroke="silver" d="M213.02,-366.97C206.54,-343.35 186.63,-325.3 166.79,-312.62"/>
<polygon fill="#7e06ef" stroke="silver" points="168.79,-309.74 158.41,-307.6 165.19,-315.74 168.79,-309.74"/>
</g>
<!-- textual_app&#45;&gt;chezmoi_mousse_gui -->
<g id="edge34" class="edge">
<title>textual_app&#45;&gt;chezmoi_mousse_gui</title><style>.edge>path:hover{stroke-width:8}</style>
<path fill="none" stroke="silver" d="M442.42,-428.62C460.38,-413.55 486.36,-390.83 507.02,-368.97"/>
<path fill="none" stroke="silver" d="M507.02,-366.97C555.05,-316.16 509.51,-278.87 525.02,-210.7"/>
</g>
<!-- textual_app&#45;&gt;chezmoi_mousse_main_tabs -->
<g id="edge35" class="edge">
<title>textual_app&#45;&gt;chezmoi_mousse_main_tabs</title><style>.edge>path:hover{stroke-width:8}</style>
<path fill="none" stroke="silver" d="M414.45,-428.84C406.31,-408.39 391.39,-373.68 374.02,-346.4 365.25,-332.61 338.57,-301.4 327.02,-289.83"/>
<path fill="none" stroke="silver" d="M327.02,-287.83C314.42,-275.13 305.29,-257.4 299.14,-242.15"/>
<polygon fill="blue" stroke="silver" points="302.5,-241.14 295.71,-233 295.94,-243.6 302.5,-241.14"/>
</g>
<!-- textual_app&#45;&gt;chezmoi_mousse_splash -->
<g id="edge36" class="edge">
<title>textual_app&#45;&gt;chezmoi_mousse_splash</title><style>.edge>path:hover{stroke-width:8}</style>
<path fill="none" stroke="silver" d="M507.02,-366.97C515.73,-357.76 586.23,-301.56 591.02,-289.83"/>
</g>
<!-- textual_app&#45;&gt;textual_screen -->
<g id="edge37" class="edge">
<title>textual_app&#45;&gt;textual_screen</title><style>.edge>path:hover{stroke-width:8}</style>
<path fill="none" stroke="silver" d="M463,-429.06C492.31,-417.16 531.53,-401.24 562.24,-388.77"/>
<polygon fill="blue" stroke="silver" points="461.75,-425.79 453.8,-432.79 464.38,-432.28 461.75,-425.79"/>
<polygon fill="blue" stroke="silver" points="563.36,-392.09 571.31,-385.09 560.73,-385.61 563.36,-392.09"/>
</g>
<!-- textual_containers -->
<g id="node14" class="node">
<title>textual_containers</title><style>.edge>path:hover{stroke-width:8}</style>
<ellipse fill="#8233cc" stroke="silver" cx="322.02" cy="-367.97" rx="43.13" ry="21.57"/>
<text text-anchor="middle" x="322.02" y="-369.72" font-family="Helvetica,sans-Serif" font-size="10.00" fill="#ffffff">textual.</text>
<text text-anchor="middle" x="322.02" y="-358.47" font-family="Helvetica,sans-Serif" font-size="10.00" fill="#ffffff">containers</text>
</g>
<!-- textual_containers&#45;&gt;chezmoi_mousse_gui -->
<g id="edge38" class="edge">
<title>textual_containers&#45;&gt;chezmoi_mousse_gui</title><style>.edge>path:hover{stroke-width:8}</style>
<path fill="none" stroke="silver" d="M314.01,-346.36C307.7,-330.64 298.44,-308.58 289.02,-289.83"/>
<path fill="none" stroke="silver" d="M289.02,-287.83C264.77,-239.54 153.79,-245.63 195.02,-210.7"/>
</g>
<!-- textual_containers&#45;&gt;chezmoi_mousse_main_tabs -->
<g id="edge39" class="edge">
<title>textual_containers&#45;&gt;chezmoi_mousse_main_tabs</title><style>.edge>path:hover{stroke-width:8}</style>
<path fill="none" stroke="silver" d="M289.02,-287.83C282.1,-274.05 281.41,-257.05 282.74,-242.52"/>
<polygon fill="#8233cc" stroke="silver" points="286.16,-243.38 283.97,-233.01 279.22,-242.48 286.16,-243.38"/>
</g>
<!-- textual_containers&#45;&gt;chezmoi_mousse_splash -->
<g id="edge40" class="edge">
<title>textual_containers&#45;&gt;chezmoi_mousse_splash</title><style>.edge>path:hover{stroke-width:8}</style>
<path fill="none" stroke="silver" d="M361.35,-358.56C397.75,-349.79 452.62,-333.98 496.02,-310.4 531.95,-290.88 567.65,-260.39 591.26,-238.26"/>
<polygon fill="#8233cc" stroke="silver" points="593.46,-241 598.29,-231.57 588.63,-235.93 593.46,-241"/>
</g>
<!-- textual_lazy -->
<g id="node15" class="node">
<title>textual_lazy</title><style>.edge>path:hover{stroke-width:8}</style>
<ellipse fill="#814cb3" stroke="silver" cx="780.02" cy="-288.83" rx="37.42" ry="18"/>
<text text-anchor="middle" x="780.02" y="-284.96" font-family="Helvetica,sans-Serif" font-size="10.00" fill="#ffffff">textual.lazy</text>
</g>
<!-- textual_lazy&#45;&gt;chezmoi_mousse_gui -->
<g id="edge41" class="edge">
<title>textual_lazy&#45;&gt;chezmoi_mousse_gui</title><style>.edge>path:hover{stroke-width:8}</style>
<path fill="none" stroke="silver" d="M785.39,-270.71C789.56,-253.77 792.73,-227.95 780.02,-210.7"/>
</g>
<!-- textual_screen&#45;&gt;chezmoi_mousse_gui -->
<g id="edge42" class="edge">
<title>textual_screen&#45;&gt;chezmoi_mousse_gui</title><style>.edge>path:hover{stroke-width:8}</style>
<path fill="none" stroke="silver" d="M643.76,-349.71C666.59,-336.17 696.24,-315.36 715.02,-289.83"/>
<path fill="none" stroke="silver" d="M715.02,-287.83C718.35,-283.32 783.35,-215.21 780.02,-210.7"/>
<path fill="none" stroke="silver" d="M780.02,-208.7C757.9,-178.67 662.45,-155.87 594.84,-143.1"/>
<polygon fill="blue" stroke="silver" points="595.79,-139.72 585.32,-141.34 594.51,-146.6 595.79,-139.72"/>
</g>
<!-- textual_screen&#45;&gt;chezmoi_mousse_main_tabs -->
<g id="edge43" class="edge">
<title>textual_screen&#45;&gt;chezmoi_mousse_main_tabs</title><style>.edge>path:hover{stroke-width:8}</style>
<path fill="none" stroke="silver" d="M572.53,-357.98C556.6,-354.31 537.94,-350.07 521.02,-346.4 443.43,-329.55 415.17,-349.44 346.02,-310.4 335.19,-304.28 335.82,-298.64 327.02,-289.83"/>
</g>
<!-- textual_screen&#45;&gt;chezmoi_mousse_splash -->
<g id="edge44" class="edge">
<title>textual_screen&#45;&gt;chezmoi_mousse_splash</title><style>.edge>path:hover{stroke-width:8}</style>
<path fill="none" stroke="silver" d="M600.36,-349.69C591.96,-333.77 582.92,-309.69 591.02,-289.83"/>
</g>
<!-- textual_scrollbar&#45;&gt;chezmoi_mousse_gui -->
<g id="edge46" class="edge">
<title>textual_scrollbar&#45;&gt;chezmoi_mousse_gui</title><style>.edge>path:hover{stroke-width:8}</style>
<path fill="none" stroke="silver" d="M802.63,-429.79C819.35,-415.91 840.04,-394.22 845.02,-368.97"/>
<path fill="none" stroke="silver" d="M845.02,-366.97C853.76,-322.71 845.06,-308.16 826.02,-267.27 812.35,-237.89 799.24,-236.79 780.02,-210.7"/>
</g>
<!-- textual_theme -->
<g id="node18" class="node">
<title>textual_theme</title><style>.edge>path:hover{stroke-width:8}</style>
<ellipse fill="#8233cc" stroke="silver" cx="147.02" cy="-526.23" rx="43.64" ry="18"/>
<text text-anchor="middle" x="147.02" y="-522.36" font-family="Helvetica,sans-Serif" font-size="10.00" fill="#ffffff">textual.theme</text>
</g>
<!-- textual_theme&#45;&gt;chezmoi_mousse_gui -->
<g id="edge47" class="edge">
<title>textual_theme&#45;&gt;chezmoi_mousse_gui</title><style>.edge>path:hover{stroke-width:8}</style>
<path fill="none" stroke="silver" d="M130.89,-509.4C105.59,-482.74 59.78,-426.17 63.02,-368.97"/>
<path fill="none" stroke="silver" d="M63.02,-366.97C59.92,-328.88 8.41,-324.25 25.02,-289.83"/>
</g>
<!-- textual_theme&#45;&gt;chezmoi_mousse_theme -->
<g id="edge48" class="edge">
<title>textual_theme&#45;&gt;chezmoi_mousse_theme</title><style>.edge>path:hover{stroke-width:8}</style>
<path fill="none" stroke="silver" d="M63.02,-366.97C64.08,-348.26 75.16,-331.02 87.18,-317.6"/>
<polygon fill="#8233cc" stroke="silver" points="89.65,-320.08 94.07,-310.45 84.61,-315.22 89.65,-320.08"/>
</g>
<!-- textual_theme&#45;&gt;textual_app -->
<g id="edge49" class="edge">
<title>textual_theme&#45;&gt;textual_app</title><style>.edge>path:hover{stroke-width:8}</style>
<path fill="none" stroke="silver" d="M182.28,-515.31C232.48,-501.18 324.43,-475.29 378.39,-460.1"/>
<polygon fill="#8233cc" stroke="silver" points="379.16,-463.52 387.84,-457.44 377.27,-456.78 379.16,-463.52"/>
</g>
<!-- textual_widgets -->
<g id="node19" class="node">
<title>textual_widgets</title><style>.edge>path:hover{stroke-width:8}</style>
<ellipse fill="#7e0ce9" stroke="silver" cx="570.02" cy="-526.23" rx="35.18" ry="21.57"/>
<text text-anchor="middle" x="570.02" y="-527.98" font-family="Helvetica,sans-Serif" font-size="10.00" fill="#ffffff">textual.</text>
<text text-anchor="middle" x="570.02" y="-516.73" font-family="Helvetica,sans-Serif" font-size="10.00" fill="#ffffff">widgets</text>
</g>
<!-- textual_widgets&#45;&gt;chezmoi_mousse_gui -->
<g id="edge50" class="edge">
<title>textual_widgets&#45;&gt;chezmoi_mousse_gui</title><style>.edge>path:hover{stroke-width:8}</style>
<path fill="none" stroke="silver" d="M545.02,-446.1C552,-363.43 681.91,-445.04 715.02,-368.97"/>
<path fill="none" stroke="silver" d="M715.02,-366.97C728.71,-335.53 694.7,-317.44 715.02,-289.83"/>
</g>
<!-- textual_widgets&#45;&gt;chezmoi_mousse_main_tabs -->
<g id="edge51" class="edge">
<title>textual_widgets&#45;&gt;chezmoi_mousse_main_tabs</title><style>.edge>path:hover{stroke-width:8}</style>
<path fill="none" stroke="silver" d="M558.91,-505.46C551.5,-490.19 543.38,-468.31 545.02,-448.1"/>
<path fill="none" stroke="silver" d="M545.02,-446.1C553.69,-339.4 427.45,-379.89 346.02,-310.4 336.56,-302.32 335.79,-298.67 327.02,-289.83"/>
</g>
<!-- textual_widgets&#45;&gt;chezmoi_mousse_splash -->
<g id="edge52" class="edge">
<title>textual_widgets&#45;&gt;chezmoi_mousse_splash</title><style>.edge>path:hover{stroke-width:8}</style>
<path fill="none" stroke="silver" d="M545.02,-446.1C547.8,-411.93 532.27,-400.79 545.02,-368.97"/>
</g>
<!-- textual_widgets&#45;&gt;textual_app -->
<g id="edge53" class="edge">
<title>textual_widgets&#45;&gt;textual_app</title><style>.edge>path:hover{stroke-width:8}</style>
<path fill="none" stroke="silver" d="M543.73,-511.62C521.31,-500.01 488.68,-483.12 462.7,-469.68"/>
<polygon fill="#7e0ce9" stroke="silver" points="464.58,-466.71 454.09,-465.22 461.36,-472.93 464.58,-466.71"/>
</g>
<!-- textual_widgets&#45;&gt;textual_screen -->
<g id="edge54" class="edge">
<title>textual_widgets&#45;&gt;textual_screen</title><style>.edge>path:hover{stroke-width:8}</style>
<path fill="none" stroke="silver" d="M545.02,-446.1C546.72,-425.25 561.03,-407.15 575.9,-393.74"/>
<polygon fill="#7e0ce9" stroke="silver" points="578.07,-396.48 583.46,-387.37 573.56,-391.13 578.07,-396.48"/>
</g>
</g>
</svg>
