<svg class="rich-terminal" viewBox="0 0 1238 1026.0" xmlns="http://www.w3.org/2000/svg">
    <!-- Generated with Rich https://www.textualize.io -->
    <style>
    @font-face {
        font-family: "Fira Code";
        src: local("FiraCode-Regular"),
                url("https://cdnjs.cloudflare.com/ajax/libs/firacode/6.2.0/woff2/FiraCode-Regular.woff2") format("woff2"),
                url("https://cdnjs.cloudflare.com/ajax/libs/firacode/6.2.0/woff/FiraCode-Regular.woff") format("woff");
        font-style: normal;
        font-weight: 400;
    }
    @font-face {
        font-family: "Fira Code";
        src: local("FiraCode-Bold"),
                url("https://cdnjs.cloudflare.com/ajax/libs/firacode/6.2.0/woff2/FiraCode-Bold.woff2") format("woff2"),
                url("https://cdnjs.cloudflare.com/ajax/libs/firacode/6.2.0/woff/FiraCode-Bold.woff") format("woff");
        font-style: bold;
        font-weight: 700;
    }
    .terminal-1574344077-matrix {
        font-family: Fira Code, monospace;
        font-size: 20px;
        line-height: 24.4px;
        font-variant-east-asian: full-width;
    }
    .terminal-1574344077-title {
        font-size: 18px;
        font-weight: bold;
        font-family: arial;
    }
    .terminal-1574344077-r1 { fill: #c5c8c6 }
.terminal-1574344077-r2 { fill: #0178d4;font-weight: bold }
.terminal-1574344077-r3 { fill: #404040 }
.terminal-1574344077-r4 { fill: #dcdcdc }
.terminal-1574344077-r5 { fill: #6e6e6e }
.terminal-1574344077-r6 { fill: #000000 }
.terminal-1574344077-r7 { fill: #0178d4 }
.terminal-1574344077-r8 { fill: #6db2ff }
.terminal-1574344077-r9 { fill: #c48cc9;font-weight: bold }
.terminal-1574344077-r10 { fill: #848484;font-weight: bold }
.terminal-1574344077-r11 { fill: #dcdcdc;font-weight: bold }
.terminal-1574344077-r12 { fill: #1f1f1f }
.terminal-1574344077-r13 { fill: #5684a5 }
.terminal-1574344077-r14 { fill: #f5affc }
.terminal-1574344077-r15 { fill: #17232b }
.terminal-1574344077-r16 { fill: #ffc473 }
.terminal-1574344077-r17 { fill: #8ad4a1 }
.terminal-1574344077-r18 { fill: #d17e92;font-weight: bold }
.terminal-1574344077-r19 { fill: #ffc473;font-weight: bold }
.terminal-1574344077-r20 { fill: #101010 }
.terminal-1574344077-r21 { fill: #c7c7c7 }
.terminal-1574344077-r22 { fill: #004295 }
.terminal-1574344077-r23 { fill: #002048 }
.terminal-1574344077-r24 { fill: #335070 }
.terminal-1574344077-r25 { fill: #f187fb;font-weight: bold }
.terminal-1574344077-r26 { fill: #383838 }
    </style>
    <defs>
    <clipPath id="terminal-1574344077-clip-terminal">
      <rect x="0" y="0" width="1219.0" height="975.0" />
    </clipPath>
    <clipPath id="terminal-1574344077-line-0">
    <rect x="0" y="1.5" width="1220" height="24.65"/>
            </clipPath>
<clipPath id="terminal-1574344077-line-1">
    <rect x="0" y="25.9" width="1220" height="24.65"/>
            </clipPath>
<clipPath id="terminal-1574344077-line-2">
    <rect x="0" y="50.3" width="1220" height="24.65"/>
            </clipPath>
<clipPath id="terminal-1574344077-line-3">
    <rect x="0" y="74.7" width="1220" height="24.65"/>
            </clipPath>
<clipPath id="terminal-1574344077-line-4">
    <rect x="0" y="99.1" width="1220" height="24.65"/>
            </clipPath>
<clipPath id="terminal-1574344077-line-5">
    <rect x="0" y="123.5" width="1220" height="24.65"/>
            </clipPath>
<clipPath id="terminal-1574344077-line-6">
    <rect x="0" y="147.9" width="1220" height="24.65"/>
            </clipPath>
<clipPath id="terminal-1574344077-line-7">
    <rect x="0" y="172.3" width="1220" height="24.65"/>
            </clipPath>
<clipPath id="terminal-1574344077-line-8">
    <rect x="0" y="196.7" width="1220" height="24.65"/>
            </clipPath>
<clipPath id="terminal-1574344077-line-9">
    <rect x="0" y="221.1" width="1220" height="24.65"/>
            </clipPath>
<clipPath id="terminal-1574344077-line-10">
    <rect x="0" y="245.5" width="1220" height="24.65"/>
            </clipPath>
<clipPath id="terminal-1574344077-line-11">
    <rect x="0" y="269.9" width="1220" height="24.65"/>
            </clipPath>
<clipPath id="terminal-1574344077-line-12">
    <rect x="0" y="294.3" width="1220" height="24.65"/>
            </clipPath>
<clipPath id="terminal-1574344077-line-13">
    <rect x="0" y="318.7" width="1220" height="24.65"/>
            </clipPath>
<clipPath id="terminal-1574344077-line-14">
    <rect x="0" y="343.1" width="1220" height="24.65"/>
            </clipPath>
<clipPath id="terminal-1574344077-line-15">
    <rect x="0" y="367.5" width="1220" height="24.65"/>
            </clipPath>
<clipPath id="terminal-1574344077-line-16">
    <rect x="0" y="391.9" width="1220" height="24.65"/>
            </clipPath>
<clipPath id="terminal-1574344077-line-17">
    <rect x="0" y="416.3" width="1220" height="24.65"/>
            </clipPath>
<clipPath id="terminal-1574344077-line-18">
    <rect x="0" y="440.7" width="1220" height="24.65"/>
            </clipPath>
<clipPath id="terminal-1574344077-line-19">
    <rect x="0" y="465.1" width="1220" height="24.65"/>
            </clipPath>
<clipPath id="terminal-1574344077-line-20">
    <rect x="0" y="489.5" width="1220" height="24.65"/>
            </clipPath>
<clipPath id="terminal-1574344077-line-21">
    <rect x="0" y="513.9" width="1220" height="24.65"/>
            </clipPath>
<clipPath id="terminal-1574344077-line-22">
    <rect x="0" y="538.3" width="1220" height="24.65"/>
            </clipPath>
<clipPath id="terminal-1574344077-line-23">
    <rect x="0" y="562.7" width="1220" height="24.65"/>
            </clipPath>
<clipPath id="terminal-1574344077-line-24">
    <rect x="0" y="587.1" width="1220" height="24.65"/>
            </clipPath>
<clipPath id="terminal-1574344077-line-25">
    <rect x="0" y="611.5" width="1220" height="24.65"/>
            </clipPath>
<clipPath id="terminal-1574344077-line-26">
    <rect x="0" y="635.9" width="1220" height="24.65"/>
            </clipPath>
<clipPath id="terminal-1574344077-line-27">
    <rect x="0" y="660.3" width="1220" height="24.65"/>
            </clipPath>
<clipPath id="terminal-1574344077-line-28">
    <rect x="0" y="684.7" width="1220" height="24.65"/>
            </clipPath>
<clipPath id="terminal-1574344077-line-29">
    <rect x="0" y="709.1" width="1220" height="24.65"/>
            </clipPath>
<clipPath id="terminal-1574344077-line-30">
    <rect x="0" y="733.5" width="1220" height="24.65"/>
            </clipPath>
<clipPath id="terminal-1574344077-line-31">
    <rect x="0" y="757.9" width="1220" height="24.65"/>
            </clipPath>
<clipPath id="terminal-1574344077-line-32">
    <rect x="0" y="782.3" width="1220" height="24.65"/>
            </clipPath>
<clipPath id="terminal-1574344077-line-33">
    <rect x="0" y="806.7" width="1220" height="24.65"/>
            </clipPath>
<clipPath id="terminal-1574344077-line-34">
    <rect x="0" y="831.1" width="1220" height="24.65"/>
            </clipPath>
<clipPath id="terminal-1574344077-line-35">
    <rect x="0" y="855.5" width="1220" height="24.65"/>
            </clipPath>
<clipPath id="terminal-1574344077-line-36">
    <rect x="0" y="879.9" width="1220" height="24.65"/>
            </clipPath>
<clipPath id="terminal-1574344077-line-37">
    <rect x="0" y="904.3" width="1220" height="24.65"/>
            </clipPath>
<clipPath id="terminal-1574344077-line-38">
    <rect x="0" y="928.7" width="1220" height="24.65"/>
            </clipPath>
    </defs>
    <rect fill="#292929" stroke="rgba(255,255,255,0.35)" stroke-width="1" x="1" y="1" width="1236" height="1024" rx="8"/><text class="terminal-1574344077-title" fill="#c5c8c6" text-anchor="middle" x="618" y="27">ChezmoiGUI</text>
            <g transform="translate(26,22)">
            <circle cx="0" cy="0" r="7" fill="#ff5f57"/>
            <circle cx="22" cy="0" r="7" fill="#febc2e"/>
            <circle cx="44" cy="0" r="7" fill="#28c840"/>
            </g>
    <g transform="translate(9, 41)" clip-path="url(#terminal-1574344077-clip-terminal)">
    <rect fill="#000000" x="0" y="1.5" width="12.2" height="24.65" shape-rendering="crispEdges"/><rect fill="#000000" x="12.2" y="1.5" width="12.2" height="24.65" shape-rendering="crispEdges"/><rect fill="#000000" x="24.4" y="1.5" width="61" height="24.65" shape-rendering="crispEdges"/><rect fill="#000000" x="85.4" y="1.5" width="12.2" height="24.65" shape-rendering="crispEdges"/><rect fill="#000000" x="97.6" y="1.5" width="134.2" height="24.65" shape-rendering="crispEdges"/><rect fill="#000000" x="231.8" y="1.5" width="719.8" height="24.65" shape-rendering="crispEdges"/><rect fill="#000000" x="951.6" y="1.5" width="146.4" height="24.65" shape-rendering="crispEdges"/><rect fill="#000000" x="1098" y="1.5" width="12.2" height="24.65" shape-rendering="crispEdges"/><rect fill="#000000" x="1110.2" y="1.5" width="0" height="24.65" shape-rendering="crispEdges"/><rect fill="#000000" x="1110.2" y="1.5" width="109.8" height="24.65" shape-rendering="crispEdges"/><rect fill="#000000" x="0" y="25.9" width="1220" height="24.65" shape-rendering="crispEdges"/><rect fill="#000000" x="0" y="50.3" width="268.4" height="24.65" shape-rendering="crispEdges"/><rect fill="#000000" x="268.4" y="50.3" width="61" height="24.65" shape-rendering="crispEdges"/><rect fill="#000000" x="329.4" y="50.3" width="48.8" height="24.65" shape-rendering="crispEdges"/><rect fill="#000000" x="378.2" y="50.3" width="73.2" height="24.65" shape-rendering="crispEdges"/><rect fill="#000000" x="451.4" y="50.3" width="48.8" height="24.65" shape-rendering="crispEdges"/><rect fill="#000000" x="500.2" y="50.3" width="36.6" height="24.65" shape-rendering="crispEdges"/><rect fill="#000000" x="536.8" y="50.3" width="48.8" height="24.65" shape-rendering="crispEdges"/><rect fill="#000000" x="585.6" y="50.3" width="48.8" height="24.65" shape-rendering="crispEdges"/><rect fill="#000000" x="634.4" y="50.3" width="48.8" height="24.65" shape-rendering="crispEdges"/><rect fill="#000000" x="683.2" y="50.3" width="48.8" height="24.65" shape-rendering="crispEdges"/><rect fill="#000000" x="732" y="50.3" width="48.8" height="24.65" shape-rendering="crispEdges"/><rect fill="#000000" x="780.8" y="50.3" width="73.2" height="24.65" shape-rendering="crispEdges"/><rect fill="#000000" x="854" y="50.3" width="48.8" height="24.65" shape-rendering="crispEdges"/><rect fill="#000000" x="902.8" y="50.3" width="48.8" height="24.65" shape-rendering="crispEdges"/><rect fill="#000000" x="951.6" y="50.3" width="268.4" height="24.65" shape-rendering="crispEdges"/><rect fill="#000000" x="0" y="74.7" width="268.4" height="24.65" shape-rendering="crispEdges"/><rect fill="#000000" x="268.4" y="74.7" width="61" height="24.65" shape-rendering="crispEdges"/><rect fill="#000000" x="329.4" y="74.7" width="890.6" height="24.65" shape-rendering="crispEdges"/><rect fill="#000000" x="0" y="99.1" width="48.8" height="24.65" shape-rendering="crispEdges"/><rect fill="#000000" x="48.8" y="99.1" width="146.4" height="24.65" shape-rendering="crispEdges"/><rect fill="#000000" x="195.2" y="99.1" width="195.2" height="24.65" shape-rendering="crispEdges"/><rect fill="#000000" x="390.4" y="99.1" width="73.2" height="24.65" shape-rendering="crispEdges"/><rect fill="#000000" x="463.6" y="99.1" width="219.6" height="24.65" shape-rendering="crispEdges"/><rect fill="#000000" x="683.2" y="99.1" width="122" height="24.65" shape-rendering="crispEdges"/><rect fill="#000000" x="805.2" y="99.1" width="195.2" height="24.65" shape-rendering="crispEdges"/><rect fill="#000000" x="1000.4" y="99.1" width="109.8" height="24.65" shape-rendering="crispEdges"/><rect fill="#000000" x="1110.2" y="99.1" width="109.8" height="24.65" shape-rendering="crispEdges"/><rect fill="#000000" x="0" y="123.5" width="244" height="24.65" shape-rendering="crispEdges"/><rect fill="#000000" x="244" y="123.5" width="24.4" height="24.65" shape-rendering="crispEdges"/><rect fill="#000000" x="268.4" y="123.5" width="414.8" height="24.65" shape-rendering="crispEdges"/><rect fill="#000000" x="683.2" y="123.5" width="122" height="24.65" shape-rendering="crispEdges"/><rect fill="#000000" x="805.2" y="123.5" width="414.8" height="24.65" shape-rendering="crispEdges"/><rect fill="#000000" x="0" y="147.9" width="24.4" height="24.65" shape-rendering="crispEdges"/><rect fill="#000000" x="24.4" y="147.9" width="219.6" height="24.65" shape-rendering="crispEdges"/><rect fill="#000000" x="244" y="147.9" width="24.4" height="24.65" shape-rendering="crispEdges"/><rect fill="#000000" x="268.4" y="147.9" width="951.6" height="24.65" shape-rendering="crispEdges"/><rect fill="#000000" x="0" y="172.3" width="36.6" height="24.65" shape-rendering="crispEdges"/><rect fill="#000000" x="36.6" y="172.3" width="24.4" height="24.65" shape-rendering="crispEdges"/><rect fill="#000000" x="61" y="172.3" width="85.4" height="24.65" shape-rendering="crispEdges"/><rect fill="#000000" x="146.4" y="172.3" width="97.6" height="24.65" shape-rendering="crispEdges"/><rect fill="#000000" x="244" y="172.3" width="24.4" height="24.65" shape-rendering="crispEdges"/><rect fill="#1f1f1f" x="268.4" y="172.3" width="341.6" height="24.65" shape-rendering="crispEdges"/><rect fill="#1f1f1f" x="610" y="172.3" width="256.2" height="24.65" shape-rendering="crispEdges"/><rect fill="#1f1f1f" x="866.2" y="172.3" width="353.8" height="24.65" shape-rendering="crispEdges"/><rect fill="#000000" x="0" y="196.7" width="36.6" height="24.65" shape-rendering="crispEdges"/><rect fill="#000000" x="36.6" y="196.7" width="24.4" height="24.65" shape-rendering="crispEdges"/><rect fill="#000000" x="61" y="196.7" width="109.8" height="24.65" shape-rendering="crispEdges"/><rect fill="#000000" x="170.8" y="196.7" width="73.2" height="24.65" shape-rendering="crispEdges"/><rect fill="#000000" x="244" y="196.7" width="24.4" height="24.65" shape-rendering="crispEdges"/><rect fill="#000000" x="268.4" y="196.7" width="951.6" height="24.65" shape-rendering="crispEdges"/><rect fill="#000000" x="0" y="221.1" width="36.6" height="24.65" shape-rendering="crispEdges"/><rect fill="#000000" x="36.6" y="221.1" width="24.4" height="24.65" shape-rendering="crispEdges"/><rect fill="#000000" x="61" y="221.1" width="61" height="24.65" shape-rendering="crispEdges"/><rect fill="#000000" x="122" y="221.1" width="122" height="24.65" shape-rendering="crispEdges"/><rect fill="#000000" x="244" y="221.1" width="24.4" height="24.65" shape-rendering="crispEdges"/><rect fill="#000000" x="268.4" y="221.1" width="951.6" height="24.65" shape-rendering="crispEdges"/><rect fill="#000000" x="0" y="245.5" width="36.6" height="24.65" shape-rendering="crispEdges"/><rect fill="#000000" x="36.6" y="245.5" width="207.4" height="24.65" shape-rendering="crispEdges"/><rect fill="#000000" x="244" y="245.5" width="24.4" height="24.65" shape-rendering="crispEdges"/><rect fill="#17232b" x="268.4" y="245.5" width="268.4" height="24.65" shape-rendering="crispEdges"/><rect fill="#17232b" x="536.8" y="245.5" width="414.8" height="24.65" shape-rendering="crispEdges"/><rect fill="#17232b" x="951.6" y="245.5" width="268.4" height="24.65" shape-rendering="crispEdges"/><rect fill="#000000" x="0" y="269.9" width="244" height="24.65" shape-rendering="crispEdges"/><rect fill="#000000" x="244" y="269.9" width="24.4" height="24.65" shape-rendering="crispEdges"/><rect fill="#000000" x="268.4" y="269.9" width="951.6" height="24.65" shape-rendering="crispEdges"/><rect fill="#000000" x="0" y="294.3" width="244" height="24.65" shape-rendering="crispEdges"/><rect fill="#000000" x="244" y="294.3" width="24.4" height="24.65" shape-rendering="crispEdges"/><rect fill="#000000" x="268.4" y="294.3" width="12.2" height="24.65" shape-rendering="crispEdges"/><rect fill="#000000" x="280.6" y="294.3" width="622.2" height="24.65" shape-rendering="crispEdges"/><rect fill="#000000" x="902.8" y="294.3" width="12.2" height="24.65" shape-rendering="crispEdges"/><rect fill="#000000" x="915" y="294.3" width="305" height="24.65" shape-rendering="crispEdges"/><rect fill="#000000" x="0" y="318.7" width="244" height="24.65" shape-rendering="crispEdges"/><rect fill="#000000" x="244" y="318.7" width="24.4" height="24.65" shape-rendering="crispEdges"/><rect fill="#000000" x="268.4" y="318.7" width="951.6" height="24.65" shape-rendering="crispEdges"/><rect fill="#000000" x="0" y="343.1" width="244" height="24.65" shape-rendering="crispEdges"/><rect fill="#000000" x="244" y="343.1" width="24.4" height="24.65" shape-rendering="crispEdges"/><rect fill="#17232b" x="268.4" y="343.1" width="305" height="24.65" shape-rendering="crispEdges"/><rect fill="#17232b" x="573.4" y="343.1" width="341.6" height="24.65" shape-rendering="crispEdges"/><rect fill="#17232b" x="915" y="343.1" width="305" height="24.65" shape-rendering="crispEdges"/><rect fill="#000000" x="0" y="367.5" width="244" height="24.65" shape-rendering="crispEdges"/><rect fill="#000000" x="244" y="367.5" width="24.4" height="24.65" shape-rendering="crispEdges"/><rect fill="#000000" x="268.4" y="367.5" width="951.6" height="24.65" shape-rendering="crispEdges"/><rect fill="#000000" x="0" y="391.9" width="244" height="24.65" shape-rendering="crispEdges"/><rect fill="#000000" x="244" y="391.9" width="24.4" height="24.65" shape-rendering="crispEdges"/><rect fill="#000000" x="268.4" y="391.9" width="12.2" height="24.65" shape-rendering="crispEdges"/><rect fill="#000000" x="280.6" y="391.9" width="488" height="24.65" shape-rendering="crispEdges"/><rect fill="#000000" x="768.6" y="391.9" width="12.2" height="24.65" shape-rendering="crispEdges"/><rect fill="#000000" x="780.8" y="391.9" width="439.2" height="24.65" shape-rendering="crispEdges"/><rect fill="#000000" x="0" y="416.3" width="244" height="24.65" shape-rendering="crispEdges"/><rect fill="#000000" x="244" y="416.3" width="24.4" height="24.65" shape-rendering="crispEdges"/><rect fill="#000000" x="268.4" y="416.3" width="12.2" height="24.65" shape-rendering="crispEdges"/><rect fill="#000000" x="280.6" y="416.3" width="439.2" height="24.65" shape-rendering="crispEdges"/><rect fill="#000000" x="719.8" y="416.3" width="12.2" height="24.65" shape-rendering="crispEdges"/><rect fill="#000000" x="732" y="416.3" width="488" height="24.65" shape-rendering="crispEdges"/><rect fill="#000000" x="0" y="440.7" width="244" height="24.65" shape-rendering="crispEdges"/><rect fill="#000000" x="244" y="440.7" width="24.4" height="24.65" shape-rendering="crispEdges"/><rect fill="#000000" x="268.4" y="440.7" width="12.2" height="24.65" shape-rendering="crispEdges"/><rect fill="#000000" x="280.6" y="440.7" width="707.6" height="24.65" shape-rendering="crispEdges"/><rect fill="#000000" x="988.2" y="440.7" width="12.2" height="24.65" shape-rendering="crispEdges"/><rect fill="#000000" x="1000.4" y="440.7" width="219.6" height="24.65" shape-rendering="crispEdges"/><rect fill="#000000" x="0" y="465.1" width="244" height="24.65" shape-rendering="crispEdges"/><rect fill="#000000" x="244" y="465.1" width="24.4" height="24.65" shape-rendering="crispEdges"/><rect fill="#000000" x="268.4" y="465.1" width="12.2" height="24.65" shape-rendering="crispEdges"/><rect fill="#000000" x="280.6" y="465.1" width="475.8" height="24.65" shape-rendering="crispEdges"/><rect fill="#000000" x="756.4" y="465.1" width="12.2" height="24.65" shape-rendering="crispEdges"/><rect fill="#000000" x="768.6" y="465.1" width="451.4" height="24.65" shape-rendering="crispEdges"/><rect fill="#000000" x="0" y="489.5" width="244" height="24.65" shape-rendering="crispEdges"/><rect fill="#000000" x="244" y="489.5" width="24.4" height="24.65" shape-rendering="crispEdges"/><rect fill="#000000" x="268.4" y="489.5" width="12.2" height="24.65" shape-rendering="crispEdges"/><rect fill="#000000" x="280.6" y="489.5" width="841.8" height="24.65" shape-rendering="crispEdges"/><rect fill="#000000" x="1122.4" y="489.5" width="12.2" height="24.65" shape-rendering="crispEdges"/><rect fill="#000000" x="1134.6" y="489.5" width="85.4" height="24.65" shape-rendering="crispEdges"/><rect fill="#000000" x="0" y="513.9" width="244" height="24.65" shape-rendering="crispEdges"/><rect fill="#000000" x="244" y="513.9" width="24.4" height="24.65" shape-rendering="crispEdges"/><rect fill="#000000" x="268.4" y="513.9" width="12.2" height="24.65" shape-rendering="crispEdges"/><rect fill="#000000" x="280.6" y="513.9" width="841.8" height="24.65" shape-rendering="crispEdges"/><rect fill="#000000" x="1122.4" y="513.9" width="12.2" height="24.65" shape-rendering="crispEdges"/><rect fill="#000000" x="1134.6" y="513.9" width="85.4" height="24.65" shape-rendering="crispEdges"/><rect fill="#000000" x="0" y="538.3" width="244" height="24.65" shape-rendering="crispEdges"/><rect fill="#000000" x="244" y="538.3" width="24.4" height="24.65" shape-rendering="crispEdges"/><rect fill="#000000" x="268.4" y="538.3" width="12.2" height="24.65" shape-rendering="crispEdges"/><rect fill="#000000" x="280.6" y="538.3" width="841.8" height="24.65" shape-rendering="crispEdges"/><rect fill="#000000" x="1122.4" y="538.3" width="12.2" height="24.65" shape-rendering="crispEdges"/><rect fill="#000000" x="1134.6" y="538.3" width="85.4" height="24.65" shape-rendering="crispEdges"/><rect fill="#000000" x="0" y="562.7" width="244" height="24.65" shape-rendering="crispEdges"/><rect fill="#000000" x="244" y="562.7" width="24.4" height="24.65" shape-rendering="crispEdges"/><rect fill="#000000" x="268.4" y="562.7" width="12.2" height="24.65" shape-rendering="crispEdges"/><rect fill="#000000" x="280.6" y="562.7" width="841.8" height="24.65" shape-rendering="crispEdges"/><rect fill="#000000" x="1122.4" y="562.7" width="12.2" height="24.65" shape-rendering="crispEdges"/><rect fill="#000000" x="1134.6" y="562.7" width="85.4" height="24.65" shape-rendering="crispEdges"/><rect fill="#000000" x="0" y="587.1" width="244" height="24.65" shape-rendering="crispEdges"/><rect fill="#000000" x="244" y="587.1" width="24.4" height="24.65" shape-rendering="crispEdges"/><rect fill="#000000" x="268.4" y="587.1" width="12.2" height="24.65" shape-rendering="crispEdges"/><rect fill="#000000" x="280.6" y="587.1" width="317.2" height="24.65" shape-rendering="crispEdges"/><rect fill="#000000" x="597.8" y="587.1" width="12.2" height="24.65" shape-rendering="crispEdges"/><rect fill="#000000" x="610" y="587.1" width="610" height="24.65" shape-rendering="crispEdges"/><rect fill="#000000" x="0" y="611.5" width="244" height="24.65" shape-rendering="crispEdges"/><rect fill="#000000" x="244" y="611.5" width="24.4" height="24.65" shape-rendering="crispEdges"/><rect fill="#000000" x="268.4" y="611.5" width="12.2" height="24.65" shape-rendering="crispEdges"/><rect fill="#000000" x="280.6" y="611.5" width="646.6" height="24.65" shape-rendering="crispEdges"/><rect fill="#000000" x="927.2" y="611.5" width="12.2" height="24.65" shape-rendering="crispEdges"/><rect fill="#000000" x="939.4" y="611.5" width="280.6" height="24.65" shape-rendering="crispEdges"/><rect fill="#000000" x="0" y="635.9" width="244" height="24.65" shape-rendering="crispEdges"/><rect fill="#000000" x="244" y="635.9" width="976" height="24.65" shape-rendering="crispEdges"/><rect fill="#000000" x="0" y="660.3" width="244" height="24.65" shape-rendering="crispEdges"/><rect fill="#000000" x="244" y="660.3" width="976" height="24.65" shape-rendering="crispEdges"/><rect fill="#000000" x="0" y="684.7" width="244" height="24.65" shape-rendering="crispEdges"/><rect fill="#000000" x="244" y="684.7" width="976" height="24.65" shape-rendering="crispEdges"/><rect fill="#101010" x="0" y="709.1" width="378.2" height="24.65" shape-rendering="crispEdges"/><rect fill="#000000" x="378.2" y="709.1" width="841.8" height="24.65" shape-rendering="crispEdges"/><rect fill="#101010" x="0" y="733.5" width="24.4" height="24.65" shape-rendering="crispEdges"/><rect fill="#780028" x="24.4" y="733.5" width="24.4" height="24.65" shape-rendering="crispEdges"/><rect fill="#000000" x="48.8" y="733.5" width="24.4" height="24.65" shape-rendering="crispEdges"/><rect fill="#101010" x="73.2" y="733.5" width="24.4" height="24.65" shape-rendering="crispEdges"/><rect fill="#101010" x="97.6" y="733.5" width="244" height="24.65" shape-rendering="crispEdges"/><rect fill="#101010" x="341.6" y="733.5" width="24.4" height="24.65" shape-rendering="crispEdges"/><rect fill="#101010" x="366" y="733.5" width="12.2" height="24.65" shape-rendering="crispEdges"/><rect fill="#000000" x="378.2" y="733.5" width="841.8" height="24.65" shape-rendering="crispEdges"/><rect fill="#101010" x="0" y="757.9" width="366" height="24.65" shape-rendering="crispEdges"/><rect fill="#101010" x="366" y="757.9" width="12.2" height="24.65" shape-rendering="crispEdges"/><rect fill="#000000" x="378.2" y="757.9" width="841.8" height="24.65" shape-rendering="crispEdges"/><rect fill="#101010" x="0" y="782.3" width="24.4" height="24.65" shape-rendering="crispEdges"/><rect fill="#780028" x="24.4" y="782.3" width="24.4" height="24.65" shape-rendering="crispEdges"/><rect fill="#000000" x="48.8" y="782.3" width="24.4" height="24.65" shape-rendering="crispEdges"/><rect fill="#101010" x="73.2" y="782.3" width="24.4" height="24.65" shape-rendering="crispEdges"/><rect fill="#101010" x="97.6" y="782.3" width="183" height="24.65" shape-rendering="crispEdges"/><rect fill="#101010" x="280.6" y="782.3" width="85.4" height="24.65" shape-rendering="crispEdges"/><rect fill="#101010" x="366" y="782.3" width="12.2" height="24.65" shape-rendering="crispEdges"/><rect fill="#000000" x="378.2" y="782.3" width="841.8" height="24.65" shape-rendering="crispEdges"/><rect fill="#101010" x="0" y="806.7" width="378.2" height="24.65" shape-rendering="crispEdges"/><rect fill="#000000" x="378.2" y="806.7" width="841.8" height="24.65" shape-rendering="crispEdges"/><rect fill="#000000" x="0" y="831.1" width="244" height="24.65" shape-rendering="crispEdges"/><rect fill="#000000" x="244" y="831.1" width="976" height="24.65" shape-rendering="crispEdges"/><rect fill="#000000" x="0" y="855.5" width="244" height="24.65" shape-rendering="crispEdges"/><rect fill="#000000" x="244" y="855.5" width="976" height="24.65" shape-rendering="crispEdges"/><rect fill="#000000" x="0" y="879.9" width="12.2" height="24.65" shape-rendering="crispEdges"/><rect fill="#000000" x="12.2" y="879.9" width="219.6" height="24.65" shape-rendering="crispEdges"/><rect fill="#000000" x="231.8" y="879.9" width="48.8" height="24.65" shape-rendering="crispEdges"/><rect fill="#000000" x="280.6" y="879.9" width="292.8" height="24.65" shape-rendering="crispEdges"/><rect fill="#000000" x="573.4" y="879.9" width="12.2" height="24.65" shape-rendering="crispEdges"/><rect fill="#000000" x="585.6" y="879.9" width="305" height="24.65" shape-rendering="crispEdges"/><rect fill="#000000" x="890.6" y="879.9" width="12.2" height="24.65" shape-rendering="crispEdges"/><rect fill="#000000" x="902.8" y="879.9" width="305" height="24.65" shape-rendering="crispEdges"/><rect fill="#000000" x="1207.8" y="879.9" width="12.2" height="24.65" shape-rendering="crispEdges"/><rect fill="#000000" x="0" y="904.3" width="12.2" height="24.65" shape-rendering="crispEdges"/><rect fill="#1f1f1f" x="12.2" y="904.3" width="12.2" height="24.65" shape-rendering="crispEdges"/><rect fill="#1f1f1f" x="24.4" y="904.3" width="183" height="24.65" shape-rendering="crispEdges"/><rect fill="#1f1f1f" x="207.4" y="904.3" width="24.4" height="24.65" shape-rendering="crispEdges"/><rect fill="#000000" x="231.8" y="904.3" width="48.8" height="24.65" shape-rendering="crispEdges"/><rect fill="#1f1f1f" x="280.6" y="904.3" width="24.4" height="24.65" shape-rendering="crispEdges"/><rect fill="#1f1f1f" x="305" y="904.3" width="231.8" height="24.65" shape-rendering="crispEdges"/><rect fill="#1f1f1f" x="536.8" y="904.3" width="36.6" height="24.65" shape-rendering="crispEdges"/><rect fill="#000000" x="573.4" y="904.3" width="12.2" height="24.65" shape-rendering="crispEdges"/><rect fill="#0e0e0e" x="585.6" y="904.3" width="24.4" height="24.65" shape-rendering="crispEdges"/><rect fill="#0e0e0e" x="610" y="904.3" width="256.2" height="24.65" shape-rendering="crispEdges"/><rect fill="#0e0e0e" x="866.2" y="904.3" width="24.4" height="24.65" shape-rendering="crispEdges"/><rect fill="#000000" x="890.6" y="904.3" width="12.2" height="24.65" shape-rendering="crispEdges"/><rect fill="#0e0e0e" x="902.8" y="904.3" width="24.4" height="24.65" shape-rendering="crispEdges"/><rect fill="#0e0e0e" x="927.2" y="904.3" width="244" height="24.65" shape-rendering="crispEdges"/><rect fill="#0e0e0e" x="1171.2" y="904.3" width="36.6" height="24.65" shape-rendering="crispEdges"/><rect fill="#000000" x="1207.8" y="904.3" width="12.2" height="24.65" shape-rendering="crispEdges"/><rect fill="#000000" x="0" y="928.7" width="1220" height="24.65" shape-rendering="crispEdges"/><rect fill="#101010" x="0" y="953.1" width="97.6" height="24.65" shape-rendering="crispEdges"/><rect fill="#101010" x="97.6" y="953.1" width="61" height="24.65" shape-rendering="crispEdges"/><rect fill="#101010" x="158.6" y="953.1" width="36.6" height="24.65" shape-rendering="crispEdges"/><rect fill="#101010" x="195.2" y="953.1" width="109.8" height="24.65" shape-rendering="crispEdges"/><rect fill="#101010" x="305" y="953.1" width="36.6" height="24.65" shape-rendering="crispEdges"/><rect fill="#101010" x="341.6" y="953.1" width="158.6" height="24.65" shape-rendering="crispEdges"/><rect fill="#101010" x="500.2" y="953.1" width="36.6" height="24.65" shape-rendering="crispEdges"/><rect fill="#101010" x="536.8" y="953.1" width="207.4" height="24.65" shape-rendering="crispEdges"/><rect fill="#101010" x="744.2" y="953.1" width="329.4" height="24.65" shape-rendering="crispEdges"/><rect fill="#101010" x="1073.6" y="953.1" width="12.2" height="24.65" shape-rendering="crispEdges"/><rect fill="#101010" x="1085.8" y="953.1" width="24.4" height="24.65" shape-rendering="crispEdges"/><rect fill="#101010" x="1110.2" y="953.1" width="97.6" height="24.65" shape-rendering="crispEdges"/><rect fill="#101010" x="1207.8" y="953.1" width="12.2" height="24.65" shape-rendering="crispEdges"/>
    <g class="terminal-1574344077-matrix">
    <text class="terminal-1574344077-r2" x="12.2" y="20" textLength="12.2" clip-path="url(#terminal-1574344077-line-0)">≡</text><text class="terminal-1574344077-r2" x="231.8" y="20" textLength="719.8" clip-path="url(#terminal-1574344077-line-0)">-&#160;&#160;c&#160;h&#160;e&#160;z&#160;m&#160;o&#160;i&#160;&#160;m&#160;o&#160;u&#160;s&#160;s&#160;e&#160;&#160;--&#160;&#160;d&#160;r&#160;y&#160;&#160;r&#160;u&#160;n&#160;&#160;m&#160;o&#160;d&#160;e&#160;&#160;-</text><text class="terminal-1574344077-r1" x="1220" y="20" textLength="12.2" clip-path="url(#terminal-1574344077-line-0)">
</text><text class="terminal-1574344077-r3" x="0" y="44.4" textLength="1220" clip-path="url(#terminal-1574344077-line-1)">╍╍╍╍╍╍╍╍╍╍╍╍╍╍╍╍╍╍╍╍╍╍╍╍╍╍╍╍╍╍╍╍╍╍╍╍╍╍╍╍╍╍╍╍╍╍╍╍╍╍╍╍╍╍╍╍╍╍╍╍╍╍╍╍╍╍╍╍╍╍╍╍╍╍╍╍╍╍╍╍╍╍╍╍╍╍╍╍╍╍╍╍╍╍╍╍╍╍╍╍</text><text class="terminal-1574344077-r1" x="1220" y="44.4" textLength="12.2" clip-path="url(#terminal-1574344077-line-1)">
</text><text class="terminal-1574344077-r4" x="268.4" y="68.8" textLength="61" clip-path="url(#terminal-1574344077-line-2)">Apply</text><text class="terminal-1574344077-r5" x="378.2" y="68.8" textLength="73.2" clip-path="url(#terminal-1574344077-line-2)">Re-Add</text><text class="terminal-1574344077-r5" x="500.2" y="68.8" textLength="36.6" clip-path="url(#terminal-1574344077-line-2)">Add</text><text class="terminal-1574344077-r5" x="585.6" y="68.8" textLength="48.8" clip-path="url(#terminal-1574344077-line-2)">Init</text><text class="terminal-1574344077-r5" x="683.2" y="68.8" textLength="48.8" clip-path="url(#terminal-1574344077-line-2)">Logs</text><text class="terminal-1574344077-r5" x="780.8" y="68.8" textLength="73.2" clip-path="url(#terminal-1574344077-line-2)">Config</text><text class="terminal-1574344077-r5" x="902.8" y="68.8" textLength="48.8" clip-path="url(#terminal-1574344077-line-2)">Help</text><text class="terminal-1574344077-r1" x="1220" y="68.8" textLength="12.2" clip-path="url(#terminal-1574344077-line-2)">
</text><text class="terminal-1574344077-r6" x="0" y="93.2" textLength="268.4" clip-path="url(#terminal-1574344077-line-3)">━━━━━━━━━━━━━━━━━━━━━╸</text><text class="terminal-1574344077-r7" x="268.4" y="93.2" textLength="61" clip-path="url(#terminal-1574344077-line-3)">━━━━━</text><text class="terminal-1574344077-r6" x="329.4" y="93.2" textLength="890.6" clip-path="url(#terminal-1574344077-line-3)">╺━━━━━━━━━━━━━━━━━━━━━━━━━━━━━━━━━━━━━━━━━━━━━━━━━━━━━━━━━━━━━━━━━━━━━━━━</text><text class="terminal-1574344077-r1" x="1220" y="93.2" textLength="12.2" clip-path="url(#terminal-1574344077-line-3)">
</text><text class="terminal-1574344077-r8" x="48.8" y="117.6" textLength="146.4" clip-path="url(#terminal-1574344077-line-4)">destDir&#160;tree</text><text class="terminal-1574344077-r9" x="390.4" y="117.6" textLength="73.2" clip-path="url(#terminal-1574344077-line-4)">&#160;Diff&#160;</text><text class="terminal-1574344077-r10" x="683.2" y="117.6" textLength="122" clip-path="url(#terminal-1574344077-line-4)">&#160;Contents&#160;</text><text class="terminal-1574344077-r10" x="1000.4" y="117.6" textLength="109.8" clip-path="url(#terminal-1574344077-line-4)">&#160;Git-Log&#160;</text><text class="terminal-1574344077-r1" x="1220" y="117.6" textLength="12.2" clip-path="url(#terminal-1574344077-line-4)">
</text><text class="terminal-1574344077-r7" x="0" y="142" textLength="244" clip-path="url(#terminal-1574344077-line-5)">────────────────────</text><text class="terminal-1574344077-r7" x="268.4" y="142" textLength="414.8" clip-path="url(#terminal-1574344077-line-5)">──────────────────────────────────</text><text class="terminal-1574344077-r2" x="683.2" y="142" textLength="122" clip-path="url(#terminal-1574344077-line-5)">&#160;/home/mm&#160;</text><text class="terminal-1574344077-r7" x="805.2" y="142" textLength="414.8" clip-path="url(#terminal-1574344077-line-5)">──────────────────────────────────</text><text class="terminal-1574344077-r1" x="1220" y="142" textLength="12.2" clip-path="url(#terminal-1574344077-line-5)">
</text><text class="terminal-1574344077-r11" x="0" y="166.4" textLength="24.4" clip-path="url(#terminal-1574344077-line-6)">mm</text><text class="terminal-1574344077-r12" x="268.4" y="166.4" textLength="951.6" clip-path="url(#terminal-1574344077-line-6)">▄▄▄▄▄▄▄▄▄▄▄▄▄▄▄▄▄▄▄▄▄▄▄▄▄▄▄▄▄▄▄▄▄▄▄▄▄▄▄▄▄▄▄▄▄▄▄▄▄▄▄▄▄▄▄▄▄▄▄▄▄▄▄▄▄▄▄▄▄▄▄▄▄▄▄▄▄▄</text><text class="terminal-1574344077-r1" x="1220" y="166.4" textLength="12.2" clip-path="url(#terminal-1574344077-line-6)">
</text><text class="terminal-1574344077-r8" x="0" y="190.8" textLength="36.6" clip-path="url(#terminal-1574344077-line-7)">├─&#160;</text><text class="terminal-1574344077-r4" x="36.6" y="190.8" textLength="24.4" clip-path="url(#terminal-1574344077-line-7)">▸&#160;</text><text class="terminal-1574344077-r13" x="61" y="190.8" textLength="85.4" clip-path="url(#terminal-1574344077-line-7)">.config</text><text class="terminal-1574344077-r14" x="610" y="190.8" textLength="256.2" clip-path="url(#terminal-1574344077-line-7)">Destination&#160;directory</text><text class="terminal-1574344077-r1" x="1220" y="190.8" textLength="12.2" clip-path="url(#terminal-1574344077-line-7)">
</text><text class="terminal-1574344077-r8" x="0" y="215.2" textLength="36.6" clip-path="url(#terminal-1574344077-line-8)">├─&#160;</text><text class="terminal-1574344077-r4" x="36.6" y="215.2" textLength="24.4" clip-path="url(#terminal-1574344077-line-8)">▸&#160;</text><text class="terminal-1574344077-r13" x="61" y="215.2" textLength="109.8" clip-path="url(#terminal-1574344077-line-8)">_test_dir</text><text class="terminal-1574344077-r12" x="268.4" y="215.2" textLength="951.6" clip-path="url(#terminal-1574344077-line-8)">▀▀▀▀▀▀▀▀▀▀▀▀▀▀▀▀▀▀▀▀▀▀▀▀▀▀▀▀▀▀▀▀▀▀▀▀▀▀▀▀▀▀▀▀▀▀▀▀▀▀▀▀▀▀▀▀▀▀▀▀▀▀▀▀▀▀▀▀▀▀▀▀▀▀▀▀▀▀</text><text class="terminal-1574344077-r1" x="1220" y="215.2" textLength="12.2" clip-path="url(#terminal-1574344077-line-8)">
</text><text class="terminal-1574344077-r8" x="0" y="239.6" textLength="36.6" clip-path="url(#terminal-1574344077-line-9)">├─&#160;</text><text class="terminal-1574344077-r4" x="36.6" y="239.6" textLength="24.4" clip-path="url(#terminal-1574344077-line-9)">▸&#160;</text><text class="terminal-1574344077-r13" x="61" y="239.6" textLength="61" clip-path="url(#terminal-1574344077-line-9)">repos</text><text class="terminal-1574344077-r15" x="268.4" y="239.6" textLength="951.6" clip-path="url(#terminal-1574344077-line-9)">▁▁▁▁▁▁▁▁▁▁▁▁▁▁▁▁▁▁▁▁▁▁▁▁▁▁▁▁▁▁▁▁▁▁▁▁▁▁▁▁▁▁▁▁▁▁▁▁▁▁▁▁▁▁▁▁▁▁▁▁▁▁▁▁▁▁▁▁▁▁▁▁▁▁▁▁▁▁</text><text class="terminal-1574344077-r1" x="1220" y="239.6" textLength="12.2" clip-path="url(#terminal-1574344077-line-9)">
</text><text class="terminal-1574344077-r8" x="0" y="264" textLength="36.6" clip-path="url(#terminal-1574344077-line-10)">└─&#160;</text><text class="terminal-1574344077-r16" x="36.6" y="264" textLength="207.4" clip-path="url(#terminal-1574344077-line-10)">_test_file_1.toml</text><text class="terminal-1574344077-r17" x="536.8" y="264" textLength="414.8" clip-path="url(#terminal-1574344077-line-10)">Contains&#160;directories&#160;with&#160;a&#160;status</text><text class="terminal-1574344077-r1" x="1220" y="264" textLength="12.2" clip-path="url(#terminal-1574344077-line-10)">
</text><text class="terminal-1574344077-r15" x="268.4" y="288.4" textLength="951.6" clip-path="url(#terminal-1574344077-line-11)">▔▔▔▔▔▔▔▔▔▔▔▔▔▔▔▔▔▔▔▔▔▔▔▔▔▔▔▔▔▔▔▔▔▔▔▔▔▔▔▔▔▔▔▔▔▔▔▔▔▔▔▔▔▔▔▔▔▔▔▔▔▔▔▔▔▔▔▔▔▔▔▔▔▔▔▔▔▔</text><text class="terminal-1574344077-r1" x="1220" y="288.4" textLength="12.2" clip-path="url(#terminal-1574344077-line-11)">
</text><text class="terminal-1574344077-r18" x="280.6" y="312.8" textLength="622.2" clip-path="url(#terminal-1574344077-line-12)">/home/mm/_test_dir/_test_sub_dir_1/_test_nested_dir</text><text class="terminal-1574344077-r1" x="1220" y="312.8" textLength="12.2" clip-path="url(#terminal-1574344077-line-12)">
</text><text class="terminal-1574344077-r15" x="268.4" y="337.2" textLength="951.6" clip-path="url(#terminal-1574344077-line-13)">▁▁▁▁▁▁▁▁▁▁▁▁▁▁▁▁▁▁▁▁▁▁▁▁▁▁▁▁▁▁▁▁▁▁▁▁▁▁▁▁▁▁▁▁▁▁▁▁▁▁▁▁▁▁▁▁▁▁▁▁▁▁▁▁▁▁▁▁▁▁▁▁▁▁▁▁▁▁</text><text class="terminal-1574344077-r1" x="1220" y="337.2" textLength="12.2" clip-path="url(#terminal-1574344077-line-13)">
</text><text class="terminal-1574344077-r17" x="573.4" y="361.6" textLength="341.6" clip-path="url(#terminal-1574344077-line-14)">Contains&#160;files&#160;with&#160;a&#160;status</text><text class="terminal-1574344077-r1" x="1220" y="361.6" textLength="12.2" clip-path="url(#terminal-1574344077-line-14)">
</text><text class="terminal-1574344077-r15" x="268.4" y="386" textLength="951.6" clip-path="url(#terminal-1574344077-line-15)">▔▔▔▔▔▔▔▔▔▔▔▔▔▔▔▔▔▔▔▔▔▔▔▔▔▔▔▔▔▔▔▔▔▔▔▔▔▔▔▔▔▔▔▔▔▔▔▔▔▔▔▔▔▔▔▔▔▔▔▔▔▔▔▔▔▔▔▔▔▔▔▔▔▔▔▔▔▔</text><text class="terminal-1574344077-r1" x="1220" y="386" textLength="12.2" clip-path="url(#terminal-1574344077-line-15)">
</text><text class="terminal-1574344077-r19" x="280.6" y="410.4" textLength="488" clip-path="url(#terminal-1574344077-line-16)">/home/mm/.config/Code/User/settings.json</text><text class="terminal-1574344077-r1" x="1220" y="410.4" textLength="12.2" clip-path="url(#terminal-1574344077-line-16)">
</text><text class="terminal-1574344077-r18" x="280.6" y="434.8" textLength="439.2" clip-path="url(#terminal-1574344077-line-17)">/home/mm/.config/alacritty/font.toml</text><text class="terminal-1574344077-r1" x="1220" y="434.8" textLength="12.2" clip-path="url(#terminal-1574344077-line-17)">
</text><text class="terminal-1574344077-r19" x="280.6" y="459.2" textLength="707.6" clip-path="url(#terminal-1574344077-line-18)">/home/mm/_test_dir/_test_dir_with_status/_test_file_3.toml</text><text class="terminal-1574344077-r1" x="1220" y="459.2" textLength="12.2" clip-path="url(#terminal-1574344077-line-18)">
</text><text class="terminal-1574344077-r19" x="280.6" y="483.6" textLength="475.8" clip-path="url(#terminal-1574344077-line-19)">/home/mm/_test_dir/_test_file_large.txt</text><text class="terminal-1574344077-r1" x="1220" y="483.6" textLength="12.2" clip-path="url(#terminal-1574344077-line-19)">
</text><text class="terminal-1574344077-r18" x="280.6" y="508" textLength="841.8" clip-path="url(#terminal-1574344077-line-20)">/home/mm/_test_dir/_test_sub_dir_1/_test_nested_dir/_test_file_1.toml</text><text class="terminal-1574344077-r1" x="1220" y="508" textLength="12.2" clip-path="url(#terminal-1574344077-line-20)">
</text><text class="terminal-1574344077-r18" x="280.6" y="532.4" textLength="841.8" clip-path="url(#terminal-1574344077-line-21)">/home/mm/_test_dir/_test_sub_dir_1/_test_nested_dir/_test_file_3.toml</text><text class="terminal-1574344077-r1" x="1220" y="532.4" textLength="12.2" clip-path="url(#terminal-1574344077-line-21)">
</text><text class="terminal-1574344077-r19" x="280.6" y="556.8" textLength="841.8" clip-path="url(#terminal-1574344077-line-22)">/home/mm/_test_dir/_test_sub_dir_2/_test_nested_dir/_test_file_1.toml</text><text class="terminal-1574344077-r1" x="1220" y="556.8" textLength="12.2" clip-path="url(#terminal-1574344077-line-22)">
</text><text class="terminal-1574344077-r19" x="280.6" y="581.2" textLength="841.8" clip-path="url(#terminal-1574344077-line-23)">/home/mm/_test_dir/_test_sub_dir_2/_test_nested_dir/_test_file_3.toml</text><text class="terminal-1574344077-r1" x="1220" y="581.2" textLength="12.2" clip-path="url(#terminal-1574344077-line-23)">
</text><text class="terminal-1574344077-r19" x="280.6" y="605.6" textLength="317.2" clip-path="url(#terminal-1574344077-line-24)">/home/mm/_test_file_1.toml</text><text class="terminal-1574344077-r1" x="1220" y="605.6" textLength="12.2" clip-path="url(#terminal-1574344077-line-24)">
</text><text class="terminal-1574344077-r19" x="280.6" y="630" textLength="646.6" clip-path="url(#terminal-1574344077-line-25)">/home/mm/repos/chezmoi-mousse/.pre-commit-config.yaml</text><text class="terminal-1574344077-r1" x="1220" y="630" textLength="12.2" clip-path="url(#terminal-1574344077-line-25)">
</text><text class="terminal-1574344077-r1" x="1220" y="654.4" textLength="12.2" clip-path="url(#terminal-1574344077-line-26)">
</text><text class="terminal-1574344077-r1" x="1220" y="678.8" textLength="12.2" clip-path="url(#terminal-1574344077-line-27)">
</text><text class="terminal-1574344077-r1" x="1220" y="703.2" textLength="12.2" clip-path="url(#terminal-1574344077-line-28)">
</text><text class="terminal-1574344077-r7" x="0" y="727.6" textLength="378.2" clip-path="url(#terminal-1574344077-line-29)">──────────────────────────────╮</text><text class="terminal-1574344077-r1" x="1220" y="727.6" textLength="12.2" clip-path="url(#terminal-1574344077-line-29)">
</text><text class="terminal-1574344077-r21" x="97.6" y="752" textLength="244" clip-path="url(#terminal-1574344077-line-30)">Show&#160;unchanged&#160;paths</text><text class="terminal-1574344077-r7" x="366" y="752" textLength="12.2" clip-path="url(#terminal-1574344077-line-30)">│</text><text class="terminal-1574344077-r1" x="1220" y="752" textLength="12.2" clip-path="url(#terminal-1574344077-line-30)">
</text><text class="terminal-1574344077-r7" x="366" y="776.4" textLength="12.2" clip-path="url(#terminal-1574344077-line-31)">│</text><text class="terminal-1574344077-r1" x="1220" y="776.4" textLength="12.2" clip-path="url(#terminal-1574344077-line-31)">
</text><text class="terminal-1574344077-r21" x="97.6" y="800.8" textLength="183" clip-path="url(#terminal-1574344077-line-32)">Expand&#160;all&#160;dirs</text><text class="terminal-1574344077-r7" x="366" y="800.8" textLength="12.2" clip-path="url(#terminal-1574344077-line-32)">│</text><text class="terminal-1574344077-r1" x="1220" y="800.8" textLength="12.2" clip-path="url(#terminal-1574344077-line-32)">
</text><text class="terminal-1574344077-r7" x="0" y="825.2" textLength="378.2" clip-path="url(#terminal-1574344077-line-33)">──────────────────────────────╯</text><text class="terminal-1574344077-r1" x="1220" y="825.2" textLength="12.2" clip-path="url(#terminal-1574344077-line-33)">
</text><text class="terminal-1574344077-r1" x="1220" y="849.6" textLength="12.2" clip-path="url(#terminal-1574344077-line-34)">
</text><text class="terminal-1574344077-r1" x="1220" y="874" textLength="12.2" clip-path="url(#terminal-1574344077-line-35)">
</text><text class="terminal-1574344077-r12" x="12.2" y="898.4" textLength="219.6" clip-path="url(#terminal-1574344077-line-36)">▁▁▁▁▁▁▁▁▁▁▁▁▁▁▁▁▁▁</text><text class="terminal-1574344077-r22" x="280.6" y="898.4" textLength="292.8" clip-path="url(#terminal-1574344077-line-36)">▁▁▁▁▁▁▁▁▁▁▁▁▁▁▁▁▁▁▁▁▁▁▁▁</text><text class="terminal-1574344077-r23" x="585.6" y="898.4" textLength="305" clip-path="url(#terminal-1574344077-line-36)">▁▁▁▁▁▁▁▁▁▁▁▁▁▁▁▁▁▁▁▁▁▁▁▁▁</text><text class="terminal-1574344077-r23" x="902.8" y="898.4" textLength="305" clip-path="url(#terminal-1574344077-line-36)">▁▁▁▁▁▁▁▁▁▁▁▁▁▁▁▁▁▁▁▁▁▁▁▁▁</text><text class="terminal-1574344077-r1" x="1220" y="898.4" textLength="12.2" clip-path="url(#terminal-1574344077-line-36)">
</text><text class="terminal-1574344077-r8" x="24.4" y="922.8" textLength="183" clip-path="url(#terminal-1574344077-line-37)">&#160;Refresh&#160;Trees&#160;</text><text class="terminal-1574344077-r8" x="305" y="922.8" textLength="231.8" clip-path="url(#terminal-1574344077-line-37)">&#160;Review&#160;Apply&#160;Path&#160;</text><text class="terminal-1574344077-r24" x="610" y="922.8" textLength="256.2" clip-path="url(#terminal-1574344077-line-37)">&#160;Review&#160;Destroy&#160;Path&#160;</text><text class="terminal-1574344077-r24" x="927.2" y="922.8" textLength="244" clip-path="url(#terminal-1574344077-line-37)">&#160;Review&#160;Forget&#160;Path&#160;</text><text class="terminal-1574344077-r1" x="1220" y="922.8" textLength="12.2" clip-path="url(#terminal-1574344077-line-37)">
</text><text class="terminal-1574344077-r20" x="0" y="947.2" textLength="1220" clip-path="url(#terminal-1574344077-line-38)">▁▁▁▁▁▁▁▁▁▁▁▁▁▁▁▁▁▁▁▁▁▁▁▁▁▁▁▁▁▁▁▁▁▁▁▁▁▁▁▁▁▁▁▁▁▁▁▁▁▁▁▁▁▁▁▁▁▁▁▁▁▁▁▁▁▁▁▁▁▁▁▁▁▁▁▁▁▁▁▁▁▁▁▁▁▁▁▁▁▁▁▁▁▁▁▁▁▁▁▁</text><text class="terminal-1574344077-r1" x="1220" y="947.2" textLength="12.2" clip-path="url(#terminal-1574344077-line-38)">
</text><text class="terminal-1574344077-r25" x="0" y="971.6" textLength="97.6" clip-path="url(#terminal-1574344077-line-39)">&#160;Ctrl-q&#160;</text><text class="terminal-1574344077-r4" x="97.6" y="971.6" textLength="61" clip-path="url(#terminal-1574344077-line-39)">Quit&#160;</text><text class="terminal-1574344077-r25" x="158.6" y="971.6" textLength="36.6" clip-path="url(#terminal-1574344077-line-39)">&#160;M&#160;</text><text class="terminal-1574344077-r4" x="195.2" y="971.6" textLength="109.8" clip-path="url(#terminal-1574344077-line-39)">Maximize&#160;</text><text class="terminal-1574344077-r25" x="305" y="971.6" textLength="36.6" clip-path="url(#terminal-1574344077-line-39)">&#160;F&#160;</text><text class="terminal-1574344077-r4" x="341.6" y="971.6" textLength="158.6" clip-path="url(#terminal-1574344077-line-39)">Hide&#160;filters&#160;</text><text class="terminal-1574344077-r25" x="500.2" y="971.6" textLength="36.6" clip-path="url(#terminal-1574344077-line-39)">&#160;D&#160;</text><text class="terminal-1574344077-r4" x="536.8" y="971.6" textLength="207.4" clip-path="url(#terminal-1574344077-line-39)">Remove&#160;--dry-run&#160;</text><text class="terminal-1574344077-r26" x="1073.6" y="971.6" textLength="12.2" clip-path="url(#terminal-1574344077-line-39)">▏</text><text class="terminal-1574344077-r25" x="1085.8" y="971.6" textLength="24.4" clip-path="url(#terminal-1574344077-line-39)">^p</text><text class="terminal-1574344077-r4" x="1110.2" y="971.6" textLength="97.6" clip-path="url(#terminal-1574344077-line-39)">&#160;palette</text>
    </g>
    </g>
</svg>