<svg class="rich-terminal" viewBox="0 0 1238 1026.0" xmlns="http://www.w3.org/2000/svg">
    <!-- Generated with Rich https://www.textualize.io -->
    <style>
    @font-face {
        font-family: "Fira Code";
        src: local("FiraCode-Regular"),
                url("https://cdnjs.cloudflare.com/ajax/libs/firacode/6.2.0/woff2/FiraCode-Regular.woff2") format("woff2"),
                url("https://cdnjs.cloudflare.com/ajax/libs/firacode/6.2.0/woff/FiraCode-Regular.woff") format("woff");
        font-style: normal;
        font-weight: 400;
    }
    @font-face {
        font-family: "Fira Code";
        src: local("FiraCode-Bold"),
                url("https://cdnjs.cloudflare.com/ajax/libs/firacode/6.2.0/woff2/FiraCode-Bold.woff2") format("woff2"),
                url("https://cdnjs.cloudflare.com/ajax/libs/firacode/6.2.0/woff/FiraCode-Bold.woff") format("woff");
        font-style: bold;
        font-weight: 700;
    }
    .terminal-3561655907-matrix {
        font-family: Fira Code, monospace;
        font-size: 20px;
        line-height: 24.4px;
        font-variant-east-asian: full-width;
    }
    .terminal-3561655907-title {
        font-size: 18px;
        font-weight: bold;
        font-family: arial;
    }
    .terminal-3561655907-r1 { fill: #c5c8c6 }
.terminal-3561655907-r2 { fill: #0178d4;font-weight: bold }
.terminal-3561655907-r3 { fill: #404040 }
.terminal-3561655907-r4 { fill: #6e6e6e }
.terminal-3561655907-r5 { fill: #dcdcdc }
.terminal-3561655907-r6 { fill: #000000 }
.terminal-3561655907-r7 { fill: #0178d4 }
.terminal-3561655907-r8 { fill: #c48cc9;font-weight: bold }
.terminal-3561655907-r9 { fill: #848484;font-weight: bold }
.terminal-3561655907-r10 { fill: #8ad4a1 }
.terminal-3561655907-r11 { fill: #ffc473 }
.terminal-3561655907-r12 { fill: #101010 }
.terminal-3561655907-r13 { fill: #f187fb;font-weight: bold }
.terminal-3561655907-r14 { fill: #383838 }
    </style>
    <defs>
    <clipPath id="terminal-3561655907-clip-terminal">
      <rect x="0" y="0" width="1219.0" height="975.0" />
    </clipPath>
    <clipPath id="terminal-3561655907-line-0">
    <rect x="0" y="1.5" width="1220" height="24.65"/>
            </clipPath>
<clipPath id="terminal-3561655907-line-1">
    <rect x="0" y="25.9" width="1220" height="24.65"/>
            </clipPath>
<clipPath id="terminal-3561655907-line-2">
    <rect x="0" y="50.3" width="1220" height="24.65"/>
            </clipPath>
<clipPath id="terminal-3561655907-line-3">
    <rect x="0" y="74.7" width="1220" height="24.65"/>
            </clipPath>
<clipPath id="terminal-3561655907-line-4">
    <rect x="0" y="99.1" width="1220" height="24.65"/>
            </clipPath>
<clipPath id="terminal-3561655907-line-5">
    <rect x="0" y="123.5" width="1220" height="24.65"/>
            </clipPath>
<clipPath id="terminal-3561655907-line-6">
    <rect x="0" y="147.9" width="1220" height="24.65"/>
            </clipPath>
<clipPath id="terminal-3561655907-line-7">
    <rect x="0" y="172.3" width="1220" height="24.65"/>
            </clipPath>
<clipPath id="terminal-3561655907-line-8">
    <rect x="0" y="196.7" width="1220" height="24.65"/>
            </clipPath>
<clipPath id="terminal-3561655907-line-9">
    <rect x="0" y="221.1" width="1220" height="24.65"/>
            </clipPath>
<clipPath id="terminal-3561655907-line-10">
    <rect x="0" y="245.5" width="1220" height="24.65"/>
            </clipPath>
<clipPath id="terminal-3561655907-line-11">
    <rect x="0" y="269.9" width="1220" height="24.65"/>
            </clipPath>
<clipPath id="terminal-3561655907-line-12">
    <rect x="0" y="294.3" width="1220" height="24.65"/>
            </clipPath>
<clipPath id="terminal-3561655907-line-13">
    <rect x="0" y="318.7" width="1220" height="24.65"/>
            </clipPath>
<clipPath id="terminal-3561655907-line-14">
    <rect x="0" y="343.1" width="1220" height="24.65"/>
            </clipPath>
<clipPath id="terminal-3561655907-line-15">
    <rect x="0" y="367.5" width="1220" height="24.65"/>
            </clipPath>
<clipPath id="terminal-3561655907-line-16">
    <rect x="0" y="391.9" width="1220" height="24.65"/>
            </clipPath>
<clipPath id="terminal-3561655907-line-17">
    <rect x="0" y="416.3" width="1220" height="24.65"/>
            </clipPath>
<clipPath id="terminal-3561655907-line-18">
    <rect x="0" y="440.7" width="1220" height="24.65"/>
            </clipPath>
<clipPath id="terminal-3561655907-line-19">
    <rect x="0" y="465.1" width="1220" height="24.65"/>
            </clipPath>
<clipPath id="terminal-3561655907-line-20">
    <rect x="0" y="489.5" width="1220" height="24.65"/>
            </clipPath>
<clipPath id="terminal-3561655907-line-21">
    <rect x="0" y="513.9" width="1220" height="24.65"/>
            </clipPath>
<clipPath id="terminal-3561655907-line-22">
    <rect x="0" y="538.3" width="1220" height="24.65"/>
            </clipPath>
<clipPath id="terminal-3561655907-line-23">
    <rect x="0" y="562.7" width="1220" height="24.65"/>
            </clipPath>
<clipPath id="terminal-3561655907-line-24">
    <rect x="0" y="587.1" width="1220" height="24.65"/>
            </clipPath>
<clipPath id="terminal-3561655907-line-25">
    <rect x="0" y="611.5" width="1220" height="24.65"/>
            </clipPath>
<clipPath id="terminal-3561655907-line-26">
    <rect x="0" y="635.9" width="1220" height="24.65"/>
            </clipPath>
<clipPath id="terminal-3561655907-line-27">
    <rect x="0" y="660.3" width="1220" height="24.65"/>
            </clipPath>
<clipPath id="terminal-3561655907-line-28">
    <rect x="0" y="684.7" width="1220" height="24.65"/>
            </clipPath>
<clipPath id="terminal-3561655907-line-29">
    <rect x="0" y="709.1" width="1220" height="24.65"/>
            </clipPath>
<clipPath id="terminal-3561655907-line-30">
    <rect x="0" y="733.5" width="1220" height="24.65"/>
            </clipPath>
<clipPath id="terminal-3561655907-line-31">
    <rect x="0" y="757.9" width="1220" height="24.65"/>
            </clipPath>
<clipPath id="terminal-3561655907-line-32">
    <rect x="0" y="782.3" width="1220" height="24.65"/>
            </clipPath>
<clipPath id="terminal-3561655907-line-33">
    <rect x="0" y="806.7" width="1220" height="24.65"/>
            </clipPath>
<clipPath id="terminal-3561655907-line-34">
    <rect x="0" y="831.1" width="1220" height="24.65"/>
            </clipPath>
<clipPath id="terminal-3561655907-line-35">
    <rect x="0" y="855.5" width="1220" height="24.65"/>
            </clipPath>
<clipPath id="terminal-3561655907-line-36">
    <rect x="0" y="879.9" width="1220" height="24.65"/>
            </clipPath>
<clipPath id="terminal-3561655907-line-37">
    <rect x="0" y="904.3" width="1220" height="24.65"/>
            </clipPath>
<clipPath id="terminal-3561655907-line-38">
    <rect x="0" y="928.7" width="1220" height="24.65"/>
            </clipPath>
    </defs>
    <rect fill="#292929" stroke="rgba(255,255,255,0.35)" stroke-width="1" x="1" y="1" width="1236" height="1024" rx="8"/><text class="terminal-3561655907-title" fill="#c5c8c6" text-anchor="middle" x="618" y="27">ChezmoiGUI</text>
            <g transform="translate(26,22)">
            <circle cx="0" cy="0" r="7" fill="#ff5f57"/>
            <circle cx="22" cy="0" r="7" fill="#febc2e"/>
            <circle cx="44" cy="0" r="7" fill="#28c840"/>
            </g>
    <g transform="translate(9, 41)" clip-path="url(#terminal-3561655907-clip-terminal)">
    <rect fill="#000000" x="0" y="1.5" width="12.2" height="24.65" shape-rendering="crispEdges"/><rect fill="#000000" x="12.2" y="1.5" width="12.2" height="24.65" shape-rendering="crispEdges"/><rect fill="#000000" x="24.4" y="1.5" width="61" height="24.65" shape-rendering="crispEdges"/><rect fill="#000000" x="85.4" y="1.5" width="12.2" height="24.65" shape-rendering="crispEdges"/><rect fill="#000000" x="97.6" y="1.5" width="134.2" height="24.65" shape-rendering="crispEdges"/><rect fill="#000000" x="231.8" y="1.5" width="719.8" height="24.65" shape-rendering="crispEdges"/><rect fill="#000000" x="951.6" y="1.5" width="146.4" height="24.65" shape-rendering="crispEdges"/><rect fill="#000000" x="1098" y="1.5" width="12.2" height="24.65" shape-rendering="crispEdges"/><rect fill="#000000" x="1110.2" y="1.5" width="0" height="24.65" shape-rendering="crispEdges"/><rect fill="#000000" x="1110.2" y="1.5" width="109.8" height="24.65" shape-rendering="crispEdges"/><rect fill="#000000" x="0" y="25.9" width="1220" height="24.65" shape-rendering="crispEdges"/><rect fill="#000000" x="0" y="50.3" width="268.4" height="24.65" shape-rendering="crispEdges"/><rect fill="#000000" x="268.4" y="50.3" width="61" height="24.65" shape-rendering="crispEdges"/><rect fill="#000000" x="329.4" y="50.3" width="48.8" height="24.65" shape-rendering="crispEdges"/><rect fill="#000000" x="378.2" y="50.3" width="73.2" height="24.65" shape-rendering="crispEdges"/><rect fill="#000000" x="451.4" y="50.3" width="48.8" height="24.65" shape-rendering="crispEdges"/><rect fill="#000000" x="500.2" y="50.3" width="36.6" height="24.65" shape-rendering="crispEdges"/><rect fill="#000000" x="536.8" y="50.3" width="48.8" height="24.65" shape-rendering="crispEdges"/><rect fill="#000000" x="585.6" y="50.3" width="48.8" height="24.65" shape-rendering="crispEdges"/><rect fill="#000000" x="634.4" y="50.3" width="48.8" height="24.65" shape-rendering="crispEdges"/><rect fill="#000000" x="683.2" y="50.3" width="48.8" height="24.65" shape-rendering="crispEdges"/><rect fill="#000000" x="732" y="50.3" width="48.8" height="24.65" shape-rendering="crispEdges"/><rect fill="#000000" x="780.8" y="50.3" width="73.2" height="24.65" shape-rendering="crispEdges"/><rect fill="#000000" x="854" y="50.3" width="48.8" height="24.65" shape-rendering="crispEdges"/><rect fill="#000000" x="902.8" y="50.3" width="48.8" height="24.65" shape-rendering="crispEdges"/><rect fill="#000000" x="951.6" y="50.3" width="268.4" height="24.65" shape-rendering="crispEdges"/><rect fill="#000000" x="0" y="74.7" width="683.2" height="24.65" shape-rendering="crispEdges"/><rect fill="#000000" x="683.2" y="74.7" width="48.8" height="24.65" shape-rendering="crispEdges"/><rect fill="#000000" x="732" y="74.7" width="488" height="24.65" shape-rendering="crispEdges"/><rect fill="#000000" x="0" y="99.1" width="195.2" height="24.65" shape-rendering="crispEdges"/><rect fill="#000000" x="195.2" y="99.1" width="219.6" height="24.65" shape-rendering="crispEdges"/><rect fill="#000000" x="414.8" y="99.1" width="414.8" height="24.65" shape-rendering="crispEdges"/><rect fill="#000000" x="829.6" y="99.1" width="158.6" height="24.65" shape-rendering="crispEdges"/><rect fill="#000000" x="988.2" y="99.1" width="231.8" height="24.65" shape-rendering="crispEdges"/><rect fill="#000000" x="0" y="123.5" width="1220" height="24.65" shape-rendering="crispEdges"/><rect fill="#000000" x="0" y="147.9" width="134.2" height="24.65" shape-rendering="crispEdges"/><rect fill="#000000" x="134.2" y="147.9" width="231.8" height="24.65" shape-rendering="crispEdges"/><rect fill="#000000" x="366" y="147.9" width="854" height="24.65" shape-rendering="crispEdges"/><rect fill="#000000" x="0" y="172.3" width="134.2" height="24.65" shape-rendering="crispEdges"/><rect fill="#000000" x="134.2" y="172.3" width="183" height="24.65" shape-rendering="crispEdges"/><rect fill="#000000" x="317.2" y="172.3" width="902.8" height="24.65" shape-rendering="crispEdges"/><rect fill="#000000" x="0" y="196.7" width="134.2" height="24.65" shape-rendering="crispEdges"/><rect fill="#000000" x="134.2" y="196.7" width="244" height="24.65" shape-rendering="crispEdges"/><rect fill="#000000" x="378.2" y="196.7" width="841.8" height="24.65" shape-rendering="crispEdges"/><rect fill="#000000" x="0" y="221.1" width="134.2" height="24.65" shape-rendering="crispEdges"/><rect fill="#000000" x="134.2" y="221.1" width="231.8" height="24.65" shape-rendering="crispEdges"/><rect fill="#000000" x="366" y="221.1" width="854" height="24.65" shape-rendering="crispEdges"/><rect fill="#000000" x="0" y="245.5" width="134.2" height="24.65" shape-rendering="crispEdges"/><rect fill="#000000" x="134.2" y="245.5" width="195.2" height="24.65" shape-rendering="crispEdges"/><rect fill="#000000" x="329.4" y="245.5" width="890.6" height="24.65" shape-rendering="crispEdges"/><rect fill="#000000" x="0" y="269.9" width="134.2" height="24.65" shape-rendering="crispEdges"/><rect fill="#000000" x="134.2" y="269.9" width="378.2" height="24.65" shape-rendering="crispEdges"/><rect fill="#000000" x="512.4" y="269.9" width="707.6" height="24.65" shape-rendering="crispEdges"/><rect fill="#000000" x="0" y="294.3" width="134.2" height="24.65" shape-rendering="crispEdges"/><rect fill="#000000" x="134.2" y="294.3" width="390.4" height="24.65" shape-rendering="crispEdges"/><rect fill="#000000" x="524.6" y="294.3" width="695.4" height="24.65" shape-rendering="crispEdges"/><rect fill="#000000" x="0" y="318.7" width="134.2" height="24.65" shape-rendering="crispEdges"/><rect fill="#000000" x="134.2" y="318.7" width="366" height="24.65" shape-rendering="crispEdges"/><rect fill="#000000" x="500.2" y="318.7" width="719.8" height="24.65" shape-rendering="crispEdges"/><rect fill="#000000" x="0" y="343.1" width="134.2" height="24.65" shape-rendering="crispEdges"/><rect fill="#000000" x="134.2" y="343.1" width="378.2" height="24.65" shape-rendering="crispEdges"/><rect fill="#000000" x="512.4" y="343.1" width="707.6" height="24.65" shape-rendering="crispEdges"/><rect fill="#000000" x="0" y="367.5" width="134.2" height="24.65" shape-rendering="crispEdges"/><rect fill="#000000" x="134.2" y="367.5" width="158.6" height="24.65" shape-rendering="crispEdges"/><rect fill="#000000" x="292.8" y="367.5" width="927.2" height="24.65" shape-rendering="crispEdges"/><rect fill="#000000" x="0" y="391.9" width="134.2" height="24.65" shape-rendering="crispEdges"/><rect fill="#000000" x="134.2" y="391.9" width="183" height="24.65" shape-rendering="crispEdges"/><rect fill="#000000" x="317.2" y="391.9" width="902.8" height="24.65" shape-rendering="crispEdges"/><rect fill="#000000" x="0" y="416.3" width="1220" height="24.65" shape-rendering="crispEdges"/><rect fill="#000000" x="0" y="440.7" width="1220" height="24.65" shape-rendering="crispEdges"/><rect fill="#000000" x="0" y="465.1" width="1220" height="24.65" shape-rendering="crispEdges"/><rect fill="#000000" x="0" y="489.5" width="1220" height="24.65" shape-rendering="crispEdges"/><rect fill="#000000" x="0" y="513.9" width="1220" height="24.65" shape-rendering="crispEdges"/><rect fill="#000000" x="0" y="538.3" width="1220" height="24.65" shape-rendering="crispEdges"/><rect fill="#000000" x="0" y="562.7" width="1220" height="24.65" shape-rendering="crispEdges"/><rect fill="#000000" x="0" y="587.1" width="1220" height="24.65" shape-rendering="crispEdges"/><rect fill="#000000" x="0" y="611.5" width="1220" height="24.65" shape-rendering="crispEdges"/><rect fill="#000000" x="0" y="635.9" width="1220" height="24.65" shape-rendering="crispEdges"/><rect fill="#000000" x="0" y="660.3" width="1220" height="24.65" shape-rendering="crispEdges"/><rect fill="#000000" x="0" y="684.7" width="1220" height="24.65" shape-rendering="crispEdges"/><rect fill="#000000" x="0" y="709.1" width="1220" height="24.65" shape-rendering="crispEdges"/><rect fill="#000000" x="0" y="733.5" width="1220" height="24.65" shape-rendering="crispEdges"/><rect fill="#000000" x="0" y="757.9" width="1220" height="24.65" shape-rendering="crispEdges"/><rect fill="#000000" x="0" y="782.3" width="1220" height="24.65" shape-rendering="crispEdges"/><rect fill="#000000" x="0" y="806.7" width="1220" height="24.65" shape-rendering="crispEdges"/><rect fill="#000000" x="0" y="831.1" width="1220" height="24.65" shape-rendering="crispEdges"/><rect fill="#000000" x="0" y="855.5" width="1220" height="24.65" shape-rendering="crispEdges"/><rect fill="#000000" x="0" y="879.9" width="1220" height="24.65" shape-rendering="crispEdges"/><rect fill="#000000" x="0" y="904.3" width="1220" height="24.65" shape-rendering="crispEdges"/><rect fill="#000000" x="0" y="928.7" width="1220" height="24.65" shape-rendering="crispEdges"/><rect fill="#101010" x="0" y="953.1" width="97.6" height="24.65" shape-rendering="crispEdges"/><rect fill="#101010" x="97.6" y="953.1" width="61" height="24.65" shape-rendering="crispEdges"/><rect fill="#101010" x="158.6" y="953.1" width="36.6" height="24.65" shape-rendering="crispEdges"/><rect fill="#101010" x="195.2" y="953.1" width="109.8" height="24.65" shape-rendering="crispEdges"/><rect fill="#101010" x="305" y="953.1" width="36.6" height="24.65" shape-rendering="crispEdges"/><rect fill="#101010" x="341.6" y="953.1" width="207.4" height="24.65" shape-rendering="crispEdges"/><rect fill="#101010" x="549" y="953.1" width="524.6" height="24.65" shape-rendering="crispEdges"/><rect fill="#101010" x="1073.6" y="953.1" width="12.2" height="24.65" shape-rendering="crispEdges"/><rect fill="#101010" x="1085.8" y="953.1" width="24.4" height="24.65" shape-rendering="crispEdges"/><rect fill="#101010" x="1110.2" y="953.1" width="97.6" height="24.65" shape-rendering="crispEdges"/><rect fill="#101010" x="1207.8" y="953.1" width="12.2" height="24.65" shape-rendering="crispEdges"/>
    <g class="terminal-3561655907-matrix">
    <text class="terminal-3561655907-r2" x="12.2" y="20" textLength="12.2" clip-path="url(#terminal-3561655907-line-0)">≡</text><text class="terminal-3561655907-r2" x="231.8" y="20" textLength="719.8" clip-path="url(#terminal-3561655907-line-0)">-&#160;&#160;c&#160;h&#160;e&#160;z&#160;m&#160;o&#160;i&#160;&#160;m&#160;o&#160;u&#160;s&#160;s&#160;e&#160;&#160;--&#160;&#160;d&#160;r&#160;y&#160;&#160;r&#160;u&#160;n&#160;&#160;m&#160;o&#160;d&#160;e&#160;&#160;-</text><text class="terminal-3561655907-r1" x="1220" y="20" textLength="12.2" clip-path="url(#terminal-3561655907-line-0)">
</text><text class="terminal-3561655907-r3" x="0" y="44.4" textLength="1220" clip-path="url(#terminal-3561655907-line-1)">╍╍╍╍╍╍╍╍╍╍╍╍╍╍╍╍╍╍╍╍╍╍╍╍╍╍╍╍╍╍╍╍╍╍╍╍╍╍╍╍╍╍╍╍╍╍╍╍╍╍╍╍╍╍╍╍╍╍╍╍╍╍╍╍╍╍╍╍╍╍╍╍╍╍╍╍╍╍╍╍╍╍╍╍╍╍╍╍╍╍╍╍╍╍╍╍╍╍╍╍</text><text class="terminal-3561655907-r1" x="1220" y="44.4" textLength="12.2" clip-path="url(#terminal-3561655907-line-1)">
</text><text class="terminal-3561655907-r4" x="268.4" y="68.8" textLength="61" clip-path="url(#terminal-3561655907-line-2)">Apply</text><text class="terminal-3561655907-r4" x="378.2" y="68.8" textLength="73.2" clip-path="url(#terminal-3561655907-line-2)">Re-Add</text><text class="terminal-3561655907-r4" x="500.2" y="68.8" textLength="36.6" clip-path="url(#terminal-3561655907-line-2)">Add</text><text class="terminal-3561655907-r4" x="585.6" y="68.8" textLength="48.8" clip-path="url(#terminal-3561655907-line-2)">Init</text><text class="terminal-3561655907-r5" x="683.2" y="68.8" textLength="48.8" clip-path="url(#terminal-3561655907-line-2)">Logs</text><text class="terminal-3561655907-r4" x="780.8" y="68.8" textLength="73.2" clip-path="url(#terminal-3561655907-line-2)">Config</text><text class="terminal-3561655907-r4" x="902.8" y="68.8" textLength="48.8" clip-path="url(#terminal-3561655907-line-2)">Help</text><text class="terminal-3561655907-r1" x="1220" y="68.8" textLength="12.2" clip-path="url(#terminal-3561655907-line-2)">
</text><text class="terminal-3561655907-r6" x="0" y="93.2" textLength="683.2" clip-path="url(#terminal-3561655907-line-3)">━━━━━━━━━━━━━━━━━━━━━━━━━━━━━━━━━━━━━━━━━━━━━━━━━━━━━━━╸</text><text class="terminal-3561655907-r7" x="683.2" y="93.2" textLength="48.8" clip-path="url(#terminal-3561655907-line-3)">━━━━</text><text class="terminal-3561655907-r6" x="732" y="93.2" textLength="488" clip-path="url(#terminal-3561655907-line-3)">╺━━━━━━━━━━━━━━━━━━━━━━━━━━━━━━━━━━━━━━━</text><text class="terminal-3561655907-r1" x="1220" y="93.2" textLength="12.2" clip-path="url(#terminal-3561655907-line-3)">
</text><text class="terminal-3561655907-r8" x="195.2" y="117.6" textLength="219.6" clip-path="url(#terminal-3561655907-line-4)">&#160;Chezmoi-Commands&#160;</text><text class="terminal-3561655907-r9" x="829.6" y="117.6" textLength="158.6" clip-path="url(#terminal-3561655907-line-4)">&#160;Application&#160;</text><text class="terminal-3561655907-r1" x="1220" y="117.6" textLength="12.2" clip-path="url(#terminal-3561655907-line-4)">
</text><text class="terminal-3561655907-r7" x="0" y="142" textLength="1220" clip-path="url(#terminal-3561655907-line-5)">────────────────────────────────────────────────────────────────────────────────────────────────────</text><text class="terminal-3561655907-r1" x="1220" y="142" textLength="12.2" clip-path="url(#terminal-3561655907-line-5)">
</text><text class="terminal-3561655907-r5" x="0" y="166.4" textLength="134.2" clip-path="url(#terminal-3561655907-line-6)">▸&#160;04:35:36&#160;</text><text class="terminal-3561655907-r10" x="134.2" y="166.4" textLength="231.8" clip-path="url(#terminal-3561655907-line-6)">&#160;chezmoi&#160;cat-config</text><text class="terminal-3561655907-r1" x="1220" y="166.4" textLength="12.2" clip-path="url(#terminal-3561655907-line-6)">
</text><text class="terminal-3561655907-r5" x="0" y="190.8" textLength="134.2" clip-path="url(#terminal-3561655907-line-7)">▸&#160;04:35:36&#160;</text><text class="terminal-3561655907-r10" x="134.2" y="190.8" textLength="183" clip-path="url(#terminal-3561655907-line-7)">&#160;chezmoi&#160;doctor</text><text class="terminal-3561655907-r1" x="1220" y="190.8" textLength="12.2" clip-path="url(#terminal-3561655907-line-7)">
</text><text class="terminal-3561655907-r5" x="0" y="215.2" textLength="134.2" clip-path="url(#terminal-3561655907-line-8)">▸&#160;04:35:36&#160;</text><text class="terminal-3561655907-r10" x="134.2" y="215.2" textLength="244" clip-path="url(#terminal-3561655907-line-8)">&#160;chezmoi&#160;dump-config</text><text class="terminal-3561655907-r1" x="1220" y="215.2" textLength="12.2" clip-path="url(#terminal-3561655907-line-8)">
</text><text class="terminal-3561655907-r5" x="0" y="239.6" textLength="134.2" clip-path="url(#terminal-3561655907-line-9)">▸&#160;04:35:36&#160;</text><text class="terminal-3561655907-r10" x="134.2" y="239.6" textLength="231.8" clip-path="url(#terminal-3561655907-line-9)">&#160;chezmoi&#160;git&#160;--&#160;log</text><text class="terminal-3561655907-r1" x="1220" y="239.6" textLength="12.2" clip-path="url(#terminal-3561655907-line-9)">
</text><text class="terminal-3561655907-r5" x="0" y="264" textLength="134.2" clip-path="url(#terminal-3561655907-line-10)">▸&#160;04:35:36&#160;</text><text class="terminal-3561655907-r10" x="134.2" y="264" textLength="195.2" clip-path="url(#terminal-3561655907-line-10)">&#160;chezmoi&#160;ignored</text><text class="terminal-3561655907-r1" x="1220" y="264" textLength="12.2" clip-path="url(#terminal-3561655907-line-10)">
</text><text class="terminal-3561655907-r5" x="0" y="288.4" textLength="134.2" clip-path="url(#terminal-3561655907-line-11)">▸&#160;04:35:36&#160;</text><text class="terminal-3561655907-r10" x="134.2" y="288.4" textLength="378.2" clip-path="url(#terminal-3561655907-line-11)">&#160;chezmoi&#160;managed&#160;--include=dirs</text><text class="terminal-3561655907-r1" x="1220" y="288.4" textLength="12.2" clip-path="url(#terminal-3561655907-line-11)">
</text><text class="terminal-3561655907-r5" x="0" y="312.8" textLength="134.2" clip-path="url(#terminal-3561655907-line-12)">▸&#160;04:35:36&#160;</text><text class="terminal-3561655907-r10" x="134.2" y="312.8" textLength="390.4" clip-path="url(#terminal-3561655907-line-12)">&#160;chezmoi&#160;managed&#160;--include=files</text><text class="terminal-3561655907-r1" x="1220" y="312.8" textLength="12.2" clip-path="url(#terminal-3561655907-line-12)">
</text><text class="terminal-3561655907-r5" x="0" y="337.2" textLength="134.2" clip-path="url(#terminal-3561655907-line-13)">▸&#160;04:35:36&#160;</text><text class="terminal-3561655907-r10" x="134.2" y="337.2" textLength="366" clip-path="url(#terminal-3561655907-line-13)">&#160;chezmoi&#160;status&#160;--include=dirs</text><text class="terminal-3561655907-r1" x="1220" y="337.2" textLength="12.2" clip-path="url(#terminal-3561655907-line-13)">
</text><text class="terminal-3561655907-r5" x="0" y="361.6" textLength="134.2" clip-path="url(#terminal-3561655907-line-14)">▸&#160;04:35:36&#160;</text><text class="terminal-3561655907-r10" x="134.2" y="361.6" textLength="378.2" clip-path="url(#terminal-3561655907-line-14)">&#160;chezmoi&#160;status&#160;--include=files</text><text class="terminal-3561655907-r1" x="1220" y="361.6" textLength="12.2" clip-path="url(#terminal-3561655907-line-14)">
</text><text class="terminal-3561655907-r5" x="0" y="386" textLength="134.2" clip-path="url(#terminal-3561655907-line-15)">▸&#160;04:35:36&#160;</text><text class="terminal-3561655907-r10" x="134.2" y="386" textLength="158.6" clip-path="url(#terminal-3561655907-line-15)">&#160;chezmoi&#160;data</text><text class="terminal-3561655907-r1" x="1220" y="386" textLength="12.2" clip-path="url(#terminal-3561655907-line-15)">
</text><text class="terminal-3561655907-r5" x="0" y="410.4" textLength="134.2" clip-path="url(#terminal-3561655907-line-16)">▸&#160;04:35:36&#160;</text><text class="terminal-3561655907-r11" x="134.2" y="410.4" textLength="183" clip-path="url(#terminal-3561655907-line-16)">&#160;chezmoi&#160;verify</text><text class="terminal-3561655907-r1" x="1220" y="410.4" textLength="12.2" clip-path="url(#terminal-3561655907-line-16)">
</text><text class="terminal-3561655907-r1" x="1220" y="434.8" textLength="12.2" clip-path="url(#terminal-3561655907-line-17)">
</text><text class="terminal-3561655907-r1" x="1220" y="459.2" textLength="12.2" clip-path="url(#terminal-3561655907-line-18)">
</text><text class="terminal-3561655907-r1" x="1220" y="483.6" textLength="12.2" clip-path="url(#terminal-3561655907-line-19)">
</text><text class="terminal-3561655907-r1" x="1220" y="508" textLength="12.2" clip-path="url(#terminal-3561655907-line-20)">
</text><text class="terminal-3561655907-r1" x="1220" y="532.4" textLength="12.2" clip-path="url(#terminal-3561655907-line-21)">
</text><text class="terminal-3561655907-r1" x="1220" y="556.8" textLength="12.2" clip-path="url(#terminal-3561655907-line-22)">
</text><text class="terminal-3561655907-r1" x="1220" y="581.2" textLength="12.2" clip-path="url(#terminal-3561655907-line-23)">
</text><text class="terminal-3561655907-r1" x="1220" y="605.6" textLength="12.2" clip-path="url(#terminal-3561655907-line-24)">
</text><text class="terminal-3561655907-r1" x="1220" y="630" textLength="12.2" clip-path="url(#terminal-3561655907-line-25)">
</text><text class="terminal-3561655907-r1" x="1220" y="654.4" textLength="12.2" clip-path="url(#terminal-3561655907-line-26)">
</text><text class="terminal-3561655907-r1" x="1220" y="678.8" textLength="12.2" clip-path="url(#terminal-3561655907-line-27)">
</text><text class="terminal-3561655907-r1" x="1220" y="703.2" textLength="12.2" clip-path="url(#terminal-3561655907-line-28)">
</text><text class="terminal-3561655907-r1" x="1220" y="727.6" textLength="12.2" clip-path="url(#terminal-3561655907-line-29)">
</text><text class="terminal-3561655907-r1" x="1220" y="752" textLength="12.2" clip-path="url(#terminal-3561655907-line-30)">
</text><text class="terminal-3561655907-r1" x="1220" y="776.4" textLength="12.2" clip-path="url(#terminal-3561655907-line-31)">
</text><text class="terminal-3561655907-r1" x="1220" y="800.8" textLength="12.2" clip-path="url(#terminal-3561655907-line-32)">
</text><text class="terminal-3561655907-r1" x="1220" y="825.2" textLength="12.2" clip-path="url(#terminal-3561655907-line-33)">
</text><text class="terminal-3561655907-r1" x="1220" y="849.6" textLength="12.2" clip-path="url(#terminal-3561655907-line-34)">
</text><text class="terminal-3561655907-r1" x="1220" y="874" textLength="12.2" clip-path="url(#terminal-3561655907-line-35)">
</text><text class="terminal-3561655907-r1" x="1220" y="898.4" textLength="12.2" clip-path="url(#terminal-3561655907-line-36)">
</text><text class="terminal-3561655907-r1" x="1220" y="922.8" textLength="12.2" clip-path="url(#terminal-3561655907-line-37)">
</text><text class="terminal-3561655907-r12" x="0" y="947.2" textLength="1220" clip-path="url(#terminal-3561655907-line-38)">▁▁▁▁▁▁▁▁▁▁▁▁▁▁▁▁▁▁▁▁▁▁▁▁▁▁▁▁▁▁▁▁▁▁▁▁▁▁▁▁▁▁▁▁▁▁▁▁▁▁▁▁▁▁▁▁▁▁▁▁▁▁▁▁▁▁▁▁▁▁▁▁▁▁▁▁▁▁▁▁▁▁▁▁▁▁▁▁▁▁▁▁▁▁▁▁▁▁▁▁</text><text class="terminal-3561655907-r1" x="1220" y="947.2" textLength="12.2" clip-path="url(#terminal-3561655907-line-38)">
</text><text class="terminal-3561655907-r13" x="0" y="971.6" textLength="97.6" clip-path="url(#terminal-3561655907-line-39)">&#160;Ctrl-q&#160;</text><text class="terminal-3561655907-r5" x="97.6" y="971.6" textLength="61" clip-path="url(#terminal-3561655907-line-39)">Quit&#160;</text><text class="terminal-3561655907-r13" x="158.6" y="971.6" textLength="36.6" clip-path="url(#terminal-3561655907-line-39)">&#160;M&#160;</text><text class="terminal-3561655907-r5" x="195.2" y="971.6" textLength="109.8" clip-path="url(#terminal-3561655907-line-39)">Maximize&#160;</text><text class="terminal-3561655907-r13" x="305" y="971.6" textLength="36.6" clip-path="url(#terminal-3561655907-line-39)">&#160;D&#160;</text><text class="terminal-3561655907-r5" x="341.6" y="971.6" textLength="207.4" clip-path="url(#terminal-3561655907-line-39)">Remove&#160;--dry-run&#160;</text><text class="terminal-3561655907-r14" x="1073.6" y="971.6" textLength="12.2" clip-path="url(#terminal-3561655907-line-39)">▏</text><text class="terminal-3561655907-r13" x="1085.8" y="971.6" textLength="24.4" clip-path="url(#terminal-3561655907-line-39)">^p</text><text class="terminal-3561655907-r5" x="1110.2" y="971.6" textLength="97.6" clip-path="url(#terminal-3561655907-line-39)">&#160;palette</text>
    </g>
    </g>
</svg>